<?xml version="1.0" encoding="UTF-8"?>
<svg id="Capa_2" xmlns="http://www.w3.org/2000/svg" xmlns:xlink="http://www.w3.org/1999/xlink" viewBox="0 0 1920 2047.53">
  <defs>
    <style>
      .cls-1 {
        fill: none;
      }

      .cls-2 {
        fill: #fff;
      }

      .cls-3 {
        clip-path: url(#clippath);
      }
    </style>
    <clipPath id="clippath">
      <rect class="cls-1" width="1920" height="2047.53"/>
    </clipPath>
  </defs>
  <g id="Capa_2-2" data-name="Capa_2">
    <g class="cls-3">
      <g>
        <path class="cls-2" d="M747.5,1042.4c9.15-.01,12.15,8.87,15.07,13.92,7.26,12.55,15.59,24.06,24.51,35.36,4.12,5.22,7.11,11.32,10.62,17.03l.3-.29c-3.56-1.7-7.11-3.4-12.64-6.04,1.12,3.96,1.15,6.01,2.15,7.32,45.01,59.02,95.58,112.83,151.7,161.39,51.04,44.16,105.84,82.89,167.38,111.07,132.13,60.5,258.32,46.96,378.95-31.81,95.73-62.51,152.38-152.38,182.85-260.6,18.04-64.06,28.08-129.45,29.01-195.93,1.4-100.17-21.66-194.87-66.75-284.31-34.47-68.38-78.2-130.1-132.1-184.53-65.18-65.82-140.18-115.83-230.01-141.58-36.73-10.53-74.27-17-112.51-14.14-78.09,5.84-136.01,43.23-171.12,113.89-17.55,35.32-27.91,72.94-28.35,112.42-.3,26.57.25,53.35,10.4,78.97,4.55,11.51,5.17,24.51,8.97,36.39,6.6,20.61,16.29,39.74,31.27,55.78.64.69,1.58,1.5,1.62,2.29,1.01,21.13,14.43,36.57,24.83,53.22,23.51,37.64,49.09,73.75,81,104.96,32.7,31.99,69.43,57.62,111.86,75.56,55.08,23.28,106.52,16.56,155.75-15.17,35.08-22.61,60.07-53.43,74.75-92.71,9.83-26.3,9.15-52.43.81-78.74-12.35-38.97-29.89-75.06-58.79-104.72-12.9-13.23-25.22-27.21-39.32-39.05-21.75-18.26-47.38-26.75-76.06-22.93-32.35,4.3-55.52,21.76-70.23,50.71-1.54,3.03-2.83,6.24-4.68,9.07-17.27,26.29-16.76,54.45-7.42,82.79,6.59,19.99,17.45,38,31.47,53.9,1.59,1.8,3.36,3.51,5.32,4.88,1.03.71,2.65.58,7.27,1.42-8.59-12.69-15.82-23.37-23.05-34.06.64-.47,1.29-.93,1.93-1.4,6.57,8.09,13.11,16.2,19.72,24.26,7.88,9.62,9.82,10.05,20.68,4.75,6.11-2.98,12.3-5.81,18.24-9.09,2.44-1.35,5.98-3.58,6.14-5.64.47-5.8,3.54-6.52,8.3-7.84,4.17-1.16,7.54-5.24,12.62-9.05-5.17-6.14-9.53-11.12-13.66-16.29-3.71-4.64-7.17-9.49-10.73-14.25.94-.78,1.87-1.56,2.81-2.35,3.44,3.63,6.94,7.2,10.3,10.9,5.11,5.6,10.97,10.16,18.93,7.95,6.07-1.68,7.82-8.84,6.21-20.44-.19-1.4-.26-2.82-.7-7.74,9.66,10.24,17.82,18.09,25.04,26.71,20.12,24.04,32.66,51.65,37.91,82.63,2.74,16.15-1.11,31-8.22,45.18-6.71,13.37-19.77,17.6-32.93,18.15-12.91.54-26.33-.92-38.87-4.12-30.5-7.78-58.1-22.25-83.62-40.59-31.44-22.58-59.31-49.05-83.35-79.33-34.56-43.53-67.81-88.07-89.66-139.7-19.28-45.57-27.46-93.3-23.24-142.71,1.11-12.98,4.72-25.8,7.86-38.52,5.67-22.93,21.48-36.17,43.01-43.76,23.38-8.25,47.42-10.49,71.98-8.58,84.62,6.59,159.32,38.2,226.05,89.79,65.69,50.78,117.15,113.75,158.42,185.42,26.86,46.64,47.85,95.79,62.33,147.62,14.4,51.52,19.33,104.15,17.57,157.51-2.17,65.61-12.52,129.84-32.77,192.33-14.02,43.25-30.48,85.76-58.66,121.85-51.36,65.77-118.24,99.45-203.16,92.63-74.84-6.01-141.02-35.37-203.37-75.15-62.72-40.02-118.61-88.31-171.17-140.72-38.35-38.24-73.46-79.26-106.97-121.74-84.22-106.78-152.81-223.04-210-346.17-18.85-40.57-37.88-81.14-54.55-122.62-17.94-44.66-33.48-90.3-49.57-135.68-13.32-37.6-26.8-75.18-38.66-113.25-29.11-93.4-56.68-187.27-73.79-283.79-5.69-32.1-10.35-64.39-15.35-96.61-.5-3.22-.07-6.59-.07-11.45,16.55,0,32.48-.18,48.39.2,2.36.06,5.76,2.28,6.77,4.41,3.8,7.95,11.77,13.94,11.01,24.19-.23,3.07,1.65,6.55,3.27,9.45,14.89,26.62,25.72,55.14,38.55,82.71,20.53,44.09,39.94,88.69,60.14,132.93,8.05,17.64,16.01,35.45,25.82,52.11,6.03,10.25,15.12,18.84,23.57,27.46,5.01,5.11,11.26,5.42,18.82,3.23,19.79-5.74,33.68-18.94,46.35-33.84,20.18-23.72,32.09-52.02,43.15-80.67,20.31-52.62,39.71-105.62,61.01-157.83,8.95-21.93,21.76-42.28,33.17-64.03,5.71-.29,10.94-.79,16.18-.79,207.99-.04,415.98.04,623.97-.18,14.59-.02,27.69,3.58,40.69,9.7,56.17,26.43,108.06,59.82,158.17,96.2,37.07,26.91,71.94,56.43,105.18,87.92,36.06,34.16,70.46,69.89,101.28,108.88,24.65,31.19,49.86,62.06,72.49,94.7,23.18,33.44,46.23,67.15,63.95,104.12,12.38,25.84,24.76,51.86,39.68,76.25,11.77,19.25,15.06,42.02,28.19,60.33,13.84,42.95,28,85.8,41.45,128.88,24.91,79.76,38.71,161.82,49.02,244.51,5.78,46.38,8.56,92.99,7.87,139.83-.99,67.47-13.13,133.36-25.81,199.27-23.92,124.3-77.39,236.23-143.56,342.75-15.87,25.55-32.19,51.14-51.28,74.26-18.46,22.36-40.16,42.19-61.47,62.01-69.29,64.46-150.47,108.24-240.25,137.08-49.83,16.01-101.23,24.18-152.67,32.1-50.09,7.71-100.48,12.88-151.28,11.6-87.23-2.18-172.45-16.18-254.71-45.7-77.52-27.81-153.38-59.75-225.16-100.3-47.02-26.56-92.5-55.84-138.8-83.69-7.17-4.31-11.37-9.92-13.36-18.01-14.74-59.99-29.71-119.93-44.56-179.89-1.13-4.54-1.95-9.16-3.56-16.76,13.34,8.13,23.81,14.8,34.54,21,27.82,16.06,55.66,32.08,83.66,47.82,37.34,20.99,74.04,43.33,112.48,62.09,45.45,22.19,91.83,42.82,138.95,61.2,65.57,25.57,134.35,39.32,204.06,48.23,62.81,8.03,125.4,4.71,187.62-5.48,62.73-10.27,123.25-28.25,181.23-54.66,47.12-21.46,91.35-47.57,132.58-78.92,37.17-28.27,68.68-61.83,95.26-100.09,42.39-60.99,77.34-126.16,105.88-194.6,26.19-62.79,41.73-128.63,51.19-195.94,6.31-44.89,10.63-89.97,11.29-135.29,1.8-122.72-22.34-240.6-64.99-355.4-48.29-129.99-116.83-247.94-204.11-355.47-38.16-47.02-78.97-91.3-124.86-130.84-49.52-42.67-101.69-81.66-160.36-110.97-40.92-20.44-83.28-37.12-128.46-46.51-114.35-23.76-219.65-4.07-314.91,64.16-40.75,29.19-74.71,65.54-102.5,107.12-26.21,39.22-50.83,79.53-75.77,119.59-23.78,38.19-35.21,81.01-45.39,124.23-6.14,26.07-9.53,52.27-10.69,79.28-.86,20.06,5.77,35.62,12.91,51.78,9.31,3.03,15.64-.28,21.46-6.09,7.81-7.79,13.64-16.43,13.9-27.91.01-.48-.07-.97-.15-1.45-1.98-12.72-.19-24.34,5.2-36.55,9-20.41,15.93-41.79,22.89-63.03,12.86-39.24,32.86-74.79,55.39-109.04,24.6-37.41,48.79-75.15,78.07-109.2,8.88-10.32,18.72-19.8,27.78-29.98,3.38-3.8,5.78-8.47,8.63-12.74,9.17-.72,13.56-7.74,18.3-15.01-3.01.91-6.01,1.82-9.02,2.73,15.46-15.39,33.24-27.46,52.81-36.98,0,0-.31-.32-.31-.32-3.04,3.85-6.09,7.7-11.01,13.92,13.61-6.93,24.48-13.11,35.85-18.15,36.27-16.06,73.95-26.46,113.66-30.51,54.04-5.51,124.89,6.21,164.08,19.17,49.02,16.2,95.01,38.94,138.31,67.36,37.51,24.63,72.68,52.05,105.47,82.55,161.31,150.05,262.65,334.7,314.49,547.54,17.79,73.02,19.89,147.38,14.36,222.04-4.43,59.83-12.99,119.04-29.28,176.88-13.89,49.34-32.53,96.87-57.81,141.57-18.68,33.04-36.73,66.54-57.34,98.36-40.05,61.83-91.78,111.85-156.1,148.64-32.13,18.38-64.7,35.64-99.27,49-45.61,17.62-92.97,28.39-140.97,36.88-40.37,7.14-81,11.76-121.99,11.17-61.64-.89-121.83-12.01-181.57-26.62-48.02-11.75-93.78-29.29-138.68-49.53-22.63-10.21-45.18-20.67-68.16-30.05-45.34-18.51-86.23-45.15-128.31-69.55-37.47-21.72-74.3-44.57-111.06-67.47-11.07-6.9-21.2-15.39-31.3-23.73-2.64-2.18-4.09-6.33-5.13-9.86-15.36-51.75-30.76-103.49-45.77-155.35-30.18-104.22-60.14-208.51-90.16-312.78-17.1-59.39-34.68-118.65-51.06-178.24-29.01-105.56-58.88-210.92-85.38-317.11-27.93-111.89-52.38-224.64-78.25-337.04-8.73-37.94-17.17-75.94-25.68-113.94-1.15-5.15-1.91-10.4-3.06-16.79h89.35c1.92,18.53,4.05,36.28,5.55,54.08,9.26,109.93,28.12,218.15,57.99,324.37,5.92,21.05,13.73,41.56,20.14,62.49,5.12,16.7,9.01,33.78,14.2,50.45,15.73,50.57,29.9,101.63,51.26,150.35,10.09,23.01,16.95,47.42,26.45,70.72,17.26,42.3,35.17,84.35,53.3,126.3,8.1,18.73,16.84,37.24,26.26,55.34,15.45,29.67,31.53,59.01,47.65,88.32,13.82,25.12,27.23,50.51,42.33,74.84,18.62,30,38.63,59.14,58.4,88.41,6.13,9.07,9.93,20.2,20.69,25.59q2.17,9.26,11.16,6.6c-.43,3.64-2.55,8.48-.97,10.71,5.48,7.78,8.56,18,19.23,21.38-3.33-6.99-7.92-13.03-12-19.4-2.51-3.92-4.24-8.35-6.39-12.48-3.85-2.11-7.62-4.28-11.39-6.45-1.94-5.77-3.89-11.53-5.83-17.3l-.32.35Z"/>
        <path class="cls-2" d="M1651.58-113.31c4.33,0,8.67,0,13,0,62.35,0,124.71.33,187.06-.26,13.29-.12,21.2,4.97,28.82,15.37,14.06,19.19,29.78,37.15,44.8,55.63,7.92,9.74,15.87,19.44,23.74,29.22,14.25,17.7,27.65,36.17,42.9,52.97,14.27,15.71,25.99,33.19,38.81,49.9,19.21,25.03,38.55,49.96,57.81,74.95,13.03,16.92,25.92,33.95,39.1,50.75,5.07,6.46,11.05,12.2,16.12,18.67,5.43,6.93,10.46,14.19,15.3,21.55,3.06,4.64,6.45,7.72,14.33,3.77-4.81,14.27,4.52,21.16,10,29.01,18.88,27.04,38.56,53.54,58.34,79.93,4.06,5.42,6.15,10.83,6.07,17.39-.07,4.87.04,9.74.04,14.61,0,482.75-.04,965.49.22,1448.24,0,13.86-3.48,24.92-11.89,36.08-78.85,104.67-179.57,179.55-301.55,227.47-100.93,39.65-205.4,63.92-312.55,77-64.5,7.88-129.4,5.16-193.98-1.33-45.02-4.52-90.06-9.41-134.81-16.03-88.22-13.05-174.87-33.15-260.08-59.78-72.56-22.68-143.53-49.24-212.71-80.71-7.05-3.21-14.47-5.71-21.86-8.06-7.86-2.49-11.12-7.4-12.83-15.63-11.12-53.34-22.84-106.55-34.53-159.77-7.2-32.78-14.69-65.49-22.02-98.23-.41-1.83-.49-3.73-1.05-8.25,9.73,5.75,17.82,10.41,25.8,15.25,42.01,25.52,83.33,52.26,126.18,76.28,35.61,19.97,72.67,37.49,109.71,54.76,34.38,16.03,69,31.89,104.53,45.07,127.65,47.33,259.23,64.83,394.85,48.56,53.21-6.38,106.34-13.56,158.05-27.93,110.12-30.6,209.21-81.36,291.54-162.16,30.98-30.4,58.41-63.66,84.23-98.56,26.13-35.32,48.71-72.66,69.81-111.02,50.24-91.31,89.31-186.83,111.69-289.05,12.52-57.19,22.53-114.66,27.33-172.95,4.12-50.07,3.72-100.21-.31-150.33-5.57-69.44-15.01-138.35-27.66-206.82-17.13-92.7-43.67-182.68-81.74-268.93-23.17-52.5-47.24-104.71-73.6-155.66-25.66-49.6-53.46-98.23-87.86-142.62-21.16-27.31-40.95-55.8-63.63-81.78-36.16-41.4-73.39-81.94-115.61-117.5-25.65-21.6-50.5-44.16-76.37-65.49-14.62-12.05-30.6-22.45-45.93-33.64-2.98-2.17-5.82-4.53-8.72-6.8.38-1.05.75-2.1,1.13-3.16Z"/>
        <path class="cls-2" d="M64.1-98.07c32.8-9.93,65.17-16.48,100.09-14.53,3.5,16.21,6.7,31.35,10.04,46.47,22.26,100.76,44.03,201.63,66.99,302.23,16.35,71.65,33.99,143.02,51.68,214.36,9.12,36.79,19.73,73.21,29.45,109.86,10.59,39.94,20.4,80.09,31.47,119.9,37.39,134.48,75.1,268.88,112.87,403.26,19.62,69.82,39.21,139.66,59.56,209.27,34.96,119.57,65.77,240.21,94.62,361.37,12.85,53.94,25.47,107.95,37.05,162.17,14.13,66.16,26.96,132.59,40.52,198.88,5.45,26.64,11.75,53.11,16.93,79.8,8.98,46.28,17.15,92.72,26.15,139,3.81,19.57,8.88,38.9,13.31,58.35,1.06,4.67,1.84,9.41,2.95,15.13-4.02.67-7.16,1.63-10.31,1.65-18.99.14-37.99.15-56.98.05-12.75-.07-12.86-.14-17.41-12.81-14.63-40.75-29.81-81.33-43.63-122.36-39.94-118.55-79.95-237.08-118.66-356.03-21.68-66.62-41.2-133.95-61-201.17-7.97-27.06-13.47-54.85-21.14-82.01-13.07-46.31-20.38-93.89-32.05-140.53-11.58-46.25-20.89-93.08-30.77-139.74-12.3-58.09-24.69-116.17-36.05-174.44-8.35-42.83-15.32-85.93-22.51-128.97-7.77-46.53-15.38-93.1-22.52-139.73-8.47-55.32-16.24-110.74-24.56-166.08-13.66-90.91-26.18-181.98-45.47-271.98-14.68-68.53-30.08-136.85-50.45-203.94-16.95-55.8-34.24-111.51-57.05-165.29-12.92-30.45-26.26-60.72-39.35-91.1-1.31-3.04-2.17-6.28-3.78-11.04Z"/>
        <path class="cls-2" d="M476.7,2269.87c-6.27-18.86-12.94-37.59-18.74-56.59-37.06-121.35-75.01-242.43-110.5-364.24-28.28-97.07-54.89-194.69-79.57-292.74-17.44-69.3-30.47-139.71-45.34-209.65-22.66-106.57-44.68-213.27-68.01-319.69-14.17-64.62-30.52-128.76-45.49-193.21C78.45,701.97,43.04,571.48,3.15,442.22c-26.11-84.59-54.32-168.51-86.26-251.1-14.91-38.55-31.08-76.62-46.86-114.84-2.49-6.03-4.34-11.2-.49-17.76C-106.26,17.22-75.43-18.1-36.85-46.55c2.68-1.98,5.86-3.28,10.27-5.7,2.75,5.54,5.51,10.51,7.76,15.7C3.46,14.86,21.68,67.73,39.29,120.91c15.93,48.11,29.13,96.9,41.35,145.99,6.68,26.83,11.54,54.12,17.41,81.16,6.78,31.26,13.92,62.44,20.56,93.73,1.8,8.46,2.27,17.2,3.5,25.79,4.33,30.24,8.74,60.46,13.07,90.7.96,6.73,1.48,13.53,2.61,20.23,5.35,31.57,11.26,63.05,16.13,94.69,3.77,24.43,6.19,49.06,9.44,73.58,1.4,10.58,3.58,21.06,5.06,31.63,3.57,25.47,6,51.15,10.73,76.4,2.81,15.04,4.84,30.23,9.86,45.14,5.14,15.23,3.74,32.53,7.11,48.52,5.34,25.28,4.82,50.95,7.49,76.38,2.12,20.21,5.97,40.25,9.08,60.36,1.85,11.98,3.55,23.98,5.66,35.91,5.25,29.6,10.88,59.13,15.97,88.76,2.21,12.85,2.98,25.95,5.25,38.79,2.61,14.7,6.54,29.17,9.17,43.87,1.96,10.92,2.81,22.04,4.03,33.09.27,2.4-.4,4.94.07,7.27,5.01,24.71,10.19,49.39,15.26,74.09,4.56,22.23,8.7,44.56,13.66,66.7,3.38,15.09,8.1,29.87,11.77,44.9,7.07,28.96,13.81,57.99,20.7,86.99,2.12,8.91,3.33,18.17,6.6,26.64,7.35,19.09,11.21,38.65,14.16,58.92,3.89,26.79,11.31,53.08,17.59,79.5,4.37,18.42,9.24,36.73,14.12,55.03,5.49,20.6,11.56,41.04,16.75,61.71,3.78,15.04,6.17,30.42,9.81,45.5,10.81,44.76,21.78,89.48,33,134.14,9.95,39.61,20.22,79.13,30.5,118.65,7.2,27.7,14.65,55.33,21.99,82.99-.68.41-1.37.81-2.05,1.22Z"/>
        <path class="cls-2" d="M421.01,2307.13c-15.04,2.6-15.58,2.85-20.78-8.55-20.4-44.71-40.52-89.55-60.57-134.41-44.23-98.94-74.38-202.72-105.08-306.32-31.81-107.35-57.33-216.3-82.23-325.39-14.4-63.07-28.27-126.29-41.04-189.71-14.3-71.06-25.93-142.68-40.85-213.6-14.92-70.89-31.64-141.44-49.1-211.76-17.69-71.24-36.35-142.27-56.2-212.94-38.72-137.79-83.43-273.65-134.43-407.42-3.38-8.87-5.24-18.85-5.35-28.34-.4-35.01-2.27-70.19,5.48-104.78,3.28-14.62,7.14-29.12,10.74-43.67,1.09-.18,2.18-.36,3.28-.53,2.47,4.88,5.34,9.61,7.35,14.67,15.6,39.29,31.49,78.47,46.35,118.03,9.1,24.21,17.26,48.78,25.04,73.48,13.43,42.64,29.18,84.57,41.77,127.44,25.25,85.94,49.84,172.09,73.16,258.57,21.27,78.92,41.27,158.21,60.36,237.68,13.98,58.17,25.55,116.92,38.27,175.39,7.65,35.17,15.89,70.22,23.08,105.48,10.02,49.08,18.99,98.38,28.99,147.47,11.95,58.64,24.38,117.17,36.86,175.7,5.36,25.14,11.77,50.05,17.01,75.21,8.39,40.28,15.33,80.88,24.45,120.99,15.75,69.23,32.4,138.26,49.27,207.23,8.91,36.39,18.14,72.76,28.92,108.64,19.58,65.19,39.84,130.19,61.16,194.83,5.12,15.52,8.27,31.27,14.08,46.61Z"/>
        <path class="cls-2" d="M-171.75,834.86C-73.68,1321.91,15.8,1810.56,100.87,2301.24c-15.47.38-28.58-4.77-41.53-9.56-3.01-1.11-5.25-6.56-6.29-10.44-11.7-43.72-22.79-87.6-34.64-131.28-33.55-123.65-72.67-245.46-121.95-363.83-21.33-51.23-43.33-102.18-65.34-153.12-4.15-9.61-6.14-19.16-6.14-29.64.15-236.74.12-473.47.13-710.21,0-19.31,0-38.61,0-57.92,1.04-.13,2.08-.25,3.13-.38Z"/>
        <path class="cls-2" d="M-172.08,459.68c4.08,10.88,8.25,21.73,12.23,32.65,43.73,119.92,80.98,241.87,115.31,364.78,33.54,120.08,61.81,241.39,86.04,363.66,14.38,72.59,27.29,145.49,42.75,217.84,23.09,108.04,46.61,216.01,72.33,323.45,16.74,69.95,37.07,139.07,57.01,208.22,14.15,49.07,28.37,98.28,46.09,146.12,22.47,60.66,48.54,119.98,73.03,179.9,1.41,3.46,2.58,7.02,4.35,11.87h-163.63c-3.1-18.58-6.16-36.71-9.16-54.85-15.44-93.14-30.86-186.27-46.29-279.41-16.77-101.25-33.27-202.54-50.37-303.73-16.05-94.97-32.08-189.96-49.3-284.73-17.92-98.61-36.59-197.1-56.09-295.42-40.04-201.89-85.73-402.55-133.08-602.83-2.1-8.89-3.17-18.03-4.72-27.06,1.17-.15,2.34-.3,3.51-.45Z"/>
        <path class="cls-2" d="M657.91,108.04c-40.29-73.62-80.25-145.64-119.01-220.44h212.91c-16.74,36.55-33.94,72.1-49.41,108.39-15.48,36.34-29.24,73.42-44.49,112.05Z"/>
        <path class="cls-2" d="M785.19,975.28c4.52,4.1,9.85,7.59,13.43,12.39,43.34,57.97,90.75,112.42,140.37,165.27-7.1-6.54-14.31-12.96-21.27-19.64-48.84-46.9-92.12-98.49-130.29-154.4-.81-1.19-1.32-2.59-1.95-3.92.02-.02-.29.3-.29.3Z"/>
        <path class="cls-2" d="M1296.38,1620.66c69.17-5.85,136.14-12.89,201.29-31.38-64.58,19.94-129.65,36.86-198.17,32.89-.43-.03-.84-.39-3.12-1.51Z"/>
        <path class="cls-2" d="M1618.52,1882.95c-4.69,2.11-9.19,4.94-14.1,6.24-52.26,13.85-105.45,22.6-159.18,28.06-8.64.88-17.45.12-28.24.12,26.01-3.6,50.1-6.47,74.02-10.36,30.17-4.92,60.31-10.19,90.26-16.3,12.52-2.55,24.7-6.7,37.6-7.38l-.36-.37Z"/>
        <path class="cls-2" d="M1512.61,1654.18c-3.47,2.24-6.66,5.48-10.46,6.55-46.79,13.17-94.14,23.5-142.75,27.14-10.58.79-21.14,1.77-31.86,1.53,62.91-5.83,124.69-17.23,185.31-35,.04.04-.24-.22-.24-.22Z"/>
        <path class="cls-2" d="M1642.87,701.02c-9.11-21.44-17.78-43.08-27.47-64.25-9.64-21.04-20.31-41.61-29.6-62.81,25.71,39.27,45.01,81.52,57.07,127.06Z"/>
        <path class="cls-2" d="M797.69,1108.71c7.19,7.71,14.4,15.41,21.57,23.13,24.39,26.26,48.77,52.53,73.13,78.81.97,1.04,1.74,2.27,1.08,5.05-8.1-7.3-16.77-14.07-24.19-22.01-17.86-19.09-35.44-38.47-52.49-58.28-7.11-8.27-12.58-17.95-18.8-26.99,0,0-.3.29-.3.29Z"/>
        <path class="cls-2" d="M1138.41,751.53c-18.49-13.93-31.92-32.08-42.59-52.52,14.2,17.51,28.4,35.02,42.59,52.52Z"/>
        <path class="cls-2" d="M1422.98,693.12c-6.6-12.14-13.2-24.29-20.88-38.42,11.04,8.41,15,15.15,20.88,38.42Z"/>
        <path class="cls-2" d="M1548,1966.72c2.74-1.51,5.31-3.77,8.24-4.4,16.56-3.57,33.19-6.76,49.81-10.08l-.25-.19c-2.48,6.51-8.86,5.14-13.63,6.18-14.7,3.19-29.57,5.65-44.37,8.39,0,0,.21.09.21.09Z"/>
        <path class="cls-2" d="M1700.08,1930.78c-9.77,2.77-19.54,5.54-29.31,8.31,8.92-5.77,18.2-10.22,29.31-8.31Z"/>
        <path class="cls-2" d="M1606.05,1952.24c14.36-3.17,28.71-6.35,43.07-9.52-14.03,4.98-27.51,12.69-43.27,9.37-.05-.04.2.15.2.15Z"/>
        <path class="cls-2" d="M1618.88,1883.32c3.74-4.26,7.07-8.67,14.17-6.92,3.1.76,6.8-.89,10.44-.6-7.35,5.67-15.94,7.12-24.96,7.15,0,0,.35.36.35.36Z"/>
        <path class="cls-2" d="M887.62,1191.32c-6.06-6.54-12.12-13.07-18.18-19.61.23-.22.45-.44.68-.66,6.02,6.56,12.04,13.12,18.07,19.68-.19.2-.38.4-.57.59Z"/>
        <path class="cls-2" d="M1090.84,22.2c8.15-8.86,19.47-10.8,29.84-14.82.39.91.78,1.81,1.17,2.72-10.43,3.94-20.86,7.88-31.31,11.8-.02-.02.31.3.31.3Z"/>
        <path class="cls-2" d="M1547.8,1966.63c-11.37,1.37-22.74,2.74-34.1,4.1-.07-.87-.13-1.75-.2-2.62,11.46-.48,22.93-.97,34.45-1.42.06.03-.15-.06-.15-.06Z"/>
        <path class="cls-2" d="M912.35,1173.87c-4.23-4.56-8.45-9.12-12.68-13.68.34-.37.67-.74,1.01-1.1,3.49,5.07,6.97,10.14,10.46,15.21.4-.14.81-.28,1.21-.42Z"/>
        <path class="cls-2" d="M1566.96,672.29c-2.92-5.89-5.84-11.78-8.76-17.67.71-.34,1.42-.68,2.13-1.01,2.75,5.97,5.5,11.94,8.25,17.91-.54.26-1.08.52-1.62.77Z"/>
        <path class="cls-2" d="M1532.24,1650.05c7.86-3.51,15.71-7.02,23.57-10.52h-.2c-2.77,2.19-5.25,5.15-8.39,6.38-4.87,1.9-10.2,2.61-15.33,3.83l.35.32Z"/>
        <path class="cls-2" d="M1090.87,787.66c2.87,3.13,5.74,6.26,8.61,9.39-.63.56-1.25,1.12-1.88,1.68-2.93-3.29-5.85-6.57-8.78-9.86.68-.4,1.37-.81,2.05-1.21Z"/>
        <path class="cls-2" d="M913.21,1213.22c3.07,2.85,6.14,5.7,9.2,8.55-.39.42-.77.85-1.16,1.27-3.1-2.81-6.2-5.62-9.31-8.44.42-.46.84-.92,1.26-1.39Z"/>
        <path class="cls-2" d="M1543.43,620.98c2.36,4.41,4.72,8.82,7.08,13.23-.62.33-1.24.66-1.85.99-2.34-4.42-4.67-8.85-7.01-13.27.6-.32,1.19-.64,1.79-.95Z"/>
        <path class="cls-2" d="M1071.85,29.69c6.32-2.51,12.64-5.01,18.97-7.51.02.02-.31-.3-.29-.28-5.71,4.02-10.55,10.27-18.97,7.5-.02-.02.29.29.29.29Z"/>
        <path class="cls-2" d="M775.25,964.06c-1.73-3.61-3.46-7.21-5.68-11.84,7.71,2.29,5.7,7.51,5.45,11.97l.23-.13Z"/>
        <path class="cls-2" d="M1037.07,38.99c2.61-1.67,5.23-3.33,7.84-5,.37.44.74.89,1.11,1.33-2.28,2.03-4.56,4.06-6.84,6.09-.71-.81-1.41-1.61-2.12-2.42Z"/>
        <path class="cls-2" d="M1482.64,1650.61c3.99-1.2,7.98-2.39,11.97-3.59.14.51.29,1.02.43,1.53-4,1.17-7.99,2.33-11.99,3.5-.14-.48-.28-.96-.41-1.44Z"/>
        <path class="cls-2" d="M1531.89,1649.73c-5.65,4.73-12,6.48-19.25,4.48-.03-.03.25.23.21.19,6.43-1.49,12.89-2.93,19.38-4.37.02.01-.33-.3-.33-.3Z"/>
        <path class="cls-2" d="M1149.82.6c-3.43,1.1-6.86,2.2-10.29,3.3-.21-.56-.41-1.12-.62-1.68,3.19-1.2,6.37-2.41,9.56-3.61.45.66.9,1.32,1.35,1.99Z"/>
        <path class="cls-2" d="M917.7,1235.6c1.57,1.45,3.13,2.9,4.7,4.35-.32.44-.63.88-.95,1.33-1.81-1.02-3.62-2.04-5.44-3.07.56-.87,1.13-1.74,1.69-2.61Z"/>
        <path class="cls-2" d="M994.58,86.45c2.11-1.47,4.21-2.95,6.32-4.42.39.38.77.76,1.16,1.14-1.78,1.8-3.56,3.6-5.33,5.4-.71-.71-1.43-1.41-2.14-2.12Z"/>
        <path class="cls-2" d="M775.01,964.19c9.25.69,9.97,1.47,10.2,11.07-.02.02.29-.3.27-.28-3.37-3.66-6.71-7.34-10.14-10.97-.1.05-.33.18-.33.18Z"/>
        <path class="cls-2" d="M1475.31,1975.76h-8.15c-.03-.22-.06-.43-.09-.65,2.72-.23,5.44-.45,8.16-.68.03.44.05.88.08,1.32Z"/>
        <path class="cls-2" d="M1499.19,1973.02h-8.58c-.01-.32-.02-.65-.04-.97,3.02-.14,6.04-.28,9.06-.42-.15.46-.3.93-.44,1.39Z"/>
        <path class="cls-2" d="M1532.98,1637.29c-2.63,1.02-5.27,2.03-7.9,3.05-.18-.49-.37-.99-.55-1.48,2.66-.94,5.33-1.88,7.99-2.83.15.42.31.84.46,1.25Z"/>
        <path class="cls-2" d="M1555.81,1639.53c3.96-1.17,7.91-2.34,13.07-3.86-3.99,5.84-8.85,3.86-13.21,3.88-.05-.01.14-.02.14-.02Z"/>
        <path class="cls-2" d="M850.35,1149.49c-1.18-1.3-2.35-2.6-3.53-3.9.31-.29.63-.58.94-.87,1.2,1.29,2.39,2.57,3.59,3.86-.33.31-.67.61-1,.92Z"/>
        <path class="cls-2" d="M1416.46,1665.76c-1.7-.11-3.41-.22-5.77-.37h6.03c-.09.12-.17.24-.26.37Z"/>
        <path class="cls-2" d="M747.82,1042.05c-3.09-2.08-6.18-4.17-9.27-6.25,1.3-1.1,2.6-2.21,3.9-3.31,1.69,3.29,3.38,6.59,5.06,9.9-.01.02.3-.34.3-.34Z"/>
      </g>
    </g>
  </g>
</svg>