<?xml version="1.0" encoding="UTF-8"?>
<svg id="Capa_2" xmlns="http://www.w3.org/2000/svg" xmlns:xlink="http://www.w3.org/1999/xlink" viewBox="0 0 1920 2047.53">
  <defs>
    <style>
      .cls-1 {
        fill: none;
      }

      .cls-2 {
        fill: #fff;
      }

      .cls-3 {
        clip-path: url(#clippath);
      }
    </style>
    <clipPath id="clippath">
      <rect class="cls-1" y="0" width="1920" height="2047.53"/>
    </clipPath>
  </defs>
  <g id="Capa_2-2" data-name="Capa_2">
    <g class="cls-3">
      <g>
        <path class="cls-2" d="M369.26,2390.9c3.75-5.56,6.06-9.39,8.77-12.92,45.47-59.48,91.17-118.8,136.44-178.43,33.97-44.75,70.54-87.33,107.67-129.4,24.85-28.16,49.78-56.52,77.14-82.15,35.71-33.44,72.23-66.25,113.94-92.53,12.63-7.96,24.49-17.15,36.64-25.73v-12.3c2.11-.71,4.07-2.04,4.88-1.53,7.48,4.71,14.12,3.26,21.47-.95,54.21-31.07,110.36-58.32,166.62-85.43,48.78-23.51,97.38-47.55,144.82-73.63,107.71-59.2,190.47-143.67,251.16-250.61,49.03-86.4,91.3-176.04,131.93-266.52,27.71-61.71,54.12-124.01,81.92-185.67,39.56-87.74,84.74-172.4,143.17-249.29,40.35-53.1,85.23-102.36,130.31-151.42,65.36-71.14,129.27-143.53,190.22-218.53,41.43-50.98,80.71-103.42,113.64-160.36,43.92-75.93,71.53-157.85,87.55-243.76,6.8-36.48,11.87-73.28,17.91-111.06,3.21,1.19,7.28,1.92,10.45,4.01,22.79,15.06,45.39,30.4,68.06,45.64,6.51,4.37,8.98,10.31,9.4,18.27,3.16,59.93,3.25,119.85-3.39,179.51-4.96,44.58-14.02,88.79-17.36,133.45-2.05,27.39-12.56,51.53-19.25,77.14-14.13,54.07-33.7,106.18-57.1,156.86-18.65,40.38-41.08,78.6-65.57,115.72-30.39,46.07-65.29,88.76-98.23,132.92-16.32,21.88-32.59,43.8-48.85,65.72-23.96,32.3-49.44,63.6-71.42,97.2-25.68,39.24-48.3,80.47-72.22,120.85-26.09,44.05-48.36,90.12-67.02,137.64-30.36,77.31-59.09,155.28-87.78,233.24-32.79,89.08-63.53,178.93-101.63,265.97-34.68,79.21-75.02,155.16-129.7,222.71-60.21,74.38-133.58,133.21-215.47,181.97-56.93,33.9-117.32,60.6-177.99,86.89-77.21,33.46-154.49,66.87-230.77,102.38-87.72,40.83-170.32,90.98-250.62,144.83-10.31,6.91-20.46,10.43-33.03,10.38-96.6-.39-193.21-.2-289.81-.25-4.94,0-9.89-.46-16.9-.82Z"/>
        <path class="cls-2" d="M2279.07-163c-3.21,21.86-5.72,43.33-9.61,64.55-11.04,60.13-27.53,118.58-54.77,173.69-23.97,48.5-53.99,93.19-89.97,133.15-72.91,80.97-147.68,160.26-221.67,240.27-56.82,61.44-112.92,123.47-163.21,190.51-72.1,96.11-125.56,202.47-172.86,312.3-42.05,97.65-83.72,195.48-126.8,292.69-24.49,55.25-52.75,108.73-86.56,159-39.16,58.24-88.8,105.85-147.6,144.04-49.56,32.19-102.84,57.15-156.7,81.05-53.26,23.63-107.06,46.17-159.55,71.42-60.55,29.13-118.25,63.42-171.67,104.55-51.75,39.85-99.12,84.52-141.85,133.7-46.38,53.39-91.36,108.05-135.72,163.15-69.06,85.75-133.01,175.27-193.1,267.54-2.22,3.41-4.85,6.56-8.41,11.34-89.6-25.4-159.35-76.92-211.39-155.39,9.21-9.5,16.91-18.48,25.67-26.28,37.74-33.63,75.46-67.32,113.83-100.23,42.32-36.29,85.33-71.78,128.09-107.56,27.31-22.85,55.4-44.83,81.9-68.57,64.21-57.54,128.12-115.41,191.29-174.07,37.43-34.75,74.03-70.48,109.49-107.23,25.42-26.34,49.11-54.47,72.08-83,16.44-20.41,30.39-42.82,45.48-64.31,4.74-6.75,10.48-12.97,14.08-20.27,3.14-6.36,12.74-10.39,8.22-19.91,7.48-3.84,9.71-11.79,14.35-17.88,9.73-12.74,23.32-23.04,22.93-36.72,10.12-13.04,18.27-22.69,25.46-33.02,8.8-12.64,16.49-26.05,25.18-38.77,29.09-42.6,58.01-85.32,87.83-127.41,13.99-19.74,29.76-38.23,44.98-57.08,8.37-10.37,17.23-20.35,25.94-30.43,3.76-4.35,7.18-8.48,5.94-15.07-.48-2.53,1.61-5.54,3.08-10.03,2.15,4.1,3.4,6.46,4.8,9.14,6.83-7.41,13.19-14.32,19.63-21.31-1.2-1.5-4.37-4.32-3.93-5.08,2.22-3.88,4.92-9.73,8.28-10.35,15.74-2.87,19.33-16.31,25.49-27.17q24.68-3.93,27.22-10.63c9.24-4.51,17.73-7.23,24.57-12.22,43.82-32.04,90.02-60.35,135.98-89.15,50.32-31.54,100.18-63.91,149-97.72,90.95-63,165.67-142.86,231.46-231.07,72.95-97.8,140.35-199.39,198.77-306.62,19.47-35.73,36.61-72.76,54.21-109.49,15.38-32.11,30.67-64.3,44.67-97.03,33.73-78.87,62.76-159.47,86.91-241.81,4.01-13.66,3.95-14.08,17.75-13.85,42.84.72,85.71,1.16,128.51,2.98,17.35.74,34.58,4.67,52.3,11.69Z"/>
        <path class="cls-2" d="M1063.7,2387.81c18.52-9.05,37.08-18.03,55.55-27.18,80.51-39.89,161.73-78.45,241.32-120.1,97.73-51.15,185.28-116.49,259.62-198.53,33.38-36.83,61.93-77.21,87.59-119.87,31.23-51.92,57.87-105.99,80.77-161.98,8.56-20.93,16.48-42.13,24.85-63.15,10.24-25.7,20.83-51.27,30.9-77.04,5.21-13.32,9.59-26.96,14.39-40.45,9.48-26.62,19.09-53.19,28.46-79.85,14.39-40.91,28.31-81.99,42.99-122.79,18.68-51.93,36.81-104.1,57.35-155.3,12.06-30.06,28.29-58.44,42.73-87.53,33.57-67.65,74.53-130.86,116.54-193.43,12.63-18.81,25.69-37.4,29.3-60.38,16.3-7.5,25.22-22.54,35.63-35.27,38.3-46.85,70.15-98.17,100.32-150.54,27.85-48.35,52.31-98.34,72.34-150.43,29.92-77.84,50.73-158.18,66.45-240,15.24-79.27,25.52-159.01,26.37-239.82.29-27.35.05-54.71.05-83.41,2.45,2.69,4.94,4.76,6.6,7.36,36.07,56.61,56.6,118.26,57.1,185.58.71,96.09.1,192.19.3,288.28.02,10.64-2.41,20.14-6.98,29.71-25.83,54.02-52.55,107.66-76.55,162.49-36.97,84.45-60.34,173.31-81.55,262.81-22.24,93.87-44.46,187.78-68.59,281.18-21.57,83.5-51.07,164.61-80.85,245.46-56.89,154.45-114.78,308.54-173.1,462.46-19.96,52.68-45.18,103.11-74.16,151.45-27.37,45.67-58.19,89.05-92.23,130.03-30.33,36.52-61.46,72.38-91.92,108.8-26.82,32.07-58.45,59.4-87.46,89.3-3.19,3.29-8.78,4.79-13.54,5.83-4.44.98-9.25.26-13.9.26-199.42,0-398.84,0-598.26,0h-18.05c-.13-1.31-.26-2.63-.38-3.94Z"/>
        <path class="cls-2" d="M1126.51,774.66c2.57-.15,5.68-1.31,7.61-.27,12.04,6.49,23.06,1.41,34.02-2.66,11.1-4.11,21.96-8.88,32.79-13.68,4.08-1.81,11.43-.86,9.29-9.2-.09-.36.41-1.25.72-1.29,18.56-2.56,29.49-19.18,46.22-25.09,20.11,5.91,17.44-11.54,21.93-22.7,4.6,1.78,8.7,3.36,12.6,4.87,1.22-.57,2.44-.77,3.03-1.48,10.25-12.32,23.68-20.98,35.65-31.31,35.29-30.45,68.39-62.89,97.99-99.29,39-47.98,77.1-96.57,112.05-147.51,53.55-78.05,100.09-160.3,143.76-244.22,48.62-93.43,97.74-186.6,146.3-280.07,11.65-22.43,22.13-45.48,32.78-68.41,2.84-6.11,5.62-10.26,13.43-10.2,41.33.35,82.66.22,124,.34,1.44,0,2.88.79,5.47,1.54-1.33,4.45-2.36,8.77-3.89,12.92-33.06,89.75-72.81,176.53-116.32,261.62-76.69,149.98-170.38,289.03-273.18,422.09-53.65,69.44-115.29,131.41-186.52,182.63-46.87,33.7-96.62,63.45-145.74,93.92-39.89,24.74-81.28,47.07-121.03,72.03-44.99,28.26-89,58.22-127.36,95.35-15.76,15.25-28.68,33.53-44.99,48.07-17.5,15.6-31.16,34.16-46.29,51.62-30.16,34.81-55.54,73.12-80.66,111.55-33.89,51.85-66.94,104.26-100.41,156.38-65.33,101.72-147,188.74-239.73,265.73-115.24,95.68-230.63,191.19-345.94,286.78-66.12,54.82-128.37,113.69-185.85,177.56-3.66,4.07-7.76,7.75-14.1,14.02-1.08-10.86-2.43-18.33-2.46-25.81-.24-54.77-.23-109.53-.27-164.3-.02-28.42.46-56.85-.23-85.25-.27-11.08,3.5-18.08,12.52-24.33,46.71-32.35,93.02-65.26,139.53-97.9,69.79-48.97,137.81-100.29,203.29-154.89,52.74-43.97,105.03-88.49,156.85-133.54,33.11-28.79,64.82-59.18,92.58-93.37,37.49-46.18,63.35-97.85,72.62-157.01,6.06-38.65,3.84-77.28-2.98-115.65-18.59-104.57-68.63-192.44-141.61-268.52-69.22-72.18-143.91-137.98-225.18-196.2-57.17-40.96-116.87-77.95-179.52-110.02-39.06-19.99-78.39-39.47-117.69-59-5.85-2.91-10.37-5.49-10.3-13.43.4-44.95.3-89.9.43-134.84,0-.94.67-1.88,1.84-4.98,4.81,2.89,9.54,5.35,13.87,8.38,44.88,31.33,89.33,63.31,134.61,94.05,100.43,68.18,200.93,136.26,302.05,203.4,68.85,45.71,139.71,88.23,213.18,126.25,47.22,24.44,94.4,49.07,144.15,68.04,65.68,25.04,132.3,46.87,202.87,53.6,6.08.58,11.81,2.05,17.01-3.87,1.96-2.23,7.72-1.54,11.73-1.46,38.35.69,76.21-3.56,113.69-11-6.23,4.95-13.01,7.46-21.13,7.61-6.34.12-13.21.62-17.92,6.41,15.79-.63,31.38-1.73,45.47-8.98-2.77-2.11-4.7-3.57-6.62-5.03ZM1011.55,787.94c16.15,7.61,55.61,6.41,65.45,0-15.56,0-30.66,0-45.75,0-6.56,0-13.13,0-19.69,0Z"/>
        <path class="cls-2" d="M-28.61,1631.15c0-4.52,0-9.04,0-13.57,0-69.74.23-139.48-.22-209.21-.08-11.77,3.63-20.15,11.62-28.76,36.81-39.71,74.54-78.76,108.75-120.64,40.63-49.74,70.52-106.17,86.45-168.78,11.33-44.52,11.46-89.96,3.77-135.3-10.78-63.53-35.48-120.67-79.26-168.57-32.76-35.84-71.56-64.01-115.25-84.97-11.91-5.71-16.34-12.22-16.19-25.63.73-67.66.34-135.34.34-203.01v-18.6c5.29,2.14,8.61,3.05,11.5,4.72,44.67,25.79,89.94,50.63,133.79,77.76,84.89,52.54,164.1,112.87,238.94,178.95,41.83,36.94,83.25,74.32,119.64,116.77,28.24,32.94,56.01,66.31,77.12,104.56,18.54,33.58,29.25,69.66,30.37,107.82.95,32.46-11.42,61.54-29.16,88.36-18.94,28.64-41.48,54.39-67.68,76.27-41.59,34.73-84.32,68.11-126.97,101.56-69.47,54.47-139.33,108.45-208.91,162.79-57.91,45.23-110.16,96.73-162.85,147.74-4.02,3.89-8.25,7.56-12.38,11.33-1.14-.52-2.27-1.05-3.41-1.57Z"/>
        <path class="cls-2" d="M1204.79,481.53c16.09-8,31.12-17.79,48.93-22.74,12.19-3.39,23.22-10.23,36.69-10.2,4.53,0,9.24-4.24,13.59-6.99,39.13-24.77,72.91-55.83,103.21-90.51,63-72.13,116.59-151.23,168.77-231.31,47.95-73.6,93.93-148.4,134.38-226.44,9.97-19.23,19.18-38.93,27.43-58.95,3.79-9.21,8.66-12.62,18.36-12.3,17.91.6,35.85.17,56.71.17-6.81,12.79-12.07,23.14-17.76,33.25-25.28,45-51.08,89.72-75.92,134.97-19.85,36.16-38.13,73.18-57.93,109.38-56.28,102.89-115.26,204.13-184.67,298.94-20.28,27.7-37.61,57.88-60.29,83.36-14.42,16.2-29.99,31.97-44.92,47.97-32.13,34.44-66.48,66.16-104.04,94.57-77.23,58.41-163.77,85.82-260.7,79.9-57.16-3.49-112.3-16.55-166.13-35.24-92.59-32.16-179.33-76.81-263.77-126.07-112.92-65.88-222.72-136.72-331.29-209.47C158.78,275.75,72.66,216.9-14.05,158.91c-10.05-6.72-13.52-13.4-11.61-25.35C-18.27,87.13-3.67,43.36,19.99,2.68c1.52-2.62,3.56-4.94,6.25-8.61C36.44.62,46.44,6.71,56.12,13.29c100.36,68.22,199.97,137.57,301.22,204.45,75.35,49.77,152.17,97.4,229.53,144,48.58,29.26,99.17,55.04,151.45,77.64,47.49,20.53,95.47,39.13,145.5,52.15,66.43,17.29,134.06,24.22,202.62,20.94,34.65-1.66,68.47-8.85,101.85-18.09,1.96-.54,3.89-1.33,5.66-2.31.75-.42,1.06-1.65,2.41-3.94-6.84.74-12.74,1.39-18.64,2.03-.19-.62-.38-1.23-.58-1.85,9.35-2.4,18.71-4.8,28.05-7.19q.85,5.99,7.33,2.1c-3.25-.71-5.5-1.2-7.75-1.69Z"/>
        <path class="cls-2" d="M287.57-174.93c11.75-1.13,20.18-2.41,28.63-2.66,13.94-.41,27.9-.17,41.85-.17,397.32,0,794.63,0,1191.95,0h21.6c-2.31,5.82-3.37,9.68-5.26,13.08-29.56,53.37-61.18,105.27-102.55,150.71-58.57,64.32-128.49,111.19-210.55,140.02-58.55,20.57-118.96,30.65-180.87,30.47-40.3-.12-80.35-4.52-120.08-11.65-95.88-17.21-185.41-52.73-272.78-94.46-76.96-36.76-151.59-77.91-224.79-121.59-51.88-30.96-103.12-63-154.61-94.62-3.36-2.07-6.41-4.64-12.55-9.13Z"/>
        <path class="cls-2" d="M1116.9,266.47c-5.84-.34-9.88-.57-13.94-.81.24-.86.42-2.4.7-2.41,12.67-.75,25.35-1.38,38.03-1.99,1.95-.09,4.53.78,5.75-.17,8.95-6.97,14.91-.95,20.81,4.87,8.98-13.91,23.6-17.69,31.33-7.37,4.11-2.93,13.93,1.92,11.45-11.03,3.04.46,6.48,0,8.48,1.47,6.56,4.84,11.02,3.62,14.5-3.42.63-1.28,1.89-3.49,2.46-3.37,8.47,1.82,16.12.99,22.34-5.74,13.28,2.57,22.9-5.79,33.6-11.09,5.34-2.64,12.22-3.35,16.27-7.18,9.32-8.84,21.7-11.17,32.16-17.39,59.54-35.45,110.21-81.22,153.92-134.55,24.18-29.5,46.51-60.53,64.33-94.57,21.24-40.58,43.26-80.74,64.73-121.2,4.79-9.02,8.73-18.49,12.82-27.22h45.14c-4.13,7.56-7.02,13.36-10.37,18.89-62.76,103.91-127.91,206.3-200.71,303.5-32.16,42.94-65.84,84.91-101.19,125.25-43.68,49.85-96.19,88.57-157.22,115.68-11.98,5.32-23.92,9.45-36.3,13.36-58.81,18.58-118.85,26.07-180.34,21.88-45.45-3.1-90.05-11.13-134.07-22.84-76.69-20.4-149.12-51.46-219.99-86.6-116.75-57.89-228.01-125.28-337.46-195.67C225.06,65.91,146.87,13.76,68.33-37.84c-3.85-2.53-7.39-5.53-11.87-8.92,1.97-3.2,3.37-6.43,5.59-8.93,25.96-29.16,55.84-53.51,89.39-73.52,8.5-5.07,15.01-5.74,23.86.16C240.13-85.8,305.03-42.64,370.52-.4c76.35,49.24,152.54,98.85,233,141.3,52.5,27.69,105.77,53.74,161.97,73.35,21.41,7.47,42.28,16.67,63.96,23.2,60.81,18.32,122.56,32.52,186.11,37.25,30.87,2.3,61.77,2.94,92.53-1.68,1.95-.29,3.84-1.35,5.61-2.33.81-.45,1.24-1.57,3.2-4.22Z"/>
        <path class="cls-2" d="M2541.11,628.79v14.97c0,224.2-.08,448.4.22,672.6.02,12.54-3.25,22.86-10.11,33.14-40.36,60.57-80.85,121.06-120.24,182.27-25.67,39.9-49.14,81.22-74.31,121.45-47.99,76.68-88.7,157.32-129.47,237.88-43.34,85.63-85.86,171.7-127.22,258.3-34.74,72.73-62.64,148.27-85.56,225.6-1.45,4.9-3.19,9.7-5.47,16.59-45.63.31-91.2.15-140.36.1,5.29-7.15,8.34-11.63,11.76-15.82,41.45-50.81,82.62-101.79,118.69-156.73,57.55-87.67,102.61-181.43,137.97-279.92,70.77-197.09,141.7-394.14,211.42-591.61,34.55-97.86,59.01-198.68,82.46-299.69,18.89-81.37,35.06-163.4,59.12-243.52,17.54-58.4,39.68-115.05,64.88-170.53.84-1.85,1.97-3.56,2.96-5.34,1.08.09,2.17.18,3.25.27Z"/>
        <path class="cls-2" d="M-27.67,1221.61v-449.05c3.4,1.32,6.36,1.86,8.61,3.43,43.12,29.93,82.23,64.03,111.54,108.2,21.17,31.89,25.85,67.03,18.83,103.8-6.77,35.45-22.06,67.76-42.04,97.47-28.76,42.79-58.77,84.73-88.34,126.98-1.91,2.73-4.58,4.92-8.61,9.17Z"/>
        <path class="cls-2" d="M1090.74,266.54c-77.24-.18-154.49-1.46-228.38-28.87,75.14,17.27,151.12,27.73,228.38,28.87Z"/>
        <path class="cls-2" d="M852.83,151.38c60.01,13.63,120.23,25.97,181.59,31.73-62.48.77-123.48-7.02-181.59-31.73Z"/>
        <path class="cls-2" d="M1053.76,250.9c-46.67,2.97-89.4-7.44-132.45-15.21,43.18,7.91,86.88,11.2,132.45,15.21Z"/>
        <path class="cls-2" d="M982.7,723.98h92.05c-19.48,7.55-64.41,7.8-92.05,0Z"/>
        <path class="cls-2" d="M1117.68,436.49c-35.41,11.49-71.42,12.35-106.62,9.99,34.85-3.27,70.74-6.63,106.62-9.99Z"/>
        <path class="cls-2" d="M1066.81,505.16c22.51-2.38,45.02-4.77,67.52-7.15.09.74.19,1.48.28,2.21-15.6,2.35-31.15,5.02-46.8,6.92-6.92.84-14.04.14-21.06.14.02-.71.04-1.41.06-2.12Z"/>
        <path class="cls-2" d="M1031.15,218.93c-8.47-.41-16.98-.52-25.41-1.32-8.52-.81-16.98-2.3-25.34-4.89,2.98,0,5.98-.25,8.93.04,14,1.42,27.98,2.98,41.97,4.49-.05.56-.1,1.12-.15,1.68Z"/>
        <path class="cls-2" d="M1200.51,438.63c4.53-.58,9.06-1.16,14.95-1.92q-6.86,6.55-14.59,5.03c-.12-1.04-.24-2.08-.36-3.11Z"/>
        <path class="cls-2" d="M1079.35,771.1c5.78-.58,11.57-1.17,17.35-1.75.1.8.2,1.6.3,2.4-5.68,1.08-11.36,2.16-17.04,3.24-.2-1.3-.41-2.59-.61-3.89Z"/>
        <path class="cls-2" d="M1103.56,489.56c-7.6,7.5-16.54,3.5-25.09,2.77,8.46-.87,16.91-1.74,25.37-2.62l-.27-.15Z"/>
        <path class="cls-2" d="M1113.12,464.67c6.22-1.56,11.55-2.9,17.61-4.42-6.33,5.41-6.32,5.52-17.61,4.42Z"/>
        <path class="cls-2" d="M1060.65,774.73h-12.27c0-.19,0-.38,0-.57,3.99-.18,7.99-.37,11.98-.55.09.37.19.75.28,1.12Z"/>
        <path class="cls-2" d="M1103.84,489.71c6.79-.69,13.59-1.39,20.38-2.08.03.67.06,1.34.09,2.01-6.88,0-13.76,0-20.69-.04-.06-.04.21.11.21.11Z"/>
        <path class="cls-2" d="M1073.37,185.56c1.54-2.37,3.09-4.75,4.63-7.12.95.65,1.9,1.3,2.85,1.95-1.75,2.22-3.5,4.45-5.25,6.67-.74-.5-1.48-1-2.22-1.5Z"/>
        <path class="cls-2" d="M1259.93,650.36c-2.26,1.44-4.52,2.87-6.77,4.31-.69-1.2-2.05-3.38-1.96-3.45,2.28-1.58,4.72-2.93,7.14-4.32.53,1.15,1.06,2.3,1.6,3.46Z"/>
        <path class="cls-2" d="M1153.05,496.49c-2.42.59-4.84,1.17-7.26,1.76-.16-.84-.33-1.68-.49-2.52,2.46-.37,4.92-.74,7.39-1.1.12.62.24,1.25.36,1.87Z"/>
        <path class="cls-2" d="M1230.8,456.05c-1.98,1.36-3.04,2.65-4.04,2.62-.95-.03-1.85-1.46-2.78-2.27.71-.51,1.42-1.42,2.15-1.44,1.18-.03,2.39.52,4.67,1.1Z"/>
        <path class="cls-2" d="M1170.87,453.35c-1.49,1.32-2.36,2.71-3.34,2.79-1.19.1-2.47-.89-3.71-1.41.78-1.03,1.41-2.71,2.37-2.93,1.12-.26,2.53.76,4.68,1.55Z"/>
        <path class="cls-2" d="M1093.67,467.27c2.27-.12,4.54-.23,6.82-.35,0,.3-.02.61-.03.91h-6.8c0-.19,0-.37.01-.56Z"/>
        <path class="cls-2" d="M1081.04,750.38h-5.76c-.07-.32-.13-.64-.2-.96,1.81-.39,3.62-.78,5.43-1.17.18.71.35,1.42.53,2.13Z"/>
      </g>
    </g>
  </g>
</svg>