<?xml version="1.0" encoding="UTF-8"?>
<svg id="Capa_2" xmlns="http://www.w3.org/2000/svg" xmlns:xlink="http://www.w3.org/1999/xlink" viewBox="0 0 1920 2097.55">
  <defs>
    <style>
      .cls-1 {
        fill: none;
      }

      .cls-2 {
        fill: #fff;
      }

      .cls-3 {
        clip-path: url(#clippath);
      }
    </style>
    <clipPath id="clippath">
      <rect class="cls-1" width="1920" height="2097.55"/>
    </clipPath>
  </defs>
  <g id="Capa_2-2" data-name="Capa_2">
    <g class="cls-3">
      <g>
        <path class="cls-2" d="M-100.09-54c1.33,2.96,2.63,5.37,3.53,7.93C-65.12,43.47-28.86,131.04,12.01,216.67c40.9,85.69,87.53,168.25,137.82,248.74,58.53,93.68,119.26,185.92,183.58,275.75,36.17,50.51,72.9,100.63,109.43,150.89,14.07,19.36,27.97,38.87,42.59,57.81,8.01,10.37,17.69,19.43,25.99,29.6,5.13,6.27,8.59,13.9,13.64,20.24,29.52,37.04,59.18,73.96,89.01,110.74,15.05,18.56,30.01,37.24,46.08,54.9,8.89,9.77,20.04,17.46,30.04,26.23,7.82,6.86,15.25,6.21,23.67.62,15.63-10.39,23.66-25.7,31.13-42.24,9.79-21.66,3.22-42.25-1.28-63.08-13.33-61.71-23.79-123.86-26.47-187-1.78-41.88-.22-83.65,8.18-125.07,8.73-43.07,32.33-73.42,72.63-90.73,14.97-6.43,30.09-12.54,45.25-18.52,1.86-.73,4.45.66,6.65.47,12.32-1.1,24.64-2.27,36.92-3.74,2.05-.25,4.41-1.66,5.77-3.26,4.92-5.82,8.96-5.66,14.95-.67,3.36,2.8,9.38,3.1,14.24,3.27,17.84.64,35.69.74,53.54,1.08,3.17.06,6.86-.68,9.42.65,10.19,5.31,18.32,3.37,24.79-6.53,3.42,1.75,8.32,2.82,8.63,4.66,1.76,10.56,10.51,10.85,17.55,11.81,25.23,3.46,48.82,12.66,72.85,20.14,53.73,16.73,105.07,39.54,155.51,64.28,148.8,72.99,288.13,161.62,423.44,256.88,96,67.58,190.98,136.53,283.92,208.28,16.37,12.64,32.37,25.78,49.05,38,7.16,5.24,9.5,11.19,9.46,19.8-.29,62.16-.15,124.32-.15,186.49,0,31.31,0,62.62,0,93.93,0,4.55,0,9.1,0,16.89-5.61-4.18-9.14-6.61-12.45-9.3-48.96-39.76-97.71-79.79-146.87-119.3-124.2-99.82-251.86-195.04-383.28-285.13-42.09-28.85-85.32-56.07-128.52-83.26-36.59-23.04-73.54-45.54-110.94-67.23-55.12-31.97-112.55-58.8-175.16-72.92-24.79-5.59-49.61-7.91-75.22-4.57-37.64,4.91-62.2,25.93-77.24,59.11-11.13,24.56-15.86,50.81-16.65,77.8-1.6,54.84,8.15,108.15,22.7,160.59,11.79,42.52,24.5,84.84,38.42,126.71,11.73,35.31,25.73,69.86,38.82,104.72,12.27,32.68,24.3,65.46,37.17,97.91,6.43,16.21,14.72,31.67,21.75,47.66,7.57,17.22,14.35,34.79,21.98,51.98,16.56,37.32,33.08,74.67,50.29,111.7,16.25,34.95,33.11,69.63,50.2,104.18,7.29,14.73,15.96,28.77,23.74,43.26,2.37,4.42,3.62,9.43,5.85,13.94,11.55,23.4,23.08,46.81,34.95,70.04,10.62,20.77,20.86,41.8,32.77,61.82,11.29,18.97,17.77,40.74,33.15,57.32.6.65,1.1,1.59,1.22,2.45,2.85,19.9,15.51,35.8,22.08,54.18.14.4.02.89.02,2.68-13.22,2.94-26.71.98-40.7,1.25-4.25-8.07-8.5-15.67-12.32-23.48-37.49-76.5-85.88-145.82-139.21-211.91-63.04-78.12-128.09-154.52-198.44-226.17-32.21-32.81-66.21-63.88-99.71-95.41-22.39-21.07-45.36-41.53-68-62.33-57.53-52.85-115.76-104.96-172.32-158.83-60.98-58.09-121.03-117.19-180.3-177.03-64.79-65.41-129.11-131.34-192.03-198.55-86.89-92.81-168.39-190.25-239.64-295.74-89.76-132.91-163.56-274.15-216.21-425.91-11.59-33.41-19.91-67.94-30.32-101.78-5.04-16.38-4.9-32.45-1.37-48.98C-232.95,70.52-186.1.53-110.22-49.83c1.91-1.27,3.91-2.44,5.95-3.49.75-.39,1.75-.31,4.17-.68Z"/>
        <path class="cls-2" d="M2028.73,1134.48c-4.83-3.59-8.5-6.07-11.91-8.87-146.55-120.6-298.38-234.22-453.2-343.91-77.87-55.17-158.4-105.94-243.29-149.68-58.67-30.23-119.14-56.03-183.09-72.87-38.67-10.18-78.04-15.93-118.13-17.85-19.8-.95-39.47-1.81-59.08.48-41.2,4.8-82.1,11.64-120.27,28.75-87.93,39.41-146.69,104.44-171.19,198.54-9.3,35.72-13.42,72.08-14.54,109.16-1.66,54.99.56,109.41,11.55,163.37.16.8-.32,1.73-.92,4.57-4.25-4.79-7.97-8.58-11.25-12.72-42.56-53.77-86.13-106.78-127.37-161.55-132.98-176.59-258.13-358.62-373.93-546.94-32.52-52.88-63.37-106.96-91.96-162.06C19.92,85.3-14.86,5.06-45.83-76.76c-.31-.83-.25-1.79-.51-3.84,2.79-1.37,5.79-3.29,9.06-4.36,33.49-10.95,67.71-17.22,103.12-16.45,7.65.16,12.73,2.55,17.22,8.92,19.84,28.13,40,56.04,60.33,83.82,18.41,25.16,37.38,49.91,55.71,75.12,11.32,15.58,21.76,31.79,32.85,47.54,17.92,25.47,35.85,50.93,54.19,76.1,7.48,10.27,16.14,19.68,24.06,29.65,6.42,8.08,13.77,15.61,16.03,26.31.45,2.11,2.09,4.06,3.46,5.88,56.12,74.74,111.12,150.36,173.36,220.27,8.87,9.96,18.51,19.25,28.18,28.46,30,28.57,73.61,28.84,102.44,2.37,34.72-31.87,73.71-58.18,114.35-81.75,59.35-34.42,123.63-55.36,191.91-60.95,94.58-7.75,188.62-2.27,281.34,19.29,67.6,15.72,131.8,41.05,193.98,71.34,60.43,29.44,117.92,63.99,173.61,101.75,40.75,27.63,78.93,58.41,117.51,88.84,46.96,37.05,90.3,78.15,134.47,118.26,33.63,30.53,67.26,61.22,97.97,94.95,26.89,29.54,55.26,57.74,83.2,86.31,5.13,5.25,7.97,10.58,7.93,18.16-.23,55.26-.11,110.51-.16,165.77,0,2.58-.55,5.16-1.05,9.5Z"/>
        <path class="cls-2" d="M-254.3,417.97c1,1.86,2.15,3.65,2.99,5.58,16.53,37.96,32.34,76.26,49.67,113.85,29.48,63.97,61.3,126.81,97.3,187.41C-54.72,808.37-.55,888.9,60.41,964.64c34.59,42.98,70.1,85.25,106.31,126.88,36.54,42,73.77,83.45,111.93,123.98,44.15,46.87,89.3,92.82,134.68,138.5,33.64,33.86,68.17,66.84,102.68,99.82,9.79,9.35,21.12,17.07,31.27,26.07,6.08,5.39,12.65,11.04,16.47,17.96,4.52,8.18,14.18,9.57,18.68,17.96,3.92,7.3,11.67,12.57,17.86,18.6,6.54,6.37,13.21,12.61,19.87,18.86,6.37,5.98,12.77,11.92,19.18,17.85,6.74,6.23,13.47,12.48,20.29,18.63,21.34,19.24,42.95,38.2,64.03,57.71,34.37,31.81,68.38,64,102.58,95.99,28.84,26.97,58.04,53.57,86.46,80.98,10.67,10.3,22.4,19.47,31.79,31.29,9.35,11.78,20.58,22.05,30.81,33.15,10.59,11.5,21.1,23.07,31.38,34.84,27.85,31.88,56.17,63.38,83.18,95.96,41.39,49.93,85.01,98.1,121.93,151.63,2.57,3.72,4.93,7.59,7.89,12.18-6.88,3.83-13.38,2.12-19.48,2.2-11.95.15-25.24,2.87-35.49-1.42-10.19-4.27-17.06-16.14-25.86-24.15-25.84-23.55-51.25-47.63-78.02-70.08-76.18-63.91-152.32-127.91-229.67-190.39-75.8-61.23-152.46-121.43-229.85-180.65-78.57-60.12-158.9-117.95-237.71-177.77-83.6-63.44-164.58-130.17-241.91-201.17-86.86-79.76-169.77-163.47-246.11-253.41-44.69-52.65-87.53-106.83-123.95-165.77-6.29-10.17-9.21-20.37-9.19-32.4.29-146.88.18-293.76.21-440.65,0-9.86.33-19.72.5-29.57.85-.1,1.69-.2,2.54-.29Z"/>
        <path class="cls-2" d="M162.78-101.3c8.22,0,12.73,0,17.23,0,66.77,0,133.54.46,200.3-.37,14.18-.18,22.38,5.24,30.97,15.51,43.41,51.82,84.62,105.57,132.5,153.52,11.05,11.06,22.57,21.67,34.2,32.12,23.6,21.2,51.23,25.92,81.21,18.2,32.52-8.37,64.84-17.53,97.29-26.23,64.45-17.27,129.99-26.87,196.66-21.24,43.46,3.67,86.59,11.18,129.84,17.19,47.5,6.59,92.56,22.89,138.28,36.2,31.2,9.08,61.29,22.02,91.81,33.43,44.75,16.72,87.95,37.14,130.39,58.8,59.8,30.51,117.41,65.01,173.65,101.77,100.02,65.38,193.09,139.87,284.24,216.82,40.79,34.43,80.1,70.62,120.21,105.86,5.56,4.89,8.41,10.15,8.37,17.83-.25,52.03-.12,104.07-.17,156.1,0,2.13-.52,4.25-1.14,8.93-8.73-9.68-16.23-17.46-23.12-25.75-55.09-66.32-115.6-127.41-178.37-186.39-53.67-50.42-108.85-99.09-167.26-143.94-95.26-73.14-196.04-136.92-308.48-181-121.43-47.61-247.29-66.26-377.37-62.54-83.68,2.4-163.38,19.17-238.94,55.18-41.46,19.76-78.22,46.55-113.18,76.05-13.36,11.27-26.99,22.28-41.09,32.6-12.4,9.07-15.48,9.44-26.3-1.34-19.52-19.46-38.73-39.4-56.39-60.54-38.91-46.61-77.31-93.67-114.93-141.33-52.71-66.76-104.55-134.21-156.69-201.42-18.06-23.27-35.93-46.68-53.85-70.06-2.72-3.55-5.19-7.29-9.9-13.95Z"/>
        <path class="cls-2" d="M1570.94,2185.8c-9.44,0-16.31,0-23.18,0-41.43,0-82.87-.33-124.3.24-9.86.13-14.58-3.52-18.78-12.02-35.38-71.67-71.69-142.89-106.78-214.7-44.82-91.74-88.35-184.11-133.23-275.82-32.55-66.52-60.73-134.94-88.96-203.29-38.11-92.28-71.82-186.2-97.22-282.88-8.06-30.68-15.11-61.68-15.24-93.7-.13-34.18,20.48-57.3,54.49-61.49,23.9-2.95,46.69,2.52,69.27,9.31,36.27,10.9,70.67,26.38,104.29,43.6,24.54,12.57,49.31,24.82,73.06,38.77,29.7,17.44,58.62,36.25,87.6,54.89,42.11,27.09,84.25,54.13,125.83,82.01,30.17,20.24,59.67,41.51,89.08,62.85,48.01,34.84,96,69.73,143.46,105.32,58.17,43.62,115.68,88.12,173.69,131.96,44.78,33.85,89.76,67.45,134.96,100.76,7.82,5.76,11.61,11.91,11.03,21.75-.73,12.33-.18,24.74-.18,38.65-4.32-1.78-7.41-2.47-9.84-4.13-47.49-32.46-95.15-64.66-142.26-97.67-70.09-49.12-139.62-99.02-209.64-148.23-120.5-84.68-241.1-169.21-361.9-253.46-22.62-15.78-46.01-30.55-69.74-44.62-11.35-6.73-24.03-11.6-36.61-15.83-35.5-11.94-60.44,9.11-68.91,40.33-7.95,29.32-6.84,59.15-.75,88.9,9.83,48.02,25.94,94.08,44.65,139.13,19.75,47.54,40.76,94.61,62.83,141.12,18.31,38.58,38.99,76.03,58.57,114.01,64.34,124.81,136.28,245.38,205.07,367.71,20.52,36.5,41.28,72.86,61.8,109.36,2.64,4.7,4.51,9.83,7.83,17.19Z"/>
        <path class="cls-2" d="M1013.25,2184.93c-6.29.47-8.94.83-11.59.83-39.13.04-78.26,0-117.39.05-6.07,0-11.22-.23-15.41-6.36-44.65-65.43-102.04-118.18-165.28-165.06-72.61-53.83-150.46-99.49-228.01-145.54-49.84-29.6-100.89-57.15-151.06-86.2-117.05-67.78-234.92-134.27-345.29-212.86-49.12-34.97-96.29-72.52-140.42-113.62-30.61-28.52-59.81-58.56-89.77-87.77-4.64-4.52-6.49-9.47-6.48-15.91.14-80.56.09-161.12.14-241.68,0-2.61.54-5.22.83-7.84,1.15-.82,2.29-1.64,3.44-2.46,1.11,2.35,1.95,4.89,3.37,7.04,43.75,66.25,95.09,126.34,149.28,184.14,43.77,46.69,89.84,91,137.85,133.27,30.01,26.42,60.22,52.66,91.24,77.89,30.64,24.93,62.33,48.58,93.7,72.6,33.94,25.98,67.72,52.18,102.17,77.48,28.89,21.21,58.76,41.07,87.95,61.88,25.37,18.09,50.49,36.52,75.53,55.05,48.06,35.56,96.06,71.19,143.94,106.98,27.22,20.34,54.6,40.51,81.12,61.73,37.7,30.17,74.6,61.36,111.99,91.92,58.45,47.77,117.03,95.38,175.53,143.1,3.5,2.86,6.73,6.04,12.62,11.36Z"/>
        <path class="cls-2" d="M2021.84,1928.91c-2.53-1.54-4.94-2.71-7.01-4.32-67.98-52.79-136.69-104.68-203.64-158.75-52.98-42.78-103.66-88.4-155.6-132.48-59.31-50.33-118.78-100.46-178.43-150.38-11.98-10.02-24.79-19.12-37.74-27.89-6.78-4.59-14.38-8.68-22.2-10.79-5.12-1.38-13-.77-16.69,2.39-9.26,7.94-15.85,17.61-18.79,30.74-6.26,27.97.92,52.97,13.23,77.01,19.08,37.25,38.38,74.44,59.05,110.82,45.03,79.24,90.79,158.06,136.63,236.84,23.1,39.7,47.43,78.68,70.44,118.43,22.36,38.62,43.7,77.82,65.59,116.71,6.06,10.77,12.54,21.29,18.67,32.02,2,3.5,3.53,7.27,6.15,12.74-6,1.26-10.68,3.03-15.37,3.09-33.6.42-67.21.24-100.81.84-7.87.14-10.22-4.78-13.03-10.05-17.96-33.69-35.91-67.39-53.83-101.11-69.11-130-138.27-259.98-207.29-390.02-54.17-102.06-105.09-205.66-147.14-313.41-15.56-39.87-30.38-79.98-39.34-121.97-.65-3.03-.79-6.17-1.47-11.83,7.37,2.29,13.7,3.19,18.92,6.08,16.08,8.89,32.56,17.4,47.42,28.09,60.91,43.81,121.46,88.13,181.79,132.74,80.36,59.41,163.6,114.57,247.15,169.32,58.89,38.59,117.24,78.01,176.51,116,57.71,37,116.27,72.69,174.5,108.89,5.62,3.49,10.63,6.67,10.4,14.65-.96,33.55,2.24,67.24-3.63,100.61-.64,3.62-1.27,7.25-2.11,10.83-.28,1.2-1.22,2.24-2.32,4.15Z"/>
        <path class="cls-2" d="M2013.18,263.22c1.81,1.91,3.39,4.15,5.48,5.67,7.62,5.53,11.29,12.59,11.25,22.24-.2,55.24-.09,110.49-.14,165.74,0,2.6-.51,5.2-1.09,10.77-8.63-8.74-15.75-15.57-22.45-22.78-110.82-119.35-233.19-224.79-372.48-309.92-48.75-29.79-98.74-57.28-150.86-80.68-67.22-30.19-136.1-56.05-207.22-75.46-69.23-18.9-139.14-35.08-210.06-46.23-58.33-9.17-117.09-13.67-176.12-9.22-46.77,3.52-91.59,16.06-134.31,35.01-43.31,19.21-85.87,40.14-128.81,60.19-28.3,13.21-31.45,13.04-55.81-6.62-33.11-26.73-61.16-58.46-88.38-90.95-5.28-6.31-10.52-12.66-16.94-20.38,4.47-.81,7.3-1.53,10.18-1.8,2.74-.26,5.52-.07,8.28-.07,331.47,0,662.94.09,994.41-.29,14.76-.02,26.76,4.32,38.36,12.3,30.33,20.85,60.76,41.56,91.15,62.32,91.97,62.84,182.99,126.99,271.31,194.92,37.57,28.89,75.69,57.06,113.72,85.35,3.81,2.84,8.72,4.2,13.11,6.25,2.12,2.32,4.24,4.64,6.37,6.96.35-1.1.7-2.2,1.05-3.3Z"/>
        <path class="cls-2" d="M711.03,2185.24c-3.58.19-7.15.53-10.73.54-73.19.03-146.37-.06-219.56.14-7.82.02-13.93-1.8-19.73-7.42-72.76-70.48-158.09-120.88-251.38-159.33-93.1-38.37-186.06-77.2-277.83-118.6-59.88-27.02-117.44-59.16-176.24-88.61-10.01-5.01-13.25-11.56-13.18-22.7.49-77.79.26-155.58.26-233.37,0-4.49,0-8.97,0-16.32,9.5,5.98,15.1,12.54,20.23,18.95,23.41,29.23,50.71,54.59,78.4,79.48,60.33,54.23,125.34,102.44,192.55,147.78,65.63,44.27,132.64,86.29,202.22,124.06,85.31,46.31,171.04,91.83,256.37,138.09,66.78,36.21,132.61,74.05,195.36,117.01,8.27,5.66,16.39,11.55,24.57,17.34-.44.98-.88,1.96-1.32,2.95Z"/>
        <path class="cls-2" d="M358.11,2185.8h-19.04c-91.62,0-183.24-.57-274.85.13-138.16,1.06-272.16-92.88-310.99-239.86-3.51-13.3-5.87-26.95-8.04-40.56-1.51-9.45-1.77-19.09-2.64-29.3,7.59-.97,11.88,3.7,16.77,6.41,49.02,27.16,97.76,54.84,147.07,81.48,21.37,11.55,43.74,21.27,65.86,31.37,37.58,17.16,75.24,34.14,113,50.9,45.38,20.14,90.96,39.86,136.35,59.98,46.43,20.57,89.83,46.57,132.08,74.58,1.04.69,1.74,1.89,4.41,4.88Z"/>
        <path class="cls-2" d="M1488.35,1592.98c5.08,4.36,10.23,8.64,15.22,13.1,60.41,53.98,120.6,108.22,181.23,161.95,94.89,84.07,195.19,161.15,300.84,231.25,3.38,2.24,6.58,4.75,9.65,6.98-4.94,15.62-20.59,40.86-34.07,54.89-3.48-4.24-6.67-8.58-10.33-12.48-31.48-33.57-62.86-67.22-94.73-100.41-6.28-6.54-14.06-11.98-21.95-16.54-14.2-8.2-26.29-4.98-36.15,8.08-6.02,7.98-14.23,14.5-16.19,25.09-6,32.45-8.87,64.92,4.59,96.26,10.16,23.66,21.5,46.82,32.45,70.14,4.28,9.11,8.92,18.06,14.28,28.86-8.02,3.35-15.28,6.39-24.08,10.06-101.12-196.35-213.3-385.17-320.76-577.22Z"/>
        <path class="cls-2" d="M1635.37-100.77c3.96-.18,7.92-.5,11.88-.51,21.17-.05,42.33-.03,63.5-.02,157.03.07,293.56,118.55,315.77,274.11,1.39,9.75,2.19,19.58,1.75,30.16C1896.97,102.04,1769.81-3.05,1635.37-100.77Z"/>
        <path class="cls-2" d="M1846.98,343c-4.52-2.97-9.41-5.5-13.52-8.96-99.44-83.54-206.02-156.5-322.13-214.92-59.6-29.98-120.48-57.44-184.26-77.51-47.76-15.03-95.68-29.8-144.15-42.27-92.58-23.81-186.78-37.05-282.57-37.2-14.17-.02-28.34,1.29-42.56,1.33,23.16-6.34,46.63-9.16,70.69-8.52,60.94,1.63,121.07,9.42,180.72,21.71,34.17,7.04,68.54,13.09,102.66,20.35,14.73,3.13,29.09,8.05,43.54,12.42,60.31,18.24,119.8,38.66,177.78,63.57,49.57,21.3,96.98,46.63,143.72,73.29,78.57,44.81,152.47,96.48,222.44,153.77,12.1,9.9,24.25,19.75,36.01,30.04,4.32,3.78,7.58,8.77,11.32,13.21,0,0,.3-.31.3-.31Z"/>
        <path class="cls-2" d="M798.71,2139.71c-16.95-14.56-33.95-29.07-50.85-43.69-47.43-41.06-97.39-78.83-151.58-110.41-91.83-53.52-184.02-106.45-276.78-158.33-79.09-44.23-158.43-87.93-234.18-137.79-11.07-7.28-21.84-15.01-31.58-24.83,2.95,1.36,6.06,2.45,8.84,4.1,48.26,28.67,96.1,58.05,144.78,85.99,100.48,57.68,201.85,113.82,301.99,172.09,70.76,41.17,141.33,82.87,205.81,133.84,27.83,21.99,54.76,44.95,79.05,70.88,2.05,2.19,3.88,4.59,5.81,6.9-.43.42-.87.83-1.3,1.25Z"/>
        <path class="cls-2" d="M1051.27,2114.05c-3.83-2.38-7.97-4.37-11.43-7.18-81.79-66.44-162.82-133.84-245.43-199.25-88.97-70.44-179.05-139.5-269.33-208.26-58.17-44.3-117.69-86.82-176.39-130.43-21-15.6-41.38-32.03-62.03-48.1-3.14-2.44-6.19-5-9.29-7.51.66-.75,1.32-1.5,1.97-2.24,8.91,6.16,18.01,12.06,26.69,18.52,32.75,24.4,65.3,49.06,98.04,73.47,46.09,34.36,92.35,68.5,138.43,102.88,37.57,28.03,75.1,56.11,112.44,84.44,24.06,18.26,47.72,37.05,71.65,55.48,5.07,3.91,10.89,6.88,15.82,10.94,99.23,81.87,198.39,163.82,297.48,245.85,4.11,3.4,7.41,7.77,11.08,11.68,0,0,.29-.3.29-.3Z"/>
        <path class="cls-2" d="M1633.94,482.51c-9.7-3.02-15.86-7.77-22.35-12.3-27.5-19.16-54.79-38.68-83.06-56.65-60.35-38.37-124.78-68.75-191.29-94.82-68.83-26.98-139.7-46.26-213.09-55.55-40.18-5.09-80.58-7.68-121.15-6.58-12.87.35-25.75.05-38.6-2.21,42.67.97,85.37,1.38,128.02,3.03,85.52,3.3,167.34,24.12,246.38,55.75,36.66,14.67,72.31,32.05,107.77,49.5,26.7,13.14,52.99,27.34,78.37,42.87,36.72,22.47,74.2,43.99,106.83,72.55.61.54.8,1.56,2.18,4.42Z"/>
        <path class="cls-2" d="M727.93,2181.14c-29.57-20.3-58.97-40.86-88.75-60.86-59.33-39.86-122.56-73.06-185.34-106.95-58.32-31.48-117.24-61.84-175.76-92.95-62.17-33.04-123.17-68.11-182.14-106.64-3.02-1.97-6-4.01-8.14-7.8,1.31.52,2.74.86,3.92,1.59,115.01,71.46,235.92,132.28,354.81,196.74,78.48,42.55,156.92,85.25,230.3,136.42,16.6,11.57,32.56,24.07,48.77,36.2,1.33.99,2.31,2.45,3.45,3.69-.37.19-.75.37-1.12.56Z"/>
        <path class="cls-2" d="M240.13,1871.64c136.73,76.11,276.44,146.93,407.96,232.83-2.04-.74-4.28-1.15-6.08-2.28-81.31-51.33-165.66-97.33-250.13-143.15-46.87-25.43-93.49-51.31-140.19-77.05-4.38-2.41-8.53-5.24-12.79-7.87.41-.82.82-1.65,1.23-2.47Z"/>
        <path class="cls-2" d="M796.23,70.99c3.9-1.98,7.59-4.9,11.72-5.8,52.08-11.41,104.53-13.41,157.64-8.02,44,4.46,87.56,11.47,130.91,19.68,27.46,5.2,54.46,12.83,81.61,19.62,1.77.44,2.99,3.04,4.51,4.61.04-.03.32-.25.32-.25-21.75-5.25-43.39-11.01-65.28-15.62-26.88-5.66-53.82-11.46-81.01-15.17-32.2-4.39-64.66-7.09-97.08-9.68-48.33-3.86-96.11,1.34-143.55,10.51l.22.13Z"/>
        <path class="cls-2" d="M1360.17,415.37c-21.96-8.06-43.86-16.32-65.91-24.15-67.58-23.99-137.2-37.78-208.7-43.46-52.93-4.2-105.62-.02-158.67-.55,5.76-.34,11.54-.51,17.28-1.06,5.94-.56,11.84-1.98,17.78-2.18,51.06-1.71,102.13-1.56,153.03,3.11,68.64,6.31,134.86,23.17,199.21,47.63,11.6,4.41,23.24,8.77,34.65,13.62,3.99,1.7,7.37,4.83,11.03,7.31l.3-.29Z"/>
        <path class="cls-2" d="M1545.62,257.51c-14.98-7.94-29.77-16.27-44.97-23.75-43.25-21.29-86.5-42.6-130.06-63.22-44.47-21.05-90.8-37.42-137.33-53.26-4.47-1.52-8.4-4.64-12.59-7.02l-.31.3c19.21,5.93,38.83,10.8,57.54,18.02,38.03,14.66,75.82,29.99,113.25,46.11,51.03,21.98,99.56,48.95,147.6,76.75,2.56,1.48,4.38,4.24,6.56,6.39.01,0,.31-.32.31-.32Z"/>
        <path class="cls-2" d="M939.99,333.21c3.4-1.11,6.73-2.92,10.2-3.23,52.31-4.58,104.65-3.5,156.78,1.9,34.17,3.54,68.08,9.52,102.09,14.53,4.03.59,7.93,2,11.63,4.63-5.43-.95-10.88-1.79-16.28-2.86-70.13-13.85-140.92-19.38-212.34-17.07-17.39.56-34.76,1.4-52.14,2.11l.06-.02Z"/>
        <path class="cls-2" d="M1430.03,1340.46c7.31,4.67,14.76,9.14,21.91,14.04,62.23,42.6,124.42,85.26,186.58,127.96,1.97,1.35,3.53,3.31,4.13,6.54-1.86-.98-3.85-1.77-5.56-2.96-65.84-45.48-131.67-90.97-197.4-136.6-3.55-2.47-6.24-6.17-9.35-9.29,0,0-.3.31-.3.31Z"/>
        <path class="cls-2" d="M1201.74,311.91c-78.45-14.52-157.63-18.66-237.23-16.76,79.73-3.72,159.1-2.41,237.23,16.76Z"/>
        <path class="cls-2" d="M118.53,1999.91c16.49,6.8,33.07,13.38,49.44,20.46,29.9,12.95,59.69,26.17,89.47,39.38,3.08,1.36,5.86,3.4,7.93,6.76-17.51-7.63-35.01-15.31-52.55-22.89-26.53-11.46-53.15-22.69-79.57-34.4-5.2-2.31-9.65-6.31-14.45-9.53l-.28.21Z"/>
        <path class="cls-2" d="M1858.07,1829.49c-2.07-.84-4.48-1.25-6.14-2.58-39.3-31.6-78.54-63.28-117.7-95.06-2.37-1.93-3.94-4.85-5.88-7.31,0,0-.29.3-.29.3,8.47,6.04,17.26,11.69,25.36,18.19,32.6,26.11,65.02,52.45,97.41,78.83,2.69,2.19,4.67,5.26,6.98,7.92,0,0,.26-.28.26-.28Z"/>
        <path class="cls-2" d="M520.97,1984.25c2.14.71,4.51,1.04,6.39,2.18,37.34,22.55,74.63,45.18,111.9,67.84,2.3,1.4,4.37,3.19,5.62,6.47-2.12-1.06-4.34-1.97-6.36-3.2-36.12-21.91-72.24-43.82-108.27-65.88-3.33-2.04-6.03-5.11-9.02-7.7,0,0-.27.29-.27.29Z"/>
        <path class="cls-2" d="M924.12,36.96c-35.87,4.32-76.22,9.17-113.06,13.61,16.63-7.58,78.53-17.35,113.06-13.61Z"/>
        <path class="cls-2" d="M521.24,1983.96c-2.56-.74-5.37-1.02-7.64-2.29-31.19-17.4-62.33-34.9-93.4-52.53-2.55-1.44-4.46-4-6.67-6.04,0,0-.27.29-.27.29,4.53,2,9.26,3.66,13.57,6.06,27.83,15.53,55.6,31.17,83.3,46.92,3.86,2.19,7.23,5.24,10.83,7.88,0,0,.27-.3.27-.3Z"/>
        <path class="cls-2" d="M470.5,1748.81c-21.12-15.17-42.23-30.34-63.35-45.51.69-.96,1.37-1.92,2.06-2.88,21.13,15.15,42.26,30.3,63.39,45.45-.7.98-1.4,1.96-2.1,2.93Z"/>
        <path class="cls-2" d="M1913.4,2114.54c-3.93,1.95-6.02,2.94-8.07,4.02-1.91,1.01-3.77,2.11-6.91,3.89-4.22-10.12-8.08-19.39-11.95-28.65.78-.61,1.56-1.21,2.34-1.82,7.28,6.69,14.57,13.37,24.59,22.57Z"/>
        <path class="cls-2" d="M1721.8,1544.21c-19.69-13.36-39.38-26.73-59.07-40.09.7-1.02,1.4-2.04,2.1-3.07,20.15,12.69,39.22,26.96,58.93,40.29-.65.95-1.3,1.91-1.96,2.86Z"/>
        <path class="cls-2" d="M843.85,5.23c22.53-2.69,45.07-5.37,67.6-8.06.12.94.23,1.88.35,2.83-22.63,2.87-45.25,5.75-67.88,8.62-.02-1.13-.05-2.26-.07-3.39Z"/>
        <path class="cls-2" d="M1283.15,1235.6c-8.24-4.9-16.54-9.72-24.72-14.73-12.88-7.9-25.69-15.93-37.5-26.04,7.92,4.24,16.09,8.08,23.7,12.82,11.31,7.03,22.3,14.59,33.26,22.18,2.07,1.43,3.32,4.03,4.96,6.08l.3-.3Z"/>
        <path class="cls-2" d="M1015.31,961.22c16.32-4.16,31.67-1.1,49.12,5.3-18.37,1.22-33.92-.84-49.12-5.3Z"/>
        <path class="cls-2" d="M1587.85,281.89c15.36,10.32,30.71,20.64,46.07,30.96l.3-.32c-16.45-8.67-33.14-17.01-46.06-30.94l-.31.29Z"/>
        <path class="cls-2" d="M1436.03,451.57c-13.72-6.75-27.44-13.5-41.16-20.24.33-.68.66-1.37,1-2.05,13.75,6.69,27.49,13.38,41.24,20.08-.36.74-.72,1.48-1.08,2.21Z"/>
        <path class="cls-2" d="M1633.92,312.86c16.23,7.96,31.57,17.2,44.07,30.54,0,0,.31-.32.31-.32-14.69-10.18-29.38-20.36-44.08-30.54,0,0-.3.32-.3.32Z"/>
        <path class="cls-2" d="M1588.16,281.6c-1.75-.11-3.87.39-5.18-.43-12.52-7.77-24.91-15.76-37.34-23.67-.01,0-.31.32-.32.33,8.51,4.14,17.22,7.94,25.49,12.52,5.97,3.31,11.36,7.68,17.03,11.55.02-.02.32-.31.32-.31Z"/>
        <path class="cls-2" d="M1730.58,381.99c-10.66-8.56-21.32-17.11-32-25.65-.02.01-.35.33-.35.33,11.57,7.42,24.18,13.55,31.99,25.66.02-.01.35-.34.35-.34Z"/>
        <path class="cls-2" d="M1896.29,387.61c-8.92-8.49-17.84-16.97-26.76-25.46l-.3.3c10.77,5.41,22.59,16.67,26.73,25.46l.33-.31Z"/>
        <path class="cls-2" d="M1895.96,387.92c12.23,2.5,17.2,13.76,24.26,22.45-7.97-7.6-15.93-15.19-23.91-22.77-.02.02-.35.32-.35.32Z"/>
        <path class="cls-2" d="M1220.67,110.26c-7.4-1.47-14.85-2.7-22.17-4.49-5.26-1.29-10.33-3.32-15.52-4.98-.04.04-.32.25-.36.28,13.6-1.01,25.79,3.74,37.73,9.51.02-.02.32-.32.32-.32Z"/>
        <path class="cls-2" d="M636.62,111.77c8.64-2.07,17.29-4.15,25.93-6.22.2.88.39,1.76.59,2.63-8.68,1.91-17.36,3.83-26.04,5.74-.16-.72-.32-1.44-.48-2.15Z"/>
        <path class="cls-2" d="M1703.56,1702.47c9.31,6.2,19.15,11.82,24.49,22.37,0,0,.29-.3.29-.29-10.15-5.28-18.65-12.36-24.46-22.38l-.32.31Z"/>
        <path class="cls-2" d="M344.01,1884.55c-9.41-4.21-18.83-8.42-28.24-12.62.56-1.06,1.11-2.13,1.67-3.19,8.76,5.38,17.52,10.77,26.28,16.15l.3-.33Z"/>
        <path class="cls-2" d="M692.07,1912.6c10.51,1.96,16.26,10.12,22.56,17.54-8.13-5.05-17.69-8.3-22.28-17.83,0,0-.28.28-.28.28Z"/>
        <path class="cls-2" d="M1882.77,1849c-8.23-6.51-16.46-13.01-24.69-19.52,0,0-.26.28-.27.28,10.14,4.09,19.01,9.78,24.68,19.53l.28-.3Z"/>
        <path class="cls-2" d="M1703.88,1702.16c-9.27-4.26-16.99-10.31-22.22-19.24l-.32.32c7.4,6.42,14.8,12.83,22.21,19.24,0,0,.33-.32.33-.32Z"/>
        <path class="cls-2" d="M1869.53,362.16c-7.52-6.39-15.03-12.78-22.55-19.17,0,0-.3.31-.3.31,9.86,3.63,17.14,10.29,22.54,19.16,0,0,.31-.31.31-.31Z"/>
        <path class="cls-2" d="M1762.4,585.3c4.79,3.83,9.57,7.65,14.36,11.48-.62.77-1.24,1.54-1.86,2.31-4.66-3.97-9.33-7.95-13.99-11.92.5-.62,1-1.24,1.5-1.86Z"/>
        <path class="cls-2" d="M1904.61,721.77c-4.16-4.35-8.32-8.71-12.48-13.06.37-.37.73-.75,1.1-1.12,4.54,4.03,9.09,8.07,13.63,12.1-.75.69-1.5,1.39-2.24,2.08Z"/>
        <path class="cls-2" d="M502.33,1768.08c5.2,3.65,10.39,7.3,15.59,10.95-.82.93-1.63,1.85-2.45,2.78-4.27-4.67-8.54-9.34-12.81-14.01l-.34.28Z"/>
        <path class="cls-2" d="M1359.87,415.66c7.6,2.11,15.2,4.23,22.81,6.35-.39,1.04-.79,2.08-1.18,3.13-7.09-3.27-14.19-6.53-21.3-9.78-.02.02-.32.31-.32.31Z"/>
        <path class="cls-2" d="M1681.67,1682.92c-5.83-4.04-11.66-8.08-17.49-12.12.66-.82,1.32-1.64,1.98-2.45,5.1,4.91,12.19,7.41,15.18,14.89,0,0,.33-.32.33-.32Z"/>
        <path class="cls-2" d="M1019.01,1031.54h18.45c0,.35.02.7.02,1.06h-18.45c0-.35-.01-.7-.02-1.06Z"/>
        <path class="cls-2" d="M1282.85,1235.91c5.94,3.03,11.88,6.06,17.82,9.09-.63,1.02-1.27,2.04-1.9,3.05-5.2-4.15-10.4-8.31-15.61-12.45,0,0-.31.31-.31.31Z"/>
        <path class="cls-2" d="M1410.79,1326.54c6.41,4.64,12.82,9.28,19.23,13.92,0,0,.3-.31.31-.32-8.4-1.88-14.93-6.35-19.24-13.91l-.3.31Z"/>
        <path class="cls-2" d="M1411.09,1326.24c-8.53-1.67-14.81-6.52-19.43-13.71l-.3.3c6.47,4.58,12.94,9.16,19.42,13.72.01,0,.31-.31.31-.31Z"/>
        <path class="cls-2" d="M1391.66,1312.52c-8.35-1.94-14.69-6.7-19.34-13.82l-.31.32c6.45,4.6,12.89,9.21,19.35,13.81,0,0,.31-.31.31-.31Z"/>
        <path class="cls-2" d="M1440.82,1478.53c-5.58-3.07-11.17-6.14-16.75-9.22.79-1.1,1.59-2.2,2.38-3.3,4.69,4.28,9.38,8.56,14.07,12.83l.3-.31Z"/>
        <path class="cls-2" d="M1677.98,343.39c6.74,4.44,13.48,8.87,20.24,13.29.02-.01.35-.33.36-.35-6.74-4.43-13.51-8.85-20.28-13.27,0,0-.32.32-.32.32Z"/>
        <path class="cls-2" d="M1836.43,655.81c-2.92-3.06-5.83-6.12-8.75-9.18.6-.6,1.21-1.19,1.81-1.79,2.91,3.13,5.81,6.27,8.72,9.4-.59.52-1.18,1.05-1.78,1.57Z"/>
        <path class="cls-2" d="M1341.13,1277.09c-6.24-4.69-12.48-9.37-18.71-14.06l-.32.33c6.24,4.68,12.48,9.37,18.72,14.05l.32-.32Z"/>
        <path class="cls-2" d="M343.71,1884.88c5.75,2.66,11.5,5.33,17.24,7.99-.55.91-1.1,1.83-1.66,2.74-5.09-3.69-10.19-7.37-15.29-11.06,0,0-.3.33-.3.33Z"/>
        <path class="cls-2" d="M1646.48,1652.07c3.31,2.69,6.62,5.38,9.93,8.06-.41.52-.82,1.05-1.23,1.57-3.29-2.7-6.58-5.39-9.87-8.09.39-.51.78-1.03,1.18-1.54Z"/>
        <path class="cls-2" d="M796.01,70.87c-6.17,1.3-12.34,2.59-18.51,3.89-.11-.92-.22-1.84-.32-2.76,6.31-.36,12.62-.72,18.99-1.04.06.04-.15-.08-.15-.08Z"/>
        <path class="cls-2" d="M413.54,1923.1c-5.94-2.31-11.88-4.61-17.81-6.92.53-1.08,1.07-2.16,1.6-3.24,5.31,3.49,10.62,6.98,15.94,10.46,0,0,.27-.3.27-.3Z"/>
        <path class="cls-2" d="M384.32,1908.92c-4.27-2.4-8.55-4.79-12.82-7.19.36-.68.72-1.36,1.08-2.03,4.5,2.36,9.01,4.72,13.51,7.08-.59.72-1.18,1.43-1.78,2.15Z"/>
        <path class="cls-2" d="M1723.56,1604.57c-3.06-2.3-6.12-4.59-9.18-6.89.37-.54.73-1.07,1.1-1.61,3.28,2.16,6.56,4.33,9.83,6.49-.58.67-1.16,1.34-1.75,2.01Z"/>
        <path class="cls-2" d="M1741.5,570.33c4.49,2.13,8.99,4.25,13.48,6.38q-6.24.59-13.16-6.7l-.33.32Z"/>
        <path class="cls-2" d="M1829.43,459.81c-2.41-1.83-4.81-3.66-7.22-5.49.36-.49.72-.97,1.08-1.46,2.41,1.83,4.82,3.66,7.22,5.48-.36.49-.72.98-1.09,1.47Z"/>
        <path class="cls-2" d="M916.41,2091.69c4.57,3.72,9.13,7.44,13.72,11.15.02-.02.34-.34.36-.35-6.92-.79-11.71-4.25-13.75-11.11l-.33.31Z"/>
        <path class="cls-2" d="M1630.31,1638.24c2.2,1.87,4.39,3.75,6.59,5.62-.34.41-.68.81-1.03,1.22-2.22-1.85-4.43-3.7-6.65-5.55.36-.43.72-.86,1.08-1.29Z"/>
        <path class="cls-2" d="M916.74,2091.38c-7.17-.28-11.14-4.84-14.22-10.61,0,0-.32.32-.32.32,4.72,3.54,9.44,7.09,14.18,10.62.02-.02.35-.33.35-.33Z"/>
        <path class="cls-2" d="M1906.2,521.6c2.39,2.09,4.77,4.18,7.16,6.27-.38.44-.76.87-1.13,1.31-2.42-2.05-4.84-4.1-7.26-6.15.41-.48.82-.96,1.23-1.43Z"/>
        <path class="cls-2" d="M887.93,2070.13c-4.37-3.8-8.74-7.59-13.11-11.39l-.31.32c4.37,3.79,8.73,7.59,13.1,11.38l.32-.32Z"/>
        <path class="cls-2" d="M874.81,2058.75c-4.05-2.39-8.09-4.79-12.14-7.18.62-.79,1.25-1.58,1.87-2.36,3.32,3.29,6.63,6.58,9.95,9.87,0,0,.31-.32.31-.32Z"/>
        <path class="cls-2" d="M1719.58,550.55c-3.07-2.33-6.14-4.66-9.21-6.98,5.61-.31,8.7,2.08,8.89,7.32l.32-.34Z"/>
        <path class="cls-2" d="M887.6,2070.45c4.86,3.55,9.73,7.1,14.59,10.65,0,0,.32-.32.32-.33-4.85-3.55-9.71-7.11-14.58-10.65-.01.01-.34.33-.34.33Z"/>
        <path class="cls-2" d="M939.92,333.23c-5.86,0-11.72,0-17.58,0,5.87,0,11.74,0,17.62-.01.02,0-.05.02-.05.02Z"/>
        <path class="cls-2" d="M678.64,1901.21c4.48,3.8,8.95,7.6,13.43,11.4,0,0,.28-.28.28-.28-4.46-3.81-8.93-7.62-13.4-11.43l-.31.32Z"/>
        <path class="cls-2" d="M1787.82,610.27c-2-1.38-3.99-2.75-5.99-4.13.44-.84.89-1.68,1.33-2.51,2.26,1.01,4.53,2.02,6.79,3.02-.71,1.21-1.42,2.41-2.13,3.62Z"/>
        <path class="cls-2" d="M1815.39,632.32c1.66,1.49,3.31,2.98,4.97,4.47-.3.39-.61.77-.91,1.16-1.79-1.34-3.58-2.68-5.37-4.02.44-.54.87-1.07,1.31-1.61Z"/>
        <path class="cls-2" d="M297.91,1858.16c2.6,1.66,5.19,3.32,7.79,4.99-.3.55-.61,1.1-.91,1.65-2.84-1.59-5.68-3.18-8.52-4.77.55-.62,1.09-1.25,1.64-1.87Z"/>
        <path class="cls-2" d="M1719.26,550.89c5.08-1.58,6.94,1.86,7.84,6.48-2.5-2.28-4.99-4.56-7.5-6.82-.01.01-.34.35-.34.35Z"/>
        <path class="cls-2" d="M1856.59,480.08c1.67.95,3.35,1.91,5.02,2.86-.62.64-1.24,1.29-1.85,1.93-1.5-1.2-3.01-2.4-4.51-3.6.45-.4.9-.8,1.35-1.2Z"/>
        <path class="cls-2" d="M1372.32,1298.71c-3.11-1.23-6.23-2.47-9.34-3.7.57-.87,1.14-1.74,1.71-2.62,2.43,2.22,4.87,4.44,7.31,6.65,0,0,.32-.33.32-.33Z"/>
        <path class="cls-2" d="M1843.07,471.38c-1.48-1.33-2.95-2.66-4.43-3.99.37-.44.74-.88,1.12-1.33,1.53,1.19,3.07,2.39,4.6,3.58-.43.58-.86,1.16-1.29,1.74Z"/>
        <path class="cls-2" d="M1809.5,441.35c1.57,1.35,3.14,2.71,4.71,4.06-.38.47-.76.95-1.14,1.42-1.54-1.17-3.09-2.34-4.63-3.51.35-.66.71-1.31,1.06-1.97Z"/>
        <path class="cls-2" d="M1799.12,435.38c-1.51-1.09-3.02-2.18-4.53-3.28.33-.46.66-.93.99-1.39,1.52,1.07,3.05,2.15,4.57,3.22-.34.48-.68.96-1.03,1.45Z"/>
        <path class="cls-2" d="M1778.19,417.73c2.66,1.66,5.32,3.33,7.98,4.99-.51.59-1.02,1.18-1.53,1.76-2.04-2.36-4.07-4.73-6.11-7.09,0,0-.34.33-.34.33Z"/>
        <path class="cls-2" d="M1778.53,417.4c-2.94-1.52-5.87-3.05-8.81-4.57.46-.68.92-1.36,1.38-2.04,2.36,2.32,4.71,4.63,7.08,6.94,0,0,.35-.34.35-.34Z"/>
        <path class="cls-2" d="M1753.23,398.44c2.85,1.63,5.69,3.26,8.54,4.89-.6.7-1.19,1.4-1.79,2.1-2.14-2.44-4.28-4.88-6.42-7.32,0,0-.33.33-.33.33Z"/>
        <path class="cls-2" d="M1340.81,1277.41c3.14,1.23,6.27,2.46,9.41,3.69-.52.84-1.05,1.68-1.57,2.52-2.5-2.18-5-4.37-7.5-6.54-.01,0-.33.33-.33.33Z"/>
        <path class="cls-2" d="M850.16,2038.02c1.89,1.46,3.77,2.93,5.66,4.39-.35.48-.7.97-1.05,1.45-1.91-1.47-3.81-2.94-5.72-4.41.37-.48.74-.96,1.1-1.44Z"/>
        <path class="cls-2" d="M836.44,2026.97c1.78,1.37,3.56,2.74,5.34,4.12-.33.45-.67.89-1,1.34-1.8-1.34-3.6-2.68-5.4-4.02.36-.48.71-.96,1.07-1.43Z"/>
        <path class="cls-2" d="M820.03,2013.34c1.6,1.3,3.2,2.6,4.8,3.9-.31.46-.63.92-.94,1.38-1.64-1.08-3.28-2.16-4.91-3.25.35-.68.71-1.35,1.06-2.03Z"/>
        <path class="cls-2" d="M806.22,2002.37c1.7,1.35,3.41,2.69,5.11,4.04-.37.47-.73.93-1.1,1.4-1.7-1.35-3.41-2.69-5.11-4.04.37-.47.73-.93,1.1-1.4Z"/>
        <path class="cls-2" d="M1440.52,1478.84c3.57,2.84,7.15,5.68,10.72,8.52,0,0,.35-.33.35-.33-3.59-2.84-7.17-5.67-10.76-8.51,0,0-.3.31-.3.31Z"/>
        <path class="cls-2" d="M792.49,1991.02c1.66,1.37,3.32,2.74,4.99,4.11-.38.44-.77.89-1.15,1.33-1.62-1.43-3.24-2.85-4.85-4.28.34-.39.68-.78,1.02-1.16Z"/>
        <path class="cls-2" d="M1322.42,1263.03c-2.92-1.51-5.85-3.01-8.77-4.52.54-.71,1.07-1.43,1.61-2.14,2.28,2.33,4.56,4.66,6.84,7,0,0,.33-.33.33-.33Z"/>
        <path class="cls-2" d="M1451.23,1487.36c2.91,1.3,5.81,2.61,8.72,3.91-.44.74-.88,1.48-1.31,2.22-2.35-2.16-4.69-4.32-7.05-6.47-.01,0-.36.34-.36.34Z"/>
        <path class="cls-2" d="M768.39,1974.24c-1.47-1.19-2.94-2.37-4.41-3.56.36-.43.72-.86,1.08-1.29,1.47,1.18,2.94,2.37,4.42,3.55-.36.43-.72.87-1.09,1.3Z"/>
        <path class="cls-2" d="M1530.59,1554.44c-1.19-1.07-2.37-2.14-3.56-3.2.39-.42.79-.83,1.18-1.25,1.21,1.04,2.41,2.07,3.62,3.11-.41.45-.83.9-1.24,1.35Z"/>
        <path class="cls-2" d="M1651.75,497.01c-1.57-.83-3.13-1.66-4.7-2.49.29-.59.57-1.19.86-1.78,1.62.73,3.23,1.45,4.85,2.18-.34.7-.68,1.39-1.01,2.09Z"/>
        <path class="cls-2" d="M678.95,1900.89c-3.38-1.41-6.75-2.81-10.13-4.22.53-.93,1.05-1.86,1.58-2.78,2.74,2.45,5.48,4.89,8.23,7.33.01-.01.32-.33.32-.33Z"/>
        <path class="cls-2" d="M656.02,1883.01c1.92,1.4,3.83,2.81,5.75,4.21-.38.53-.76,1.06-1.13,1.58-1.93-1.38-3.87-2.75-5.8-4.13.4-.56.79-1.11,1.19-1.67Z"/>
        <path class="cls-2" d="M1022.95,1018.26h6.41c0,.25.01.49.02.74-2.17.11-4.34.23-6.5.34.03-.36.05-.72.08-1.08Z"/>
        <path class="cls-2" d="M613.84,1853.22c-1.66-1.41-3.32-2.81-4.97-4.22.4-.47.8-.95,1.19-1.42,1.67,1.39,3.34,2.79,5.01,4.18-.41.49-.82.97-1.23,1.46Z"/>
        <path class="cls-2" d="M782.2,1985.53c-1.56-1.3-3.13-2.59-4.69-3.89.34-.44.68-.89,1.02-1.33,1.7,1.28,3.4,2.56,5.1,3.84-.48.46-.95.92-1.43,1.38Z"/>
        <path class="cls-2" d="M1741.83,570c-1.9-2.05-3.81-4.11-5.71-6.16,5.52-.36,5.75,2.86,5.39,6.47-.01.01.32-.31.32-.31Z"/>
        <path class="cls-2" d="M502.67,1767.79c-3.43-1.05-6.85-2.11-10.28-3.16.37-.87.73-1.74,1.1-2.61,2.92,2.04,5.84,4.08,8.8,6.08.04-.04.38-.32.38-.32Z"/>
        <path class="cls-2" d="M1741.31,390.65c-3.56-2.9-7.13-5.79-10.71-8.68-.02.01-.35.34-.37.35,5.65.28,9.74,2.51,10.75,8.61l.33-.29Z"/>
        <path class="cls-2" d="M1905.55,1865.18c2.56,1.64,5.12,3.29,7.69,4.93-.53.58-1.05,1.15-1.58,1.73-1.92-2.33-3.84-4.65-5.77-6.98l-.34.32Z"/>
        <path class="cls-2" d="M1910.02,751.81c-1.4,1.24-2.21,2.52-3.22,2.7-1.05.18-2.28-.7-3.44-1.12.97-1.12,1.76-2.59,2.98-3.23.61-.32,2.01.86,3.67,1.66Z"/>
        <path class="cls-2" d="M1905.89,1864.86c-5.73.07-9.44-2.71-11.39-8.01,0,0-.31.33-.31.33,3.77,2.68,7.55,5.36,11.34,8.02.02-.02.36-.34.36-.34Z"/>
        <path class="cls-2" d="M1740.97,390.94c6.13-.84,9.29,3.16,12.25,7.5,0,0,.33-.33.33-.34-4.06-2.51-8.12-5.01-12.22-7.49-.03.03-.36.32-.36.32Z"/>
        <path class="cls-2" d="M1889.62,507.82c1.45,1.07,2.9,2.13,4.36,3.2-.33.47-.67.94-1,1.41-1.44-1.06-2.87-2.13-4.31-3.19.32-.47.64-.94.96-1.41Z"/>
        <path class="cls-2" d="M1882.49,1849.3c3.89,2.63,7.79,5.25,11.69,7.88,0,0,.31-.32.32-.33-3.9-2.62-7.81-5.24-11.73-7.85,0,0-.29.3-.29.3Z"/>
        <path class="cls-2" d="M1877.09,499.3c-1.98-1.72-3.21-2.79-4.45-3.87,1.13.17,2.35.14,3.34.61.48.23.52,1.4,1.11,3.26Z"/>
        <path class="cls-2" d="M230.98,1571c1.68,1.37,3.36,2.74,5.04,4.11-.38.46-.76.91-1.15,1.37-1.64-1.42-3.27-2.84-4.91-4.26.34-.4.68-.81,1.02-1.21Z"/>
        <path class="cls-2" d="M118.8,1999.7c-3.83-.29-7.66-.58-11.49-.87.12-.84.23-1.68.35-2.52,3.59,1.23,7.17,2.46,10.81,3.65.05-.04.33-.25.33-.25Z"/>
        <path class="cls-2" d="M550.26,1806.48c-1.7-1.34-3.39-2.67-5.08-4.01.29-.44.58-.88.87-1.31,1.96,1.21,3.92,2.41,5.88,3.62-.55.57-1.11,1.14-1.66,1.7Z"/>
      </g>
    </g>
  </g>
</svg>