<?xml version="1.0" encoding="UTF-8"?>
<svg id="Capa_2" xmlns="http://www.w3.org/2000/svg" xmlns:xlink="http://www.w3.org/1999/xlink" viewBox="0 0 1920 2047.53">
  <defs>
    <style>
      .cls-1 {
        fill: none;
      }

      .cls-2 {
        fill: beige;
      }

      .cls-3 {
        clip-path: url(#clippath);
      }
    </style>
    <clipPath id="clippath">
      <rect class="cls-1" width="1920" height="2047.53"/>
    </clipPath>
  </defs>
  <g id="Capa_2-2" data-name="Capa_2">
    <g class="cls-3">
      <g>
        <path class="cls-2" d="M2129.89,97.02c.33,5.93.79,10.45.79,14.96.02,224.9,0,449.8-.02,674.69,0,2.81-.25,5.63.02,8.41.68,7.08-2.7,10.97-8.88,14.09-30.85,15.6-61.66,31.3-92.23,47.44-85.1,44.92-170.16,89.94-255.07,135.21-27.2,14.5-53.96,29.84-80.86,44.9-77.43,43.36-155,86.48-232.19,130.27-54.47,30.9-108.39,62.77-162.6,94.12-21.41,12.38-43.32,23.94-64.37,36.89-46.04,28.33-93.91,53.44-140.55,80.69-55.23,32.26-110.35,64.71-165.67,96.81-31.49,18.27-63.37,35.88-94.93,54.04-27.46,15.8-54.56,32.2-82.08,47.89-121.78,69.45-243.45,139.11-365.55,207.99-146.14,82.44-292.68,164.16-439.05,246.18-4.04,2.27-8.18,4.36-13.98,7.44-12.9-11.62-25.9-23.34-39.88-35.95,4.11-3.46,6.64-6.01,9.56-7.99,47.41-32.2,90.68-69.45,128.43-112.37,30.79-35,59.45-71.96,87.69-109.09,46.1-60.62,89.61-123.26,137-182.84,42.44-53.36,87.67-104.62,133.39-155.24,88.42-97.89,182.37-190.41,277.79-281.43,93.39-89.08,190.53-173.96,288.47-257.94,54.28-46.54,108.8-92.81,163.69-138.63,36.86-30.77,74.45-60.67,111.93-90.69,30.18-24.17,60.29-48.45,91.13-71.75,41.34-31.25,83.27-61.72,125.1-92.32,159.39-116.61,324.72-223.87,499.78-315.59,56.68-29.7,114.39-57.43,171.67-85.99,3.18-1.59,6.7-2.48,11.48-4.2Z"/>
        <path class="cls-2" d="M2114.67,6.94c-24.1,10.73-46.27,20.52-68.36,30.46-126.26,56.81-250.76,117.14-370.55,186.75-71.94,41.81-142.12,86.47-209.84,134.88-33.79,24.16-67.88,47.93-101.07,72.89-39.07,29.39-77.1,60.14-115.98,89.77-17.77,13.54-35.35,27.01-51.78,42.33-15.07,14.06-34,23.88-50.14,36.91-50.47,40.75-100.75,81.74-150.49,123.38-58.02,48.57-115.87,97.38-172.93,147.06-134.78,117.35-264.38,240.14-385.91,371.28-63.58,68.61-124.96,139.16-181.58,213.64-33.65,44.25-65.39,89.96-97.98,135.01-47.35,65.44-93.39,131.88-142.43,196.03-43.62,57.07-96.57,105.2-155.28,146.79-2.66,1.89-5.44,3.64-8.25,5.3-.72.43-1.78.29-4.06.6-2.04-3.4-4.59-7.16-6.65-11.17-23.81-46.59-36.41-95.92-36.16-148.38.07-14.5.45-29.01-.15-43.48-.34-8.08,2.89-12.78,9.32-17.14,84.85-57.55,156.06-129.06,216.04-211.99,48.23-66.67,84.97-139.48,116.71-215.16,37.04-88.34,73.26-177.11,113.33-264.08,53.48-116.08,119.28-225.49,190.08-331.8,53.62-80.51,107.5-160.88,163-240.1,43.94-62.73,89.89-124.07,136.04-185.21,63.09-83.57,128.54-165.27,199.07-242.77,2.36-2.6,3.71-6.14,5.44-9.29.61-1.11.65-3.06,1.49-3.45,18.15-8.35,28.4-25.31,41.44-38.93,36.9-38.52,75.67-74.97,117.11-108.46,34.53-27.9,70.27-54.28,105.34-81.52,6.26-4.87,12.88-6.57,20.73-6.57,191.24.14,382.51-1.68,573.73.81,107.85,1.41,193.38,51.19,257.14,137.99,16.41,22.34,29.02,46.86,38.81,72.81,1.61,4.27,2.83,8.69,4.79,14.78Z"/>
        <path class="cls-2" d="M-194.76,1637.49c0-4.54,0-9.07,0-13.61,0-100.51.07-201.02-.11-301.53-.02-9.22,1.82-17.06,7.37-24.78,50.12-69.61,86.69-145.88,112.52-227.62,20.89-66.1,36.35-133.32,45.2-202.03,7.1-55.12,12.84-110.42,20.32-165.49,8.04-59.22,14.62-118.85,26.79-177.27,23.06-110.74,62.02-216.28,113.59-317.08,40.56-79.28,89.91-152.96,142.7-224.45,50.33-68.17,105.56-132.13,165.28-192.25,7.39-7.44,14.82-10.97,25.65-10.96,204.29.32,408.58.23,612.87.28,5.85,0,11.7.54,17.55.82.37,1.06.75,2.12,1.12,3.18-7.53,6.46-15.09,12.9-22.6,19.38-15.85,13.69-31.57,27.54-47.56,41.07-14.84,12.56-30.15,24.56-44.89,37.23-13.45,11.56-26.77,23.31-39.53,35.61-76.79,73.99-150.89,150.57-219.75,232.06-36.15,42.78-71.43,86.3-107.16,129.43-7.74,9.35-16.16,18.17-23.51,27.81-6.37,8.35-14.19,16.35-13.31,28.27.06.86-.19,2.02-.75,2.62-7.87,8.48-15.82,16.9-24.32,25.92.87,2.74,1.93,6.1,3.36,10.63-9.79.5-14.06,6.11-17.72,13.79-4.8,10.08-13.28,16.86-23.05,22.83-7.69,4.7-14.36,12.02-19.68,19.46-33.92,47.46-67.85,94.93-100.8,143.06-45.7,66.76-84.87,137.42-122.84,208.8-64.47,121.22-114.7,248.42-160.67,377.51-18.16,51.01-37.83,101.48-56.94,152.14-4.39,11.63-7.23,24.6-14.4,34.28-18.72,25.27-30.48,54.41-47.65,80.52-36.05,54.82-75.24,107.1-121.03,154.12-19.79,20.32-41.41,38.86-62.2,58.21-1.29-.65-2.57-1.31-3.86-1.96Z"/>
        <path class="cls-2" d="M2129.82,916.59c.33,5.99.8,10.46.8,14.94.04,96.79-.12,193.59.25,290.38.04,10.44-3.44,15.57-12.96,19.82-100.6,44.97-200.9,90.61-301.46,135.67-72.43,32.46-144.8,65.09-217.78,96.29-132.74,56.74-265.73,112.93-398.99,168.46-83.22,34.68-167.14,67.7-250.72,101.52-163.69,66.23-327.59,131.97-490.95,199.02-68.68,28.19-136.21,59.16-204.24,88.91-14.89,6.51-30,12.6-44.47,19.95-27.67,14.05-56.2,26.27-84.04,39.96-6.42,3.16-9.34,10.33-18.43,11.15-7.38.66-14.49,1.47-21.83.4-20.79-3.01-41.24-7.29-62.73-16.23,4.09-2.91,6.67-5.21,9.63-6.77,73.98-39.02,148.36-77.31,221.95-117.04,151.32-81.69,302.34-163.92,453.24-246.37,64.32-35.14,128.17-71.15,192.01-107.18,100.07-56.47,199.97-113.25,299.89-169.98,98.3-55.81,196.51-111.78,294.82-167.57,127.18-72.18,254.22-144.63,381.72-216.25,81.44-45.74,163.61-90.18,245.47-135.17,2.35-1.29,4.91-2.19,8.82-3.91Z"/>
        <path class="cls-2" d="M2129.94,1305.92c0,74.05,0,145.92,0,218.44-12.91,5.21-25.39,10.35-37.96,15.29-23.89,9.39-47.88,18.52-71.72,28.04-11.09,4.43-22.78,8.27-33.04,13.66-12.12,6.37-24.68,9.79-37.22,14.38-62.71,22.93-125.01,46.97-187.4,70.77-67.19,25.63-134.11,52-201.52,77.01-137.91,51.17-275.97,101.95-414.18,152.29-100.48,36.6-201.26,72.36-301.99,108.28-91.49,32.63-183.05,65.06-274.7,97.25-8.2,2.88-17.25,4.7-25.92,4.73-104.25.32-208.51.21-312.76.2-2.3,0-4.61,0-6.91,0-.31-.8-.63-1.6-.94-2.4,4.23-1.93,8.38-4.05,12.7-5.76,63.81-25.31,127.48-50.97,191.49-75.77,158.53-61.41,317.25-122.31,475.82-183.61,142.89-55.23,285.17-112.02,425.53-173.42,152.76-66.82,305.17-134.45,457.28-202.71,109.91-49.32,219.09-100.25,328.61-150.43,4.16-1.91,8.44-3.56,14.83-6.24Z"/>
        <path class="cls-2" d="M-194.76,1048.81c0-4.53,0-9.06,0-13.59,0-309.96-.03-619.93.01-929.89.02-144.24,99.8-274.81,238.72-312.64,29.46-8.02,59.31-12.37,89.97-12.15,62.18.43,124.36.13,186.54.13,4.95,0,9.89,0,17.27,0-3.87,5.21-5.77,8.24-8.12,10.87-53.16,59.79-103.18,122.14-148.81,187.81-27.66,39.81-53.42,80.98-78.95,122.21C48.17,188.32,3.79,279.86-34.34,374.41c-28.35,70.32-50.97,142.59-67.12,216.68-7.62,34.96-12.29,70.56-18.39,105.86-14.37,83.24-27.84,166.65-43.64,249.62-6.6,34.68-18.18,68.42-27.5,102.59-1.26-.12-2.52-.23-3.78-.35Z"/>
        <path class="cls-2" d="M879.23,2064.78c421.72-146.22,834.01-314.48,1251.28-476.55.27,51.24.1,100.92.12,151.68-18.54,5.64-36.28,11.09-54.05,16.43-10.28,3.09-20.47,7.38-30.99,8.55-8.27.92-12.73,8.65-21.86,8.2-8.48-.41-17.23,3.43-25.77,5.71-8.56,2.29-17.01,4.97-25.51,7.48-8.51,2.51-16.98,5.14-25.53,7.5-127.41,35.16-254.61,71.15-382.33,105.15-109.22,29.07-219.03,55.95-328.62,83.61-50.71,12.8-101.4,25.66-152.32,37.6-67.2,15.76-134.6,30.63-201.92,45.85-.35.08-.83-.38-2.51-1.21Z"/>
        <path class="cls-2" d="M2129.82,1807.62c-2.81,30.15-8.87,57.28-18.53,83.68-2.15,5.86-6.79,7.3-11.7,8.7-30.49,8.71-61.03,17.27-91.51,26.06-4.42,1.28-10.6-.02-11.99,7.02-.13.66-3.13.86-4.82,1.1-9.63,1.41-19.53,1.78-28.86,4.3-104.92,28.36-209.75,57.05-314.61,85.64-21.13,5.76-42.35,11.22-63.4,17.28-8.33,2.4-16.23,5.07-24.14,10.02-9.94,6.21-22.68,10.56-35.95,7.72-3.89-.83-8.5-.23-12.34,1.03-27.8,9.13-56.73,13.68-84.9,21.33-28.36,7.69-56.89,14.76-85.47,21.61-8.1,1.94-16.61,2.99-24.93,3.01-87.87.21-175.74.14-263.61.11-3.04,0-6.08-.4-9.3-2.55,29.98-6.27,60.16-11.7,89.89-18.97,104.73-25.63,209.89-49.75,313.78-78.44,151.16-41.74,301.42-86.77,451.96-130.73,72.58-21.2,144.94-43.18,217.41-64.77,3.52-1.05,7.16-1.74,13-3.14Z"/>
        <path class="cls-2" d="M2069.4,1971.35c-9.96,11.59-19.28,23.82-29.99,34.68-64.75,65.61-142.98,100.04-235.6,100.22-68.65.14-137.29.02-205.94.02-5.1,0-10.19,0-15.29,0-.1-.67-.2-1.35-.29-2.02,161.57-45.16,323.15-90.31,484.72-135.47.8.86,1.6,1.71,2.39,2.57Z"/>
        <path class="cls-2" d="M1269.84,604.45c-1.71,2.65-2.9,5.9-5.2,7.86-18.14,15.46-36.22,31.02-54.88,45.84-10.82,8.6-23.15,15.29-33.98,23.88-36.01,28.58-72.38,56.77-107.28,86.66-95.7,81.99-190.72,164.79-286.02,247.25-1.28,1.11-2.74,2.01-4.99,1.96,110.73-102.69,223.83-202.63,341.16-297.69,49.17-39.84,97.36-80.98,148.51-118.31.89.85,1.78,1.7,2.67,2.55Z"/>
        <path class="cls-2" d="M690.41,1695.79c-3.8,3.09-7.25,6.82-11.47,9.17-107.43,59.78-214.58,120.06-322.52,178.9-114.86,62.62-230.48,123.85-345.78,185.66-4.23,2.27-8.62,4.24-12.94,6.35-.39-.87-.78-1.73-1.17-2.6,20.1-10.7,40.29-21.23,60.28-32.14,200.56-109.46,401.07-219,601.63-328.45,10.61-5.79,21.5-11.06,32.26-16.58l-.28-.31Z"/>
        <path class="cls-2" d="M1472.34,1978.32c-4.33,2.23-8.42,5.35-13.01,6.56-71.3,18.78-142.56,37.73-214.06,55.77-54.69,13.8-109.69,26.35-164.53,39.54-6.26,1.51-12.31,3.99-18.61,5.28-28.85,5.93-57.72,11.8-86.66,17.24-9.91,1.86-20.06,2.43-30.36,2.11,177.06-37.07,352.98-78.54,527.42-126.34.05.05-.2-.17-.2-.17Z"/>
        <path class="cls-2" d="M2042.22,1959c-4.83,2.4-9.44,5.57-14.54,7.07-39.41,11.6-78.84,23.12-118.4,34.19-45.83,12.83-91.82,25.1-137.7,37.77-43.13,11.91-86.21,24-129.31,36.04-32.29,9.02-64.5,18.3-96.87,27.02-9.76,2.63-19.92,3.79-29.9,5.63-.24-1-.48-1.99-.72-2.99,12.09-3.47,24.13-7.13,36.29-10.36,58.16-15.47,116.45-30.43,174.5-46.31,73.34-20.06,146.47-40.88,219.72-61.25,32.36-9,64.8-17.71,97.21-26.55l-.28-.25Z"/>
        <path class="cls-2" d="M910.56,1817.61c6.76-3.61,13.25-7.89,20.32-10.73,61.04-24.54,122.47-48.15,183.25-73.33,99.18-41.1,197.95-83.18,296.91-124.83,4.73-1.99,9.5-3.86,14.29-5.76.03.03-.26-.25-.26-.25-3.45,2.67-6.51,6.25-10.39,7.89-108.22,45.64-216.38,91.42-324.86,136.43-55.09,22.86-110.77,44.29-166.21,66.28-4.29,1.7-8.86,2.69-13.3,4l.28.3Z"/>
        <path class="cls-2" d="M965.25,1541.47c-9.74,7-18.96,14.9-29.31,20.83-32.75,18.76-66.17,36.34-98.85,55.21-28.9,16.68-56.56,35.6-86.01,51.19-10.58,5.6-20.99,14.38-34.48,13.79-.01-.01.27.29.27.29,12.04-8.3,23.54-17.56,36.21-24.72,59.4-33.58,119.07-66.66,178.77-99.71,10.94-6.05,22.45-11.08,33.71-16.57.01.01-.31-.31-.31-.31Z"/>
        <path class="cls-2" d="M1270.82,1367.46c-5.27,9.56-15.59,12.76-23.95,18.03-20.38,12.84-41.39,24.73-62.47,36.41-16.14,8.94-32.77,16.99-49.19,25.43l.32.25c1.57-2.1,2.71-4.89,4.78-6.2,22-13.89,43.73-28.28,66.37-41.04,20.96-11.82,42.95-21.82,64.49-32.62,0,0-.35-.27-.35-.27Z"/>
        <path class="cls-2" d="M319.27,861.96c24.43-47.86,48.57-95.63,80.19-140.9-1.04,9.25-64.96,121.83-80.19,140.9Z"/>
        <path class="cls-2" d="M1580.96,1786.57c3.41-2.04,6.61-4.62,10.26-6.05,51.91-20.3,103.87-40.46,155.84-60.6,2.14-.83,4.49-1.14,6.76-1.67.02.02-.25-.27-.25-.27-2.81,2.12-5.32,5.01-8.47,6.24-52.93,20.56-105.93,40.92-158.94,61.26-1.68.64-3.65.54-5.48.78l.28.31Z"/>
        <path class="cls-2" d="M1892.69,1666.2c3.23-2.24,6.17-5.2,9.73-6.62,45.46-18.08,91.01-35.97,136.57-53.82,3.01-1.18,6.31-1.62,9.47-2.4l-.3-.3c-11.13,5.37-22,11.37-33.43,16-35.32,14.3-70.83,28.14-106.33,42.01-5.17,2.02-10.66,3.25-16,4.85l.29.28Z"/>
        <path class="cls-2" d="M1580.68,1786.26c-1.36,1.22-2.52,2.97-4.11,3.58-45.33,17.29-90.69,34.47-136.07,51.61-1.72.65-3.64.76-5.47,1.12l.3.29c4.22-2.51,8.18-5.68,12.69-7.43,40.24-15.65,80.55-31.11,120.91-46.45,3.77-1.43,8-1.65,12.03-2.42.01,0-.27-.3-.27-.3Z"/>
        <path class="cls-2" d="M259.35,824.99c17.4-33.47,34.8-66.93,52.2-100.4,1,.52,2.01,1.04,3.01,1.56-17.48,33.42-34.97,66.84-52.45,100.27-.92-.48-1.84-.96-2.76-1.43Z"/>
        <path class="cls-2" d="M1738.3,1466.93c1.48-1.56,2.67-3.76,4.48-4.58,26.97-12.12,54.02-24.05,81.08-36,.02.03-.26-.26-.26-.26-1.01,1.41-1.7,3.52-3.06,4.12-27.45,12.26-54.97,24.35-82.5,36.45-.02-.02.27.27.27.27Z"/>
        <path class="cls-2" d="M1027.13,708.36c-1.48,2.25-2.54,5.01-4.52,6.68-18.18,15.3-36.52,30.41-54.83,45.55-1.3,1.07-2.78,1.92-5.51,1.3,4.59-4.2,8.96-8.66,13.79-12.54,17.05-13.66,34.26-27.12,51.41-40.66l-.34-.33Z"/>
        <path class="cls-2" d="M1271.16,1367.74c21.08-16.69,45.78-27.06,68.42-41.02.52.77,1.04,1.54,1.56,2.31-4.93,3.56-9.63,7.5-14.82,10.61-11.48,6.89-23.04,13.72-34.91,19.9-6.48,3.37-13.68,5.35-20.57,7.94-.02-.01.32.26.32.26Z"/>
        <path class="cls-2" d="M1910.39,1386.69c-1.79,1.89-3.22,4.54-5.41,5.56-23.52,10.9-47.12,21.64-70.83,32.14-3.14,1.39-6.99,1.2-10.53,1.72-.02-.02.26.27.24.24,28.9-13.17,57.83-26.31,86.79-39.42.03.03-.26-.24-.26-.24Z"/>
        <path class="cls-2" d="M1686.19,1487.92c-1.46,1.61-2.61,3.9-4.43,4.72-21.95,9.94-44,19.68-66.05,29.39-1.21.53-2.73.35-4.11.5l.29.3c1.58-1.48,2.9-3.54,4.77-4.36,23.23-10.19,46.53-20.2,69.82-30.26l-.29-.29Z"/>
        <path class="cls-2" d="M1979.3,1831.88c-2.62,7.72-10.23,7.49-16.03,9.27-18.68,5.75-37.6,10.71-56.43,15.97l.28.23c9.66-3.87,19.19-8.12,29.02-11.51,14.32-4.94,28.86-9.26,43.31-13.85l-.15-.12Z"/>
        <path class="cls-2" d="M1316.88,570.16c-11.29,10.36-23.21,19.9-37.62,26.98q4.17-7.43,15.75-15.77c6.43-4.6,12.97-9.06,19.46-13.59.8.79,1.6,1.58,2.41,2.37Z"/>
        <path class="cls-2" d="M1972.3,1358.82c-8.44,5.29-16.36,11.88-25.45,15.56-11.82,4.79-22.84,12.57-36.43,12.34-.03-.03.27.24.23.21,20.63-9.3,41.29-18.56,61.95-27.82l-.3-.29Z"/>
        <path class="cls-2" d="M1489.7,1574.79c-1.46,1.6-2.61,3.89-4.43,4.7-17.32,7.79-34.7,15.43-52.19,22.83-2.3.97-5.29.33-7.99.41-.03-.03.26.26.23.22,21.52-9.33,43.07-18.63,64.64-27.91.02.03-.27-.26-.27-.26Z"/>
        <path class="cls-2" d="M1256.52,1908.4c-.28.85-.31,2.2-.88,2.48-19.9,9.81-40.84,16.77-61.74,23.84-.31-.85-.63-1.69-.94-2.54,21.25-7.87,42.51-15.74,63.8-23.57.04.04-.24-.21-.24-.21Z"/>
        <path class="cls-2" d="M1686.48,1488.21c14.6-6.8,29.15-13.69,43.84-20.28,2.33-1.05,5.28-.72,7.96-1.01.02.02-.27-.27-.25-.25-15.01,7.03-30,14.13-45.12,20.95-1.89.85-4.44.26-6.7.32-.02-.02.27.27.27.27Z"/>
        <path class="cls-2" d="M1892.4,1665.93c-16.85,6.52-33.7,13.03-50.55,19.55l.28.27c1.96-1.69,3.65-4.02,5.92-4.96,11.61-4.79,23.32-9.39,35.13-13.68,2.89-1.05,6.3-.67,9.49-.93.02.02-.26-.26-.26-.26Z"/>
        <path class="cls-2" d="M1611.6,1522.53c-16.75,7.58-33.5,15.15-50.26,22.73l.3.28c.29-.81.36-2.13.89-2.35,16.41-6.86,32.87-13.61,49.34-20.36.01.01-.28-.29-.28-.29Z"/>
        <path class="cls-2" d="M1584.78,1947.73c-4.38,2.19-8.57,4.98-13.18,6.45-11.43,3.63-23.05,6.65-34.66,9.87-.06-.05.19.13.19.13,3.4-2.02,6.56-4.83,10.23-5.93,12.47-3.75,25.12-6.91,37.71-10.29l-.28-.23Z"/>
        <path class="cls-2" d="M1561.35,1545.25c-15.04,6.46-30.08,12.91-45.13,19.37l.28.3c13.64-9.7,28.51-16.56,45.12-19.4.02.02-.28-.26-.28-.26Z"/>
        <path class="cls-2" d="M1013.97,1512.87c8.64-4.94,17.27-9.87,25.91-14.81.48.78.95,1.57,1.43,2.35-8.5,5.14-17,10.28-25.5,15.41-.61-.98-1.23-1.97-1.84-2.95Z"/>
        <path class="cls-2" d="M1789.95,1703.89c-.26.84-.27,2.17-.82,2.45-11.2,5.82-22.4,11.71-35.54,11.65-.02-.02.25.27.24.25,12.11-4.72,24.24-9.42,36.39-14.09.02.02-.26-.26-.26-.26Z"/>
        <path class="cls-2" d="M691.65,1001.92c6.95-6.58,13.89-13.16,20.84-19.74.55.57,1.1,1.14,1.64,1.71-7.08,6.65-14.17,13.29-21.25,19.94-.41-.64-.82-1.27-1.23-1.91Z"/>
        <path class="cls-2" d="M860.03,1837.17c11.72-5.06,23.43-10.12,35.17-15.16.02.02-.26-.26-.26-.26-9.88,9.36-22.86,11.48-35.2,15.11l.29.31Z"/>
        <path class="cls-2" d="M1841.85,1685.48c-12.14,4.69-24.29,9.39-36.43,14.08,0,0,.3.29.3.29,10.67-8.47,22.94-12.8,36.4-14.12.02.02-.27-.26-.27-.26Z"/>
        <path class="cls-2" d="M830.9,876.82c-8.27,7.54-16.53,15.07-24.8,22.61,0,0,.28.29.28.29,8.27-7.53,16.55-15.07,24.82-22.6,0,0-.31-.31-.31-.31Z"/>
        <path class="cls-2" d="M806.1,899.44c-3.31,3.71-6.41,7.65-10,11.06-3.78,3.6-8.04,6.69-12.09,10.01-.64-.81-1.28-1.63-1.91-2.45,8.09-6.11,16.19-12.23,24.28-18.34,0,0-.28-.29-.28-.29Z"/>
        <path class="cls-2" d="M754.57,943.87c6.55-5.97,13.09-11.94,19.64-17.92.64.69,1.29,1.38,1.93,2.06-6.56,5.95-13.12,11.91-19.69,17.86-.63-.67-1.25-1.34-1.88-2.01Z"/>
        <path class="cls-2" d="M752.21,1039.45c5.43-5.2,10.87-10.4,16.3-15.6.66.66,1.33,1.32,1.99,1.97-5.22,5.41-10.62,10.64-18.29,13.62Z"/>
        <path class="cls-2" d="M742.23,958.65c-5.48,5.03-10.95,10.06-16.43,15.09-.62-.64-1.23-1.29-1.85-1.93,5.39-5.06,10.78-10.13,16.17-15.19.7.68,1.4,1.36,2.1,2.04Z"/>
        <path class="cls-2" d="M831.21,877.13c6.17-6.34,12.33-12.68,18.5-19.01.86,1.01,1.72,2.02,2.58,3.03-7.13,5.23-14.25,10.45-21.38,15.68,0,0,.3.3.3.3Z"/>
        <path class="cls-2" d="M1503.28,1970c-8.97,7.63-19.38,9.97-30.89,8.36-.04-.04.2.17.15.13,10.3-2.79,20.65-5.53,31.01-8.27l-.26-.21Z"/>
        <path class="cls-2" d="M690.7,1696.09c8.71-4.44,17.43-8.89,26.16-13.32.01,0-.27-.29-.26-.28-7.93,5.98-15.56,12.56-26.17,13.31-.01-.01.27.3.27.3Z"/>
        <path class="cls-2" d="M1503.54,1970.22c11.21-1.78,21.46-8.77,33.53-6.08.05.04-.2-.13-.13-.09-6.65,1.79-13.3,3.85-20.09,5.17-4.39.85-8.98.61-13.53.82-.04-.04.22.18.22.18Z"/>
        <path class="cls-2" d="M1749.64,1899.48c-5.25,7.76-14.19,6.41-21.94,7.94,7.39-2.59,14.78-5.18,22.16-7.76l-.22-.18Z"/>
        <path class="cls-2" d="M724.78,1063.98c4.16-3.74,8.32-7.48,12.47-11.21.49.54.98,1.08,1.46,1.62-4.14,3.86-8.29,7.73-12.43,11.59-.5-.66-1.01-1.33-1.51-1.99Z"/>
        <path class="cls-2" d="M899.06,818.39c4.98-5.47,9.97-10.95,14.95-16.42.84.94,1.68,1.87,2.52,2.81-5.93,4.43-11.86,8.87-17.79,13.3l.31.31Z"/>
        <path class="cls-2" d="M898.75,818.08c-5.26,5.33-10.52,10.65-15.78,15.98-.8-.96-1.6-1.92-2.4-2.88,6.16-4.26,12.32-8.53,18.49-12.79,0,0-.3-.31-.3-.31Z"/>
        <path class="cls-2" d="M940.12,781.18c-4.84,5.48-9.68,10.97-14.52,16.45-.85-.88-1.71-1.77-2.56-2.65,5.8-4.5,11.59-8.99,17.39-13.49l-.31-.31Z"/>
        <path class="cls-2" d="M874.16,841.04c-4.67,4.15-9.33,8.3-14,12.45-.6-.67-1.21-1.34-1.81-2.02,4.69-4.12,9.37-8.25,14.06-12.37.58.65,1.16,1.29,1.74,1.94Z"/>
        <path class="cls-2" d="M1516.22,1564.62c-8.22,4.97-16.01,11.05-26.5,10.2-.02-.02.27.27.24.24,8.82-3.4,17.67-6.78,26.52-10.15.01.01-.27-.29-.27-.29Z"/>
        <path class="cls-2" d="M902.14,2039.09c6.76-3.26,13.51-6.53,20.27-9.79.45,1.13.91,2.27,1.36,3.4-6.8,3.47-13.83,6.29-21.96,6.05l.33.34Z"/>
        <path class="cls-2" d="M1357.31,1317.9c4.13-2.64,8.26-5.28,12.39-7.92.4.63.81,1.26,1.21,1.89-4.13,2.64-8.25,5.27-12.38,7.91-.4-.63-.81-1.26-1.21-1.88Z"/>
        <path class="cls-2" d="M1419.62,1847.03c-6.88,3.34-13.76,6.68-20.68,9.99-.04-.04.26.22.26.22,6.89-3.32,13.78-6.64,20.68-9.94.02.02-.27-.27-.27-.27Z"/>
        <path class="cls-2" d="M1376.38,1865.27c6.51-5.72,13.82-9.18,22.79-8.06.03.03-.27-.23-.23-.19-7.58,2.69-15.2,5.34-22.84,7.97-.02-.02.28.27.28.27Z"/>
        <path class="cls-2" d="M713.18,1001.34c-3.16,2.79-6.32,5.58-9.48,8.37-.4-.45-.8-.9-1.21-1.35,3.17-2.78,6.33-5.56,9.5-8.35.4.44.79.89,1.19,1.33Z"/>
        <path class="cls-2" d="M1360.56,1869.34c-6.95,3.27-13.9,6.54-20.85,9.8,0,0,.31.3.31.3,6.95-3.27,13.89-6.54,20.84-9.81l-.3-.29Z"/>
        <path class="cls-2" d="M736.46,2047.09c4.89-1.6,9.79-3.2,14.68-4.8.17.49.35.98.52,1.46-4.83,1.82-9.66,3.63-14.49,5.45-.24-.7-.48-1.4-.72-2.11Z"/>
        <path class="cls-2" d="M743.9,973.46c-2.97,2.69-5.94,5.38-8.91,8.08-.47-.46-.94-.91-1.41-1.37,3.05-2.87,6.11-5.74,9.16-8.61.38.64.77,1.27,1.15,1.91Z"/>
        <path class="cls-2" d="M984.51,1529.97c-3.6,8.53-11.35,10.14-19.25,11.51-.01-.01.31.31.3.3,6.42-3.85,12.86-7.69,19.3-11.53l-.35-.28Z"/>
        <path class="cls-2" d="M1073.02,2029.13c-5,1.47-10,2.95-15,4.42-.22-.85-.45-1.71-.67-2.56,5.07-1.23,10.13-2.46,15.2-3.69.16.61.31,1.23.47,1.84Z"/>
        <path class="cls-2" d="M1279.31,1900.23c-5.97,7.16-13.65,9.62-22.76,8.21-.04-.03.25.22.21.18,7.58-2.72,15.2-5.41,22.83-8.09l-.28-.3Z"/>
        <path class="cls-2" d="M809.98,1857.27c4.88-7.68,13.11-8.23,20.86-9.79l-.29-.3c-6.93,3.3-13.86,6.59-20.84,9.85-.04-.04.26.24.26.24Z"/>
        <path class="cls-2" d="M288.87,802.62c-2.36,4.16-4.77,8.42-7.19,12.69-.6-.31-1.2-.63-1.81-.94,2.28-4.15,4.55-8.3,6.87-12.43.19-.33.82-.69,1.12-.61.35.09.56.68,1.01,1.29Z"/>
        <path class="cls-2" d="M940.43,781.49c4.38-4.28,8.77-8.57,13.15-12.85-2.76,6.22-6.18,11.74-13.45,12.55-.01,0,.3.3.3.3Z"/>
        <path class="cls-2" d="M1027.46,708.69c3.86-4.35,7.73-8.7,11.59-13.05.86.99,1.73,1.98,2.59,2.96-4.83,3.25-9.67,6.51-14.51,9.76,0,0,.33.33.33.33Z"/>
        <path class="cls-2" d="M763.45,1578.21c-4.74,3.9-9.48,7.8-14.22,11.7-.69-.99-1.37-1.97-2.06-2.96,4.59-4.29,9.85-7.52,16.63-8.38l-.34-.36Z"/>
        <path class="cls-2" d="M763.79,1578.57c4.92-3.64,9.84-7.27,14.76-10.91-3.13,6.57-8.33,9.86-15.09,10.55,0,0,.33.36.33.36Z"/>
        <path class="cls-2" d="M972.58,2050.56c4.54-1.27,9.08-2.55,13.62-3.82.18.56.35,1.13.53,1.69-2.45.79-4.87,1.68-7.35,2.36-2.11.57-4.28.89-6.42,1.33-.12-.52-.25-1.03-.37-1.55Z"/>
        <path class="cls-2" d="M1607.47,1944.66c5.47-2.76,10.93-5.53,16.4-8.29l-.25-.18c-5.41,2.8-10.82,5.61-16.31,8.37-.07-.05.16.11.16.11Z"/>
        <path class="cls-2" d="M1585.06,1947.96c7.43-1.13,14.85-2.26,22.34-3.35.06.04-.17-.11-.1-.06-7.44,1.11-14.95,2.18-22.49,3.21-.04-.03.25.2.25.2Z"/>
        <path class="cls-2" d="M1836.69,1874.4c-3.67,7.03-11.04,5.86-17.06,7.69l.31.27c5.66-2.6,11.32-5.21,16.98-7.81l-.23-.15Z"/>
        <path class="cls-2" d="M1906.85,1857.12c-6.6,1.82-13.2,3.63-19.8,5.45,0,0,.3.27.3.27,5.65-5.12,12.05-7.56,19.74-5.52.04.03-.24-.19-.24-.19Z"/>
        <path class="cls-2" d="M761.48,955.45c2.54-1.91,5.08-3.83,7.63-5.74.38.37.75.73,1.13,1.1-2.62,1.84-5.23,3.68-7.85,5.52-.3-.29-.6-.58-.91-.87Z"/>
        <path class="cls-2" d="M1819.62,1882.09c-5.29,1.72-10.58,3.43-15.87,5.14-.21-1.01-.41-2.02-.62-3.02,5.58-.63,11.16-1.27,16.77-1.87.03.03-.28-.25-.28-.25Z"/>
        <path class="cls-2" d="M1749.86,1899.65c5.37-1.15,10.74-2.3,18.87-4.03-7.41,5.41-12.83,6.42-19.03,3.91-.07-.05.15.12.15.12Z"/>
        <path class="cls-2" d="M1836.92,1874.55c5.34-1.15,10.67-2.3,16.01-3.46.09.68.18,1.35.26,2.03-5.46.46-10.92.91-16.44,1.32-.06-.04.17.11.17.11Z"/>
        <path class="cls-2" d="M1647.03,1933.56c3.93-2.59,7.87-5.17,11.8-7.76.39.77.79,1.55,1.18,2.32-4.34,1.8-8.68,3.61-13.1,5.36-.08-.05.13.07.13.07Z"/>
        <path class="cls-2" d="M1623.87,1936.36c7.68-.97,15.35-1.93,23.09-2.85.07.04-.14-.08-.06-.03-7.67.96-15.42,1.88-23.23,2.75-.06-.04.19.13.19.13Z"/>
        <path class="cls-2" d="M1887.05,1862.57c-5.09,1.59-10.17,3.17-15.26,4.76-.17-1.01-.34-2.02-.51-3.03,5.34-.51,10.67-1.01,16.04-1.49.03.03-.27-.24-.27-.24Z"/>
        <path class="cls-2" d="M733.86,1016.51c2.04-1.9,4.08-3.81,6.12-5.71.36.38.72.77,1.08,1.15-2.06,1.87-4.12,3.75-6.18,5.62-.34-.36-.69-.71-1.03-1.07Z"/>
        <path class="cls-2" d="M1699.58,1917.07c-3.43,1.17-6.85,2.34-10.28,3.51-.23-.61-.47-1.22-.7-1.83,3.15-1.2,6.3-2.4,9.45-3.6.51.64,1.02,1.27,1.53,1.91Z"/>
        <path class="cls-2" d="M1596.35,2050.71c2.2-1.24,4.39-2.48,6.59-3.72.4.66.8,1.32,1.21,1.98-2.16,1.26-4.32,2.52-6.48,3.78-.44-.68-.88-1.36-1.32-2.03Z"/>
        <path class="cls-2" d="M42.62,1988.24c-2.36,1.36-4.72,2.72-7.09,4.08-.27-.48-.55-.96-.82-1.44,2.37-1.34,4.74-2.69,7.11-4.03.26.46.53.93.79,1.39Z"/>
        <path class="cls-2" d="M984.86,1530.25c3.59-2.12,7.17-4.24,10.76-6.36.38.96.76,1.92,1.14,2.87-4.06,1.08-8.13,2.16-12.22,3.22-.03-.02.32.26.32.26Z"/>
        <path class="cls-2" d="M1246.31,532.43c1.6-1.67,3.2-3.35,7.08-7.41-2.5,5.35-3.55,7.6-4.6,9.85-.82-.81-1.65-1.62-2.47-2.44Z"/>
        <path class="cls-2" d="M322.85,1831.75c-2.46,1.36-4.92,2.71-7.39,4.07-.31-.57-.61-1.15-.92-1.72,2.53-1.4,5.07-2.8,7.6-4.2.24.62.47,1.23.71,1.85Z"/>
        <path class="cls-2" d="M324.89,707.03c-1.35,2.49-2.7,4.98-4.05,7.48-.51-.27-1.03-.53-1.54-.8,1.28-2.52,2.56-5.03,3.84-7.55.58.29,1.16.58,1.75.88Z"/>
        <path class="cls-2" d="M1079.01,1476.35c2.21-.74,4.42-1.47,6.63-2.21-1.85,1.53-3.71,3.06-5.56,4.59-.36-.79-.71-1.59-1.07-2.38Z"/>
        <path class="cls-2" d="M168.71,1918.18c-2.34,1.3-4.68,2.6-7.02,3.89-.25-.48-.49-.96-.74-1.45,2.33-1.33,4.66-2.65,6.98-3.98.26.51.52,1.02.78,1.53Z"/>
        <path class="cls-2" d="M1215.77,580.28c-2.12,1.38-4.24,2.75-6.37,4.13-.47-.65-.94-1.31-1.41-1.96,2-1.5,4-3,6-4.5.59.78,1.18,1.56,1.77,2.33Z"/>
        <path class="cls-2" d="M1229.1,569.8c-1.6,1.08-3.19,2.16-4.79,3.23-.61-.98-1.21-1.97-1.82-2.95,1.81-.8,3.63-1.59,5.44-2.39.39.7.78,1.41,1.17,2.11Z"/>
        <path class="cls-2" d="M1360.86,1869.63c5.16-1.46,10.32-2.93,15.5-4.37.02.02-.28-.28-.26-.26-5.15,1.48-10.32,2.94-15.51,4.37-.03-.03.27.26.27.26Z"/>
        <path class="cls-2" d="M970.02,1740.02c-2.39,2.23-4.77,4.46-7.16,6.7-.43-.65-.85-1.3-1.28-1.95,2.91-1.52,5.82-3.04,8.73-4.57l-.29-.18Z"/>
        <path class="cls-2" d="M934.18,1757.17c-2.3,1.02-4.61,2.04-6.91,3.06-.27-.57-.54-1.15-.81-1.72,2.18-1.14,4.36-2.27,6.54-3.41.39.69.79,1.38,1.18,2.07Z"/>
        <path class="cls-2" d="M1117.33,1960.92c2.6-1.1,5.21-2.21,7.81-3.31.21.5.43,1.01.64,1.51-2.6,1.12-5.2,2.24-7.8,3.37-.22-.52-.43-1.04-.65-1.57Z"/>
        <path class="cls-2" d="M1079.83,1698.1c-1.9,1.09-3.79,2.18-5.69,3.28-.27-.45-.54-.89-.81-1.34,1.91-1.07,3.83-2.13,5.74-3.2.25.42.5.84.76,1.26Z"/>
        <path class="cls-2" d="M755.56,1877.93c-2.43,1.18-4.86,2.36-7.3,3.55-.26-.58-.52-1.16-.78-1.74,2.47-1.1,4.93-2.21,7.39-3.31.23.5.45,1,.68,1.5Z"/>
        <path class="cls-2" d="M818.98,1804.29c2.4-2.32,4.8-4.64,7.2-6.96.47.64.94,1.28,1.41,1.92-2.96,1.61-5.92,3.23-8.87,4.84,0,0,.27.2.27.2Z"/>
        <path class="cls-2" d="M766.76,1593.46c-2.44,2.51-3.63,3.74-4.83,4.97.14-1.22.06-2.54.53-3.61.22-.5,1.51-.53,4.3-1.36Z"/>
        <path class="cls-2" d="M764.22,988.69c1.36-.98,2.73-1.95,4.09-2.93.3.42.6.85.91,1.27-1.35,1-2.7,2-4.05,2.99-.32-.44-.63-.89-.95-1.33Z"/>
        <path class="cls-2" d="M818.71,1804.09c-3.46,1.01-6.91,2.03-10.37,3.04-.08-.53-.16-1.05-.24-1.58,3.58-.45,7.16-.91,10.81-1.31.06.05-.2-.15-.2-.15Z"/>
        <path class="cls-2" d="M830.84,1847.48c4.51-2.06,9.02-4.11,13.57-6.13.04.04-.25-.23-.25-.23-2.91,5.64-7.74,6.99-13.6,6.08-.02-.01.28.29.28.29Z"/>
        <path class="cls-2" d="M910.29,1817.32c-5.1,1.49-10.2,2.98-15.33,4.45-.02-.02.26.26.24.24,5.09-1.49,10.21-2.96,15.34-4.41.02.02-.26-.28-.26-.28Z"/>
        <path class="cls-2" d="M1305.29,1890.64c2.48-1.11,4.97-2.22,7.45-3.33.36.51.72,1.02,1.08,1.53-1.13.72-2.18,1.64-3.4,2.1-1.5.57-3.15.75-4.74,1.1-.13-.47-.26-.94-.39-1.4Z"/>
        <path class="cls-2" d="M1135.21,1447.34c-2.6,1.31-5.21,2.63-7.81,3.94-.29-.95-.59-1.91-.88-2.86,2.98-.29,5.96-.59,8.97-.85.04.03-.28-.22-.28-.22Z"/>
        <path class="cls-2" d="M1279.59,1900.53c3.57-1.51,7.13-3.03,10.7-4.54.25.87.49,1.73.74,2.6-3.89.56-7.79,1.13-11.7,1.67-.02-.02.26.28.26.28Z"/>
        <path class="cls-2" d="M859.74,1836.86c-4.57,3.6-9.34,6.47-15.54,4.28-.03-.03.26.24.22.2,5.17-1.43,10.38-2.81,15.6-4.19.01.01-.28-.3-.28-.3Z"/>
        <path class="cls-2" d="M1435.02,1842.56c-5.12,1.5-10.24,3.01-15.38,4.49-.02-.02.27.27.25.25,5.12-1.51,10.26-2.99,15.41-4.46.02.02-.28-.28-.28-.28Z"/>
        <path class="cls-2" d="M901.81,2038.75c-3.39,1.76-6.78,3.52-10.16,5.28-.29-.85-.58-1.7-.86-2.55,3.78-.81,7.55-1.61,11.34-2.4.01.01-.32-.33-.32-.33Z"/>
        <path class="cls-2" d="M1339.72,1879.15c-3.57,1.59-7.15,3.18-10.72,4.77-.24-.83-.48-1.66-.71-2.49,3.9-.67,7.8-1.35,11.72-2,.02.02-.28-.27-.28-.27Z"/>
        <path class="cls-2" d="M795.98,1862.85c3.21-5.42,7.85-7.33,13.97-5.62.03.03-.27-.25-.23-.21-4.66,1.88-9.35,3.71-14.05,5.55l.31.27Z"/>
        <path class="cls-2" d="M840.36,2010.87c2.3-.87,4.61-1.75,6.91-2.62.18.43.37.87.55,1.3-2.14,1.09-4.28,2.17-6.42,3.26-.35-.65-.7-1.29-1.05-1.94Z"/>
        <path class="cls-2" d="M1095.34,1970.49c-2.61,1.1-5.22,2.21-7.83,3.31-.22-.53-.43-1.06-.65-1.59,2.62-1.09,5.23-2.17,7.85-3.26.21.51.42,1.02.63,1.53Z"/>
        <path class="cls-2" d="M1148.08,1949.66c2.68-1.14,5.37-2.28,8.05-3.42.23.56.46,1.13.69,1.69-2.7,1.1-5.39,2.2-8.09,3.3-.22-.52-.43-1.05-.65-1.57Z"/>
        <path class="cls-2" d="M795.67,1862.58c-3.6,1.45-7.2,2.89-10.8,4.34-.22-.84-.44-1.68-.66-2.52,3.9-.54,7.8-1.07,11.74-1.58.03.03-.27-.24-.27-.24Z"/>
        <path class="cls-2" d="M1179.83,1939.6c-2.71,1.12-5.42,2.25-8.13,3.37-.23-.56-.46-1.12-.69-1.68,2.72-1.11,5.43-2.22,8.15-3.32.22.55.44,1.09.67,1.64Z"/>
        <path class="cls-2" d="M970.32,1740.2c3.37-1.09,6.74-2.17,10.11-3.26.1.49.19.98.29,1.47-3.53.56-7.06,1.13-10.64,1.65-.05-.04.24.14.24.14Z"/>
        <path class="cls-2" d="M1805.42,1699.56c-5.14,1.46-10.28,2.91-15.44,4.35-.02-.02.26.27.24.24,5.14-1.46,10.3-2.9,15.48-4.32.02.02-.28-.27-.28-.27Z"/>
        <path class="cls-2" d="M793.96,928.51c-3.19,2.83-4.37,3.88-5.56,4.93.33-1.01.5-2.12,1.05-2.99.32-.5,1.26-.59,4.51-1.94Z"/>
      </g>
    </g>
  </g>
</svg>