<?xml version="1.0" encoding="UTF-8"?>
<svg id="Capa_2" xmlns="http://www.w3.org/2000/svg" viewBox="0 0 84.72 84.72">
  <defs>
    <style>
      .cls-1 {
        fill: #efdec7;
      }

      .cls-2 {
        fill: #001038;
      }
    </style>
  </defs>
  <g id="Capa_1-2" data-name="Capa_1">
    <g>
      <rect class="cls-2" x="0" width="84.72" height="84.72" rx="12.43" ry="12.43"/>
      <g>
        <path class="cls-1" d="M65.33,25.82H19.39c-.51,0-.92-.41-.92-.92v-6.74c0-3.88,3.16-7.04,7.04-7.04h33.69c3.88,0,7.04,3.16,7.04,7.04v6.74c0,.51-.41.92-.92.92ZM20.31,23.98h44.11v-5.82c0-2.87-2.34-5.21-5.21-5.21H25.52c-2.87,0-5.21,2.34-5.21,5.21v5.82Z"/>
        <path class="cls-1" d="M57.98,73.6h-31.24c-4.56,0-8.27-3.71-8.27-8.27V24.9c0-.51.41-.92.92-.92h45.94c.51,0,.92.41.92.92v40.43c0,4.56-3.71,8.27-8.27,8.27ZM20.31,25.82v39.51c0,3.55,2.89,6.43,6.43,6.43h31.24c3.55,0,6.43-2.89,6.43-6.43V25.82H20.31Z"/>
        <path class="cls-1" d="M52.47,73.6c-.51,0-.92-.41-.92-.92v-34.92c0-3.55-2.89-6.43-6.43-6.43h-13.78c-3.55,0-6.43,2.89-6.43,6.43v34.38c0,.51-.41.92-.92.92s-.92-.41-.92-.92v-34.38c0-4.56,3.71-8.27,8.27-8.27h13.78c4.56,0,8.27,3.71,8.27,8.27v34.92c0,.51-.41.92-.92.92Z"/>
        <path class="cls-1" d="M38.23,73.6c-.51,0-.92-.41-.92-.92V30.42c0-.51.41-.92.92-.92s.92.41.92.92v42.27c0,.51-.41.92-.92.92Z"/>
        <path class="cls-1" d="M65.33,46.04h-12.86c-.51,0-.92-.41-.92-.92v-3.68c0-.51.41-.92.92-.92h12.86c.51,0,.92.41.92.92v3.68c0,.51-.41.92-.92.92ZM53.39,44.2h11.03v-1.84h-11.03v1.84Z"/>
        <path class="cls-1" d="M65.33,64.42h-12.86c-.51,0-.92-.41-.92-.92v-3.68c0-.51.41-.92.92-.92h12.86c.51,0,.92.41.92.92v3.68c0,.51-.41.92-.92.92ZM53.39,62.58h11.03v-1.84h-11.03v1.84Z"/>
      </g>
    </g>
  </g>
</svg>