<?xml version="1.0" encoding="UTF-8"?>
<svg id="Capa_2" xmlns="http://www.w3.org/2000/svg" viewBox="0 0 84.72 84.72">
  <defs>
    <style>
      .cls-1 {
        fill: #efdec7;
      }

      .cls-2 {
        fill: #001038;
      }
    </style>
  </defs>
  <g id="Capa_1-2" data-name="Capa_1">
    <g>
      <rect class="cls-2" x="0" width="84.72" height="84.72" rx="12.43" ry="12.43"/>
      <g>
        <path class="cls-1" d="M63.71,68.83H21.02c-4.24,0-7.68-3.45-7.68-7.68v-24.76c0-.47.38-.85.85-.85h16.22c.47,0,.85.38.85.85s-.38.85-.85.85h-15.37v23.91c0,3.3,2.68,5.98,5.98,5.98h42.69c3.3,0,5.98-2.68,5.98-5.98v-23.91h-13.66c-.47,0-.85-.38-.85-.85s.38-.85.85-.85h14.51c.47,0,.85.38.85.85v24.76c0,4.24-3.45,7.68-7.68,7.68Z"/>
        <path class="cls-1" d="M70.54,37.24c-.47,0-.85-.38-.85-.85v-4.84c0-2.04-1.66-3.7-3.7-3.7h-9.96c-.47,0-.85-.38-.85-.85s.38-.85.85-.85h9.96c2.98,0,5.41,2.43,5.41,5.41v4.84c0,.47-.38.85-.85.85Z"/>
        <path class="cls-1" d="M51.75,27.85h-17.08c-.47,0-.85-.38-.85-.85s.38-.85.85-.85h17.08c.47,0,.85.38.85.85s-.38.85-.85.85Z"/>
        <path class="cls-1" d="M30.41,37.24H14.19c-.47,0-.85-.38-.85-.85v-4.84c0-2.98,2.43-5.41,5.41-5.41h11.67c.47,0,.85.38.85.85s-.38.85-.85.85h-11.67c-2.04,0-3.7,1.66-3.7,3.7v3.98h15.37c.47,0,.85.38.85.85s-.38.85-.85.85Z"/>
        <path class="cls-1" d="M30.41,54.56c-.47,0-.85-.38-.85-.85v-29.28c0-1.41-1.15-2.56-2.56-2.56s-2.56,1.15-2.56,2.56v2.56c0,.47-.38.85-.85.85s-.85-.38-.85-.85v-2.56c0-2.36,1.91-4.27,4.27-4.27s4.27,1.92,4.27,4.27v29.28c0,.47-.38.85-.85.85Z"/>
        <path class="cls-1" d="M34.68,54.45c-.47,0-.85-.38-.85-.85v-29.17c0-3.78-3.05-6.83-6.83-6.83s-6.83,3.06-6.83,6.83v2.56c0,.47-.38.85-.85.85s-.85-.38-.85-.85v-2.56c0-4.71,3.83-8.54,8.54-8.54s8.54,3.82,8.54,8.54v29.17c0,.47-.38.85-.85.85Z"/>
        <path class="cls-1" d="M51.75,54.32c-.47,0-.85-.38-.85-.85v-29.03c0-1.41-1.15-2.56-2.56-2.56s-2.56,1.15-2.56,2.56v2.56c0,.47-.38.85-.85.85s-.85-.38-.85-.85v-2.56c0-2.36,1.91-4.27,4.27-4.27s4.27,1.92,4.27,4.27v29.03c0,.47-.38.85-.85.85Z"/>
        <path class="cls-1" d="M56.02,55.15c-.47,0-.85-.38-.85-.85v-29.87c0-3.78-3.05-6.83-6.83-6.83s-6.83,3.06-6.83,6.83v2.56c0,.47-.38.85-.85.85s-.85-.38-.85-.85v-2.56c0-4.71,3.83-8.54,8.54-8.54s8.54,3.82,8.54,8.54v29.87c0,.47-.38.85-.85.85Z"/>
        <path class="cls-1" d="M51.75,38.09h-17.08c-.47,0-.85-.38-.85-.85v-4.27c0-.47.38-.85.85-.85h17.08c.47,0,.85.38.85.85v4.27c0,.47-.38.85-.85.85ZM35.53,36.39h15.37v-2.56h-15.37v2.56Z"/>
        <path class="cls-1" d="M51.75,48.34h-17.08c-.47,0-.85-.38-.85-.85v-4.27c0-.47.38-.85.85-.85h17.08c.47,0,.85.38.85.85v4.27c0,.47-.38.85-.85.85ZM35.53,46.63h15.37v-2.56h-15.37v2.56Z"/>
        <path class="cls-1" d="M61.43,56.59c-2.99,0-4.24-.83-5.76-1.51-1.02-.46-2.06-.76-3.78-.76-.04,0-.09,0-.13,0-2.1.02-3.15.52-4.27,1.05-1.26.6-2.56,1.22-5.14,1.22-4.27,0-4.99-1.69-7.82-2.15-1.14-.18-2.71-.18-3.94.1-2.39.55-3.31,2.05-7.31,2.05-2.58,0-3.88-.62-5.14-1.22-1.07-.51-2.07-.99-4-1.05-.47-.01-.84-.41-.83-.88.01-.48.42-.85.88-.83,2.28.07,3.5.65,4.68,1.21,1.14.54,2.21,1.06,4.4,1.06,3.58,0,4.2-1.38,6.92-2.01,1.45-.34,3.24-.34,4.6-.12,3.24.53,3.7,2.13,7.55,2.13,2.19,0,3.26-.51,4.4-1.06,1.23-.59,2.5-1.2,4.98-1.22.05,0,.1,0,.15,0,2.14,0,3.42.44,4.48.91,1.44.65,2.47,1.36,5.06,1.36,2.19,0,3.26-.51,4.4-1.05,1.18-.56,2.4-1.15,4.68-1.21.46-.02.86.34.88.83.01.47-.36.86-.83.88-1.92.06-2.93.54-4,1.05-1.26.6-2.56,1.22-5.13,1.22Z"/>
        <path class="cls-1" d="M61.43,62.57c-2.58,0-3.88-.62-5.14-1.22-1.14-.54-2.21-1.06-4.4-1.06s-3.26.51-4.4,1.05c-1.26.6-2.56,1.22-5.14,1.22s-3.88-.62-5.13-1.22c-1.14-.54-2.21-1.06-4.4-1.06s-3.26.51-4.4,1.06c-1.26.6-2.56,1.22-5.13,1.22s-3.88-.62-5.14-1.22c-1.07-.51-2.07-.99-4-1.05-.47-.01-.84-.41-.83-.88.01-.47.41-.85.88-.83,2.28.07,3.5.65,4.68,1.21,1.14.54,2.21,1.06,4.4,1.06s3.26-.51,4.4-1.05c1.26-.6,2.56-1.22,5.14-1.22s3.88.62,5.13,1.22c1.14.54,2.21,1.06,4.4,1.06s3.26-.51,4.4-1.06c1.26-.6,2.56-1.22,5.13-1.22s3.88.62,5.14,1.22c1.14.54,2.21,1.06,4.4,1.06s3.26-.51,4.4-1.05c1.18-.56,2.4-1.15,4.68-1.21.46-.02.86.34.88.83.01.47-.36.86-.83.88-1.92.06-2.93.54-4,1.05-1.26.6-2.56,1.22-5.13,1.22Z"/>
      </g>
    </g>
  </g>
</svg>