<?xml version="1.0" encoding="UTF-8"?>
<svg id="Capa_2" xmlns="http://www.w3.org/2000/svg" viewBox="0 0 84.72 84.72">
  <defs>
    <style>
      .cls-1 {
        fill: #efdec7;
      }

      .cls-2 {
        fill: #001038;
      }
    </style>
  </defs>
  <g id="Capa_1-2" data-name="Capa_1">
    <g>
      <rect class="cls-2" x="0" width="84.72" height="84.72" rx="12.43" ry="12.43"/>
      <g id="zwGx3t.tif">
        <g>
          <path class="cls-1" d="M15.32,40.14c.31-.71.88-.91,1.6-.89,1.11.02,2.22,0,3.33.01.39,0,.54-.11.45-.5-.03-.11-.04-.23-.04-.35.02-1.03-.27-1.78-1.26-2.4-1.17-.74-1.47-2.33-1.01-3.68.46-1.34,1.67-2.21,3.26-2.32.12,0,.23,0,.35,0,13.58,0,27.16,0,40.74,0,1.44,0,2.63.48,3.37,1.79.95,1.69.34,3.82-1.39,4.7-.38.19-.49.41-.5.79-.02.5-.08,1.01-.17,1.51-.07.38.06.47.42.46,1.19-.02,2.37-.02,3.56,0,.78,0,1.25.35,1.36.93.15.78-.35,1.38-1.23,1.39-1.3.03-2.61.04-3.91,0-.59-.02-.84.16-1.01.73-1.48,4.73-4.3,8.49-8.31,11.37-.5.36-1.04.68-1.58.99-.28.16-.38.3-.2.63,2.55,4.76,5.09,9.53,7.62,14.3.13.24.28.34.55.32.33-.02.66-.01.99,0,.78.03,1.27.47,1.28,1.15,0,.68-.48,1.17-1.24,1.18-1.58.02-3.15.02-4.73,0-.76,0-1.28-.5-1.29-1.15,0-.65.52-1.14,1.27-1.17.19,0,.39,0,.57,0,.09-.22-.07-.36-.14-.5-1.24-2.34-2.49-4.66-3.72-7-.17-.33-.36-.47-.76-.47-7.35.01-14.71.01-22.06.01-.27,0-.51-.03-.68.29-1.3,2.48-2.62,4.94-3.94,7.41-.03.06-.05.14-.08.23.2.01.38,0,.55.03.66.09,1.08.56,1.07,1.17,0,.61-.44,1.08-1.11,1.13-.43.03-.86.01-1.28.01-1.17,0-2.33,0-3.5,0-.84,0-1.38-.49-1.36-1.19.02-.68.56-1.23,1.35-1.11,1.25.18,1.82-.38,2.36-1.43,2.24-4.35,4.57-8.66,6.89-12.97.21-.39.18-.57-.22-.79-3.68-2.1-6.5-5.03-8.5-8.75-.67-1.23-1.21-2.52-1.59-3.87-.11-.4-.29-.55-.73-.54-1.28.03-2.57,0-3.85.02-.71.02-1.25-.2-1.56-.87v-.58ZM42.41,36.91c-.88,0-1.75,0-2.63,0-5.43,0-10.85,0-16.28-.01-.54,0-.66.15-.6.66.13,1.12.29,2.24.6,3.32,1.31,4.61,3.9,8.32,7.87,11.01,4.62,3.14,9.72,4.12,15.18,2.95,4.41-.94,8.05-3.21,10.92-6.7,2.52-3.05,3.97-6.56,4.35-10.5.07-.73.08-.73-.68-.73-6.24,0-12.49,0-18.73,0ZM42.41,34.57c5.14,0,10.27,0,15.41,0,1.73,0,3.46,0,5.19,0,.72,0,1.2-.46,1.21-1.08,0-.59-.44-1.04-1.13-1.12-.13-.02-.27-.01-.41-.01-13.54,0-27.08,0-40.63,0-.21,0-.43.02-.64.06-.58.13-.9.56-.87,1.13.03.53.4.93.96,1,.23.03.47.03.7.03,6.73,0,13.46,0,20.2,0ZM52.79,59.6c-.59-1.1-1.15-2.13-1.68-3.18-.19-.37-.36-.46-.76-.3-1.5.6-3.05,1.02-4.66,1.26-3.42.52-6.78.24-10.08-.81-.48-.15-1.02-.54-1.41-.43-.45.13-.55.83-.8,1.29-.39.7-.76,1.42-1.16,2.17h20.55Z"/>
          <path class="cls-1" d="M37.39,12.47c.84.49,1.04,1,.78,2-.24.92-.87,1.54-1.59,2.1-.44.35-.93.65-1.35,1.01-.61.52-.6,1.09.02,1.63.64.56,1.4.97,2.02,1.58,1.34,1.32,1.34,3.37,0,4.68-.49.48-1.05.86-1.61,1.25-.48.33-.83.72-.93,1.34-.11.66-.65,1.04-1.24.95-.63-.09-1.01-.55-1.01-1.22-.01-1.28.73-2.13,1.67-2.85.4-.31.83-.58,1.22-.89.78-.63.78-1.22-.01-1.86-.62-.5-1.31-.9-1.89-1.46-1.35-1.32-1.35-3.36,0-4.68.52-.51,1.12-.91,1.7-1.32.45-.32.78-.7.82-1.27.04-.51.44-.74.82-.98h.58Z"/>
          <path class="cls-1" d="M45.44,12.47c.97.46,1.08,1.19.62,2.44-.27.74-.87,1.23-1.48,1.69-.42.32-.86.6-1.26.94-.67.56-.66,1.13.02,1.71.64.54,1.37.95,1.98,1.54,1.34,1.32,1.34,3.38,0,4.68-.49.48-1.05.86-1.61,1.25-.48.33-.83.72-.93,1.34-.11.66-.65,1.03-1.24.95-.62-.09-1.01-.55-1.01-1.22,0-1.28.72-2.13,1.67-2.85.42-.32.86-.6,1.27-.93.72-.59.71-1.18-.01-1.78-.63-.52-1.34-.92-1.93-1.5-1.35-1.32-1.35-3.37,0-4.68.51-.49,1.09-.88,1.66-1.28.46-.33.82-.7.87-1.31.04-.51.44-.74.82-.98h.58Z"/>
          <path class="cls-1" d="M53.5,12.47c.84.49,1.03,1,.77,2-.23.9-.85,1.51-1.54,2.06-.29.23-.6.43-.9.64-1.29.92-1.28,1.49.03,2.42.52.37,1.05.73,1.51,1.19,1.35,1.32,1.34,3.37-.01,4.68-.49.48-1.05.86-1.61,1.25-.48.33-.83.73-.93,1.34-.11.66-.65,1.03-1.24.95-.62-.09-1.01-.55-1.01-1.22,0-1.28.73-2.13,1.67-2.85.4-.31.83-.58,1.22-.89.78-.63.77-1.23-.02-1.86-.62-.5-1.31-.9-1.89-1.46-1.35-1.32-1.35-3.36,0-4.68.51-.49,1.08-.88,1.66-1.28.46-.32.82-.71.87-1.31.04-.51.44-.74.82-.98h.58Z"/>
          <path class="cls-1" d="M43.06,53.23c-.25,0-.51.02-.76,0-.61-.05-1.02-.47-1.07-1.04-.05-.61.3-1.1.93-1.21.96-.16,1.94-.12,2.9-.3,4.14-.79,7.4-2.92,9.82-6.36.09-.13.17-.26.26-.39.49-.69,1.18-.87,1.75-.47.56.39.64,1.07.19,1.76-.54.84-1.14,1.63-1.81,2.35-3.3,3.55-7.38,5.4-12.21,5.66Z"/>
          <path class="cls-1" d="M59.25,40.15c0,.63-.53,1.15-1.15,1.14-.63,0-1.13-.52-1.14-1.15,0-.66.53-1.18,1.18-1.16.63.02,1.11.54,1.11,1.18Z"/>
        </g>
      </g>
    </g>
  </g>
</svg>