<?xml version="1.0" encoding="UTF-8"?>
<svg id="Capa_2" xmlns="http://www.w3.org/2000/svg" viewBox="0 0 84.72 84.72">
  <defs>
    <style>
      .cls-1 {
        fill: #efdec7;
      }

      .cls-2 {
        fill: #001038;
      }
    </style>
  </defs>
  <g id="Capa_1-2" data-name="Capa_1">
    <g>
      <rect class="cls-2" x="0" width="84.72" height="84.72" rx="12.43" ry="12.43"/>
      <path class="cls-1" d="M41.6,68.57c0,1.17-.17,2.43-1.55,2.5-1.69.08-4.06,1.09-4.86-.99-.71-1.86-1.72-1.81-3.13-1.78-1.8.04-3.61,0-5.41.01-.7,0-1.31-.07-1.53.97-.6,2.98-3.06,1.82-4.8,1.84-2.03.03-1.89-1.68-1.89-3.12,0-5.65,0-11.3,0-16.95,0-.91.03-1.66-.94-2.4-2.05-1.57-1.34-5.38,1.11-6.34.98-.38.8-1.05.8-1.69.02-4.39,0-8.79.02-13.18,0-.82-.12-1.42-.92-1.95-1.46-.96-1.34-2.26-.08-3.31,3.31-2.77,6.68-5.47,10.01-8.2,1.08-.89,2.1-.86,3.18.02,3.27,2.69,6.57,5.35,9.84,8.04,1.34,1.1,1.69,2.37.08,3.45-.82.55-.87,1.19-.87,1.98,0,1.33.14,2.68-.03,4-.3,2.41.51,3.23,3.03,3.11,5.92-.3,9.97,2.47,12.26,7.99,2.19,5.29,4.71,10.44,6.79,15.77.99,2.54,2.38,3.38,5.07,3.33,7.39-.15,6.67-1.05,6.68,7.1,0,1.63-.75,2.47-2.44,2.45-1.88-.03-3.77-.04-5.65,0-5.76.13-9.69-2.48-11.93-7.78-2.36-5.56-4.8-11.08-7.22-16.61-.31-.71-.67-1.42-1.14-2.03-.47-.6-1.23-.71-1.94-.53-.89.21-.53,1.01-.58,1.57-.08.85.26,1.98-.54,2.42-1.71.93-1.38,2.41-1.39,3.84-.01,2.51,0,5.02,0,7.53,0,2.98,0,5.96,0,8.95ZM69.6,69.31c2.48.45,2.96-.67,2.95-2.96,0-2.21-.49-3.21-2.84-2.85-1,.15-2.04-.04-3.06.04-2.63.21-4.23-.91-5.25-3.37-2.34-5.65-4.86-11.23-7.31-16.84-2.36-5.4-6.49-7.67-12.26-6.86-.92.13-1.22.5-1.18,1.34.02.39,0,.78,0,1.18.03,3.98-.27,3.34,3.19,3.27,2.45-.04,3.95.92,4.89,3.18,2.24,5.35,4.8,10.58,6.89,15.99,2.19,5.67,5.96,8.49,11.53,7.85,1.2,0,1.85-.09,2.45.02ZM23,25.82c-1.14-.03-1.72.22-1.7,1.54.06,4.48.05,8.95.01,13.43,0,1.06.29,1.55,1.46,1.55,1.17,0,1.5-.49,1.45-1.56-.05-1.18-.05-2.36,0-3.53.16-3.14,2.53-5.49,5.58-5.61,2.98-.12,5.59,2.16,5.9,5.26.13,1.25.11,2.51.06,3.77-.04,1.16.28,1.69,1.58,1.67,1.27-.02,1.37-.68,1.37-1.65-.02-4.4-.05-8.8.02-13.19.02-1.41-.58-1.72-1.83-1.68-2.35.07-4.71.02-7.07.02-2.28,0-4.56.04-6.83-.02ZM30.91,15.95c-.51-.42-.97-.75-1.64-.19-3.1,2.58-6.23,5.13-9.79,8.04,7.18,0,13.72,0,20.92,0-3.46-2.87-6.47-5.36-9.48-7.85ZM39.66,47.09c1.06,0,2.02.12,1.99-1.49-.03-1.46-.85-1.4-1.85-1.4-6.52,0-13.03,0-19.55,0-.98,0-1.83-.08-1.87,1.38-.04,1.6.89,1.52,1.97,1.52,3.22-.02,6.44,0,9.66,0,3.22,0,6.44,0,9.66,0ZM33.82,39.63c.03-4.2-1.18-6.05-3.85-6.05-2.61,0-3.89,1.9-3.84,5.84.04,3.33-.52,2.83,3.86,2.88,4.22-.06,3.81.49,3.84-2.68ZM36.75,67.76c-.01,1.05.27,1.56,1.45,1.55,1.15,0,1.49-.46,1.48-1.54-.03-5.79-.04-11.58,0-17.37,0-1.18-.54-1.42-1.58-1.43-1.06,0-1.35.47-1.34,1.42.02,2.97,0,5.95,0,8.92,0,2.82.02,5.64-.02,8.45ZM20.34,67.76c-.01,1.03.22,1.58,1.42,1.56,1.13-.02,1.51-.41,1.5-1.52-.03-5.8-.04-11.6,0-17.39,0-1.18-.51-1.43-1.56-1.44-1.05,0-1.36.43-1.35,1.4.03,2.9.01,5.8.01,8.7,0,2.9.02,5.8-.02,8.7ZM26.61,53.86c-1.12-.06-1.48.4-1.49,1.51,0,1.21.55,1.45,1.58,1.43,2.19-.04,4.39-.04,6.59,0,1.1.02,1.51-.42,1.52-1.53.01-1.21-.6-1.45-1.61-1.42-1.1.04-2.2,0-3.29,0-1.1,0-2.2.05-3.29,0ZM33.28,51.92c1.07.05,1.54-.33,1.53-1.46,0-1.12-.44-1.5-1.53-1.48-2.25.05-4.51.06-6.77,0-1.22-.03-1.35.61-1.38,1.6-.03,1.06.43,1.36,1.39,1.33,1.17-.04,2.33,0,3.5,0h0c1.09,0,2.18-.03,3.27.02ZM33.4,61.62c1.23.07,1.39-.62,1.41-1.61.03-1.09-.53-1.31-1.46-1.3-2.28.03-4.55.04-6.83,0-.98-.02-1.4.31-1.39,1.36,0,1.05.24,1.64,1.44,1.56,1.09-.07,2.2-.01,3.3-.01,1.18,0,2.36-.05,3.53.01ZM33.3,66.43c1.09.06,1.52-.33,1.52-1.46,0-1.14-.47-1.47-1.54-1.45-2.25.05-4.51.06-6.77,0-1.22-.03-1.37.59-1.39,1.59-.01,1.05.45,1.36,1.41,1.32,1.17-.04,2.33-.01,3.5-.01,1.09,0,2.18-.04,3.27.02Z"/>
    </g>
  </g>
</svg>