<?xml version="1.0" encoding="UTF-8"?>
<svg id="Capa_2" xmlns="http://www.w3.org/2000/svg" xmlns:xlink="http://www.w3.org/1999/xlink" viewBox="0 0 96.5 95.33">
  <defs>
    <style>
      .cls-1 {
        filter: url(#drop-shadow-2);
      }

      .cls-1, .cls-2, .cls-3, .cls-4 {
        fill: none;
        stroke: #fff;
        stroke-miterlimit: 10;
      }

      .cls-2 {
        filter: url(#drop-shadow-3);
      }

      .cls-3 {
        filter: url(#drop-shadow-1);
      }

      .cls-4 {
        filter: url(#drop-shadow-4);
      }

      .cls-5 {
        fill: #828236;
      }
    </style>
    <filter id="drop-shadow-1" filterUnits="userSpaceOnUse">
      <feOffset dx="7" dy="7"/>
      <feGaussianBlur result="blur" stdDeviation="5"/>
      <feFlood flood-color="#000" flood-opacity=".45"/>
      <feComposite in2="blur" operator="in"/>
      <feComposite in="SourceGraphic"/>
    </filter>
    <filter id="drop-shadow-2" filterUnits="userSpaceOnUse">
      <feOffset dx="7" dy="7"/>
      <feGaussianBlur result="blur-2" stdDeviation="5"/>
      <feFlood flood-color="#000" flood-opacity=".45"/>
      <feComposite in2="blur-2" operator="in"/>
      <feComposite in="SourceGraphic"/>
    </filter>
    <filter id="drop-shadow-3" filterUnits="userSpaceOnUse">
      <feOffset dx="7" dy="7"/>
      <feGaussianBlur result="blur-3" stdDeviation="5"/>
      <feFlood flood-color="#000" flood-opacity=".45"/>
      <feComposite in2="blur-3" operator="in"/>
      <feComposite in="SourceGraphic"/>
    </filter>
    <filter id="drop-shadow-4" filterUnits="userSpaceOnUse">
      <feOffset dx="7" dy="7"/>
      <feGaussianBlur result="blur-4" stdDeviation="5"/>
      <feFlood flood-color="#000" flood-opacity=".45"/>
      <feComposite in2="blur-4" operator="in"/>
      <feComposite in="SourceGraphic"/>
    </filter>
  </defs>
  <g id="Capa_1-2" data-name="Capa_1">
    <g>
      <circle class="cls-5" cx="47.67" cy="47.67" r="47.67"/>
      <g>
        <path class="cls-3" d="M72.48,46.84c0-13.7-11.11-24.81-24.81-24.81s-24.81,11.11-24.81,24.81,11.1,24.81,24.81,24.81h24.81l-6.41-8.16c3.98-4.4,6.41-10.24,6.41-16.65Z"/>
        <path class="cls-1" d="M58.39,57.09c-.01.06-.04.11-.05.17-.1.64-.37,1.21-.79,1.7-.31.36-.62.7-.93,1.06-.78.9-1.76,1.51-2.88,1.91-.51.17-1.05.24-1.58.36h-1.54c-.52-.11-1.05-.15-1.57-.28-1.79-.44-3.46-1.2-5.02-2.15-3.83-2.34-7.03-5.37-9.43-9.17-1.14-1.78-2-3.68-2.35-5.78-.42-2.48.01-4.79,1.68-6.74.56-.66,1.24-1.24,1.98-1.71,1.25-.78,2.92-.6,4,.41.34.32.58.72.86,1.08.52.64,1.02,1.29,1.52,1.94,1.01,1.28.97,3.09-.09,4.33-.59.68-1.16,1.37-1.75,2.05-.1.12-.11.2-.05.35,1.5,3.4,3.95,5.85,7.35,7.35.13.06.21.05.33-.04.68-.59,1.37-1.16,2.05-1.75,1.23-1.07,3.07-1.12,4.35-.1.87.68,1.75,1.37,2.63,2.05.67.51,1.05,1.2,1.21,2.01.01.07,0,.14.05.19v.77Z"/>
        <path class="cls-2" d="M46.33,38.77c.03-.88.74-1.52,1.68-1.5h.31c4.18.23,7.48,3.15,8.45,6.84.2.75.3,1.51.31,2.28.01.91-.64,1.61-1.51,1.64-.87.01-1.54-.67-1.57-1.6-.09-3.41-2.68-6.01-6.07-6.1-.95-.01-1.64-.68-1.61-1.57Z"/>
        <path class="cls-4" d="M63.24,46.82c-.23.57-.57,1.03-1.21,1.17-.86.19-1.7-.37-1.82-1.24-.09-.54-.07-1.1-.13-1.65-.54-5.13-4.42-9.46-9.45-10.59-.88-.2-1.78-.3-2.68-.31-.83-.01-1.43-.48-1.57-1.21-.21-.98.5-1.87,1.52-1.87,2.61.01,5.09.63,7.37,1.91,4.08,2.32,6.64,5.79,7.65,10.37.16.7.21,1.43.31,2.12v1.3Z"/>
      </g>
    </g>
  </g>
</svg>