<?xml version="1.0" encoding="UTF-8"?>
<svg id="Capa_2" xmlns="http://www.w3.org/2000/svg" viewBox="0 0 42.47 42.47">
  <defs>
    <style>
      .cls-1 {
        fill: #8daef5;
      }
    </style>
  </defs>
  <g id="Capa_1-2" data-name="Capa_1">
    <g>
      <path class="cls-1" d="M21.19,42.47C9.41,42.46.01,33.06,0,21.29-.01,9.53,9.41.02,21.11,0c11.91-.02,21.35,9.43,21.36,21.39.01,11.67-9.51,21.1-21.28,21.08ZM21.24,34.93c1.8,0,3.59.04,5.39,0,5.33-.12,8.26-3.08,8.31-8.44.04-3.59.06-7.18-.03-10.77-.13-5.09-2.83-7.86-7.96-8.04-3.92-.14-7.86-.14-11.78,0-4.61.16-7.48,3.1-7.6,7.72-.1,3.7-.06,7.41,0,11.11.08,5.55,2.98,8.36,8.64,8.43,1.68.02,3.37,0,5.05,0Z"/>
      <path class="cls-1" d="M20.98,32.37q-10.9.02-10.93-11.04c0-2.02-.06-4.04.04-6.05.16-3.2,1.86-5.04,5.02-5.14,4.14-.14,8.29-.15,12.43.01,3.01.12,4.74,1.93,4.82,4.96.1,4.03.11,8.07,0,12.1-.08,3.19-1.84,4.96-5,5.13-2.12.11-4.25.02-6.38.02ZM21.18,13.83c-4.09.03-7.39,3.46-7.31,7.61.08,3.96,3.4,7.29,7.31,7.33,3.98.04,7.54-3.5,7.53-7.49-.01-4.07-3.46-7.47-7.53-7.44Z"/>
      <path class="cls-1" d="M26.1,21.36c-.06,2.6-2.52,4.9-5.1,4.76-2.46-.13-4.67-2.47-4.62-4.9.05-2.64,2.43-4.84,5.1-4.71,2.55.12,4.68,2.35,4.63,4.85Z"/>
    </g>
  </g>
</svg>