<?xml version="1.0" encoding="UTF-8"?>
<svg id="Capa_2" xmlns="http://www.w3.org/2000/svg" viewBox="0 0 82.33 115.57">
  <defs>
    <style>
      .cls-1, .cls-2 {
        fill: #efdec7;
      }

      .cls-2 {
        opacity: .6;
      }
    </style>
  </defs>
  <g id="Capa_1-2" data-name="Capa_1">
    <g>
      <path class="cls-1" d="M82.33,75.89c-3.09-.31-5.39-1.34-7.09-2.78-4.02-3.39-4.44-8.58-4.63-11.01-.19-2.39.09-4.38.37-5.71-1.21.79-2.84,2-4.53,3.73-2.77,2.84-4.2,5.58-5.03,7.18-1.68,3.26-2.41,6.02-3,8.28-.53,2.04-.84,3.79-1.02,5.04,2.26.72,7.1,1.94,24.93-4.74Z"/>
      <path class="cls-2" d="M70.91,56.38s-.06,0-.11-.01c-.29-.04-.91-.1-1.81-.11-6.1-.01-24.57,2.92-31.96,37.64,3.61,6.29,8.06,12.37,13.52,18.02.39-.34,4.71-4.4,5.45-14.99.31-4.43.43-10.27,1.39-16.3,1.44-9.02,4.78-18.45,13.5-24.18.03-.02.05-.04.08-.05,0,0-.02,0-.07-.01Z"/>
      <path class="cls-1" d="M50.55,111.92c-5.46-5.66-9.91-11.73-13.52-18.02C12.81,51.75,26.17,0,26.17,0c-58.04,39.45-2.63,108.57,5.82,113.27,8.45,4.7,15.59,1.13,18.6-1.32-.01-.01-.02-.02-.03-.03Z"/>
    </g>
  </g>
</svg>