<?xml version="1.0" encoding="UTF-8"?>
<svg id="Capa_2" xmlns="http://www.w3.org/2000/svg" viewBox="0 0 84.72 84.72">
  <defs>
    <style>
      .cls-1 {
        fill: #efdec7;
      }

      .cls-2 {
        fill: #001038;
      }
    </style>
  </defs>
  <g id="Capa_1-2" data-name="Capa_1">
    <g>
      <rect class="cls-2" x="0" width="84.72" height="84.72" rx="12.43" ry="12.43"/>
      <g>
        <path class="cls-1" d="M60.46,19.06H24.47c-.47,0-.85-.38-.85-.85v-6.57c0-.47.38-.85.85-.85h35.99c.47,0,.85.38.85.85v6.57c0,.47-.38.85-.85.85ZM25.31,17.37h34.3v-4.88H25.31v4.88Z"/>
        <path class="cls-1" d="M58.21,70.98h-3.62c-.47,0-.85-.38-.85-.85s.38-.85.85-.85h2.77V19.06h-29.8v50.22h22.81c.47,0,.85.38.85.85s-.38.85-.85.85h-23.66c-.47,0-.85-.38-.85-.85V18.22c0-.47.38-.85.85-.85h31.49c.47,0,.85.38.85.85v51.91c0,.47-.38.85-.85.85Z"/>
        <path class="cls-1" d="M47.84,70.98h-10.75c-.47,0-.85-.38-.85-.85v-13.74c0-.47.38-.85.85-.85h10.75c.47,0,.85.38.85.85v13.74c0,.47-.38.85-.85.85ZM37.94,69.28h9.06v-12.04h-9.06v12.04Z"/>
        <path class="cls-1" d="M69.46,52.98h-11.25c-.47,0-.85-.38-.85-.85s.38-.85.85-.85h11.25c.47,0,.85.38.85.85s-.38.85-.85.85Z"/>
        <path class="cls-1" d="M69.46,70.98h-11.25c-.47,0-.85-.38-.85-.85s.38-.85.85-.85h11.25c.47,0,.85.38.85.85s-.38.85-.85.85Z"/>
        <path class="cls-1" d="M26.72,52.98h-11.25c-.47,0-.85-.38-.85-.85s.38-.85.85-.85h11.25c.47,0,.85.38.85.85s-.38.85-.85.85Z"/>
        <path class="cls-1" d="M26.72,70.98h-11.25c-.47,0-.85-.38-.85-.85s.38-.85.85-.85h11.25c.47,0,.85.38.85.85s-.38.85-.85.85Z"/>
        <path class="cls-1" d="M17.57,70.98c-.47,0-.85-.38-.85-.85v-18c0-.47.38-.85.85-.85s.85.38.85.85v18c0,.47-.38.85-.85.85Z"/>
        <path class="cls-1" d="M66.99,70.98c-.47,0-.85-.38-.85-.85v-18c0-.47.38-.85.85-.85s.85.38.85.85v18c0,.47-.38.85-.85.85Z"/>
        <g>
          <path class="cls-1" d="M40.23,31.25h-6.03c-.47,0-.85-.38-.85-.85v-6.03c0-.47.38-.85.85-.85h6.03c.47,0,.85.38.85.85v6.03c0,.47-.38.85-.85.85ZM35.05,29.55h4.33v-4.33h-4.33v4.33Z"/>
          <path class="cls-1" d="M50.73,31.25h-6.03c-.47,0-.85-.38-.85-.85v-6.03c0-.47.38-.85.85-.85h6.03c.47,0,.85.38.85.85v6.03c0,.47-.38.85-.85.85ZM45.55,29.55h4.33v-4.33h-4.33v4.33Z"/>
        </g>
        <g>
          <path class="cls-1" d="M40.23,41.01h-6.03c-.47,0-.85-.38-.85-.85v-6.03c0-.47.38-.85.85-.85h6.03c.47,0,.85.38.85.85v6.03c0,.47-.38.85-.85.85ZM35.05,39.31h4.33v-4.33h-4.33v4.33Z"/>
          <path class="cls-1" d="M50.73,41.01h-6.03c-.47,0-.85-.38-.85-.85v-6.03c0-.47.38-.85.85-.85h6.03c.47,0,.85.38.85.85v6.03c0,.47-.38.85-.85.85ZM45.55,39.31h4.33v-4.33h-4.33v4.33Z"/>
        </g>
        <g>
          <path class="cls-1" d="M40.23,50.77h-6.03c-.47,0-.85-.38-.85-.85v-6.03c0-.47.38-.85.85-.85h6.03c.47,0,.85.38.85.85v6.03c0,.47-.38.85-.85.85ZM35.05,49.08h4.33v-4.33h-4.33v4.33Z"/>
          <path class="cls-1" d="M50.73,50.77h-6.03c-.47,0-.85-.38-.85-.85v-6.03c0-.47.38-.85.85-.85h6.03c.47,0,.85.38.85.85v6.03c0,.47-.38.85-.85.85ZM45.55,49.08h4.33v-4.33h-4.33v4.33Z"/>
        </g>
      </g>
    </g>
  </g>
</svg>