<?xml version="1.0" encoding="UTF-8"?>
<svg id="Capa_2" xmlns="http://www.w3.org/2000/svg" viewBox="0 0 84.72 84.72">
  <defs>
    <style>
      .cls-1 {
        fill: #efdec7;
      }

      .cls-2 {
        fill: #001038;
      }
    </style>
  </defs>
  <g id="Capa_1-2" data-name="Capa_1">
    <g>
      <rect class="cls-2" x="0" width="84.72" height="84.72" rx="12.43" ry="12.43"/>
      <g>
        <path class="cls-1" d="M25.64,66.36h-4.07c-1.76,0-3.2-1.43-3.2-3.2v-3.78c0-.48.39-.87.87-.87s.87.39.87.87v3.78c0,.8.65,1.45,1.45,1.45h4.07c.8,0,1.45-.65,1.45-1.45v-3.78c0-.48.39-.87.87-.87s.87.39.87.87v3.78c0,1.76-1.43,3.2-3.2,3.2Z"/>
        <path class="cls-1" d="M63.15,66.36h-4.07c-1.76,0-3.2-1.43-3.2-3.2v-3.78c0-.48.39-.87.87-.87s.87.39.87.87v3.78c0,.8.65,1.45,1.45,1.45h4.07c.8,0,1.45-.65,1.45-1.45v-3.78c0-.48.39-.87.87-.87s.87.39.87.87v3.78c0,1.76-1.43,3.2-3.2,3.2Z"/>
        <path class="cls-1" d="M26.22,49.76c-2.65,0-4.8-2.15-4.8-4.8s2.15-4.8,4.8-4.8,4.8,2.15,4.8,4.8-2.15,4.8-4.8,4.8ZM26.22,41.91c-1.68,0-3.05,1.37-3.05,3.05s1.37,3.05,3.05,3.05,3.05-1.37,3.05-3.05-1.37-3.05-3.05-3.05Z"/>
        <path class="cls-1" d="M58.35,49.79c-2.73,0-4.94-2.22-4.94-4.94s2.22-4.94,4.94-4.94,4.94,2.22,4.94,4.94-2.22,4.94-4.94,4.94ZM58.35,41.65c-1.76,0-3.2,1.43-3.2,3.2s1.43,3.2,3.2,3.2,3.2-1.43,3.2-3.2-1.43-3.2-3.2-3.2Z"/>
        <path class="cls-1" d="M49.92,48.26h-15.12c-1.46,0-2.44-1.5-1.87-2.84l.58-1.35c.69-1.61,2.26-2.64,4.01-2.64h9.68c1.75,0,3.32,1.04,4.01,2.64l.58,1.35c.57,1.34-.41,2.84-1.87,2.84ZM37.52,43.17c-1.05,0-1.99.62-2.41,1.59l-.58,1.35c-.05.13,0,.23.02.27.03.05.11.13.24.13h15.12c.14,0,.21-.08.24-.13.03-.05.08-.15.02-.27l-.58-1.35c-.41-.96-1.36-1.59-2.41-1.59h-9.68Z"/>
        <path class="cls-1" d="M68.53,52.6c-.48,0-.87-.39-.87-.87v-4.05c0-6.07-4.94-11.01-11.01-11.01h-28.58c-6.07,0-11.01,4.94-11.01,11.01v4.05c0,.48-.39.87-.87.87s-.87-.39-.87-.87v-4.05c0-7.03,5.72-12.75,12.75-12.75h28.58c7.03,0,12.75,5.72,12.75,12.75v4.05c0,.48-.39.87-.87.87Z"/>
        <path class="cls-1" d="M65.04,40.15c-.48,0-.87-.39-.87-.87v-11.05c0-4.48-3.64-8.12-8.12-8.12h-27.37c-4.48,0-8.12,3.64-8.12,8.12v11.05c0,.48-.39.87-.87.87s-.87-.39-.87-.87v-11.05c0-5.44,4.43-9.87,9.87-9.87h27.37c5.44,0,9.87,4.43,9.87,9.87v11.05c0,.48-.39.87-.87.87Z"/>
        <path class="cls-1" d="M60.68,37.38c-.48,0-.87-.39-.87-.87v-8.22c0-2.11-1.71-3.82-3.82-3.82h-27.25c-2.11,0-3.82,1.71-3.82,3.82v8.22c0,.48-.39.87-.87.87s-.87-.39-.87-.87v-8.22c0-3.07,2.5-5.56,5.56-5.56h27.25c3.07,0,5.56,2.5,5.56,5.56v8.22c0,.48-.39.87-.87.87Z"/>
        <path class="cls-1" d="M67.81,40.17h-2.75c-.48,0-.87-.39-.87-.87s.39-.87.87-.87h2.75c.55,0,1.05-.31,1.3-.8l1.13-2.26c.06-.13.02-.23-.01-.28-.03-.05-.11-.14-.25-.14h-4.94c-.48,0-.87-.39-.87-.87s.39-.87.87-.87h4.94c1.51,0,2.5,1.59,1.82,2.95l-1.13,2.26c-.55,1.09-1.64,1.77-2.86,1.77Z"/>
        <path class="cls-1" d="M19.66,40.17h-2.75c-1.22,0-2.32-.68-2.86-1.77l-1.13-2.26c-.68-1.35.31-2.95,1.82-2.95h4.94c.48,0,.87.39.87.87s-.39.87-.87.87h-4.94c-.14,0-.22.09-.25.14-.03.05-.08.16-.01.28l1.13,2.27c.25.5.75.8,1.3.8h2.75c.48,0,.87.39.87.87s-.39.87-.87.87Z"/>
        <path class="cls-1" d="M67.66,60.23H17.06c-2.41,0-4.36-1.96-4.36-4.36s1.96-4.36,4.36-4.36h50.6c2.41,0,4.36,1.96,4.36,4.36s-1.96,4.36-4.36,4.36ZM17.06,53.25c-1.44,0-2.62,1.17-2.62,2.62s1.17,2.62,2.62,2.62h50.6c1.44,0,2.62-1.17,2.62-2.62s-1.17-2.62-2.62-2.62H17.06Z"/>
      </g>
    </g>
  </g>
</svg>