<?xml version="1.0" encoding="UTF-8"?>
<svg id="Capa_2" xmlns="http://www.w3.org/2000/svg" viewBox="0 0 84.72 84.72">
  <defs>
    <style>
      .cls-1 {
        fill: #efdec7;
      }

      .cls-2 {
        fill: #001038;
      }
    </style>
  </defs>
  <g id="Capa_1-2" data-name="Capa_1">
    <g>
      <rect class="cls-2" width="84.72" height="84.72" rx="12.43" ry="12.43"/>
      <path class="cls-1" d="M70.87,68.03h-9.51c0-.34-.17-.66-.48-.84l-14.82-8.5c-.17-.09-.36-.14-.55-.13l-1.87.12-4.68-16.42,10.68-2.86c.52-.14.82-.67.69-1.19-.14-.52-.67-.83-1.19-.69l-2.35.63c-2.33-5.24-5.33-7.76-7.77-8.97,2.89-.27,5.58-.06,8.05.63.06.02.12.04.18.05,1.62.47,3.15,1.14,4.57,2.02,2.11,1.31,3.52,2.8,4.3,3.78l-3.58.96c-.52.14-.82.67-.69,1.19.14.52.67.82,1.19.69l4.92-1.32c.29-.08.53-.29.64-.56.07-.16.08-.32.06-.49,5.01-.95,8.74-5.34,8.74-10.58,0-5.94-4.83-10.77-10.77-10.77s-10.77,4.83-10.77,10.77c0,.7.07,1.38.2,2.06-2.95-.59-6.55-.69-10.84.2l-.81-2.93c-.14-.52-.68-.82-1.2-.67-.52.14-.82.68-.68,1.2l.79,2.85c-8.96,2.36-12.82,7.14-14.49,10.8-1.89,4.14-1.44,7.73-1.42,7.88.04.28.19.52.42.68.16.11.35.16.54.16.08,0,.17-.01.25-.03l18.46-4.95,4.58,16.05-9.48.63-11.16-8.76c-.42-.33-1.03-.26-1.36.16-.33.42-.26,1.03.16,1.36l8.49,6.67-6.35,9.11s-.01.03-.02.04h-8.08c-.54,0-.97.43-.97.97s.43.97.97.97h31.7s0,0,0,0c0,0,0,0,0,0h25.3c.54,0,.97-.43.97-.97s-.43-.97-.97-.97ZM47.78,25.53c0-4.87,3.96-8.83,8.83-8.83s8.83,3.96,8.83,8.83c0,4.56-3.44,8.33-7.93,8.79-.89-1.1-2.39-2.65-4.6-4.04-1.25-.78-2.83-1.56-4.74-2.15-.26-.84-.4-1.71-.4-2.6ZM44.87,38.66l-13.8,3.7c-1.08-8.14,2.46-11.51,3.59-12.36.02,0,.03,0,.05,0,.26-.01,6.13-.13,10.16,8.66ZM20.58,39.83c1.86-4.08,5.44-7.08,10.66-8.94-1.51,2.25-2.9,6.04-2.06,11.97l-9.91,2.66c.02-1.24.24-3.37,1.3-5.69ZM45.33,60.51l13.1,7.51h-12.14l-2.12-7.43,1.16-.08ZM29.84,60.08l1.42,1.12c.19.15.43.22.66.21l10.27-.68,2.08,7.3h-19.98l5.54-7.95Z"/>
    </g>
  </g>
</svg>