<?xml version="1.0" encoding="UTF-8"?>
<svg id="Capa_2" xmlns="http://www.w3.org/2000/svg" viewBox="0 0 84.72 84.72">
  <defs>
    <style>
      .cls-1 {
        fill: #efdec7;
      }

      .cls-2 {
        fill: #001038;
      }
    </style>
  </defs>
  <g id="Capa_1-2" data-name="Capa_1">
    <g>
      <rect class="cls-2" width="84.72" height="84.72" rx="12.43" ry="12.43"/>
      <g id="CVaVVU.tif">
        <g>
          <path class="cls-1" d="M69.74,32.63c-.14,1-.25,2.01-.41,3.01-.87,5.13-3.07,9.63-6.53,13.52-.62.69-.62.68.23,1.08,1.49.7,2.91,1.52,4.02,2.77,1.74,1.97,1.75,4.23.03,6.22-.52.6-1.12,1.09-1.77,1.54-1.75,1.2-3.7,1.97-5.71,2.6-.61.19-1.19-.13-1.37-.69-.18-.59.13-1.15.79-1.37,1.6-.52,3.16-1.11,4.6-1.98.74-.44,1.42-.95,1.97-1.63.85-1.05.85-2.05,0-3.1-.5-.62-1.12-1.09-1.79-1.51-.91-.57-1.88-1.01-2.86-1.43-.35-.15-.57-.09-.85.15-3.32,2.83-7.1,4.82-11.37,5.76-8.83,1.93-16.81.11-23.86-5.6-.45-.36-.79-.44-1.32-.2-1.32.6-2.62,1.2-3.73,2.16-1.72,1.5-1.74,2.94-.01,4.44,1.6,1.4,3.54,2.17,5.53,2.82,4.33,1.41,8.81,2,13.34,2.25,3.66.2,7.3.08,10.94-.27.68-.07,1.19.32,1.27.93.08.59-.34,1.11-1.03,1.18-2.86.31-5.72.44-8.59.39-4.45-.07-8.86-.48-13.2-1.49-2.89-.67-5.7-1.55-8.25-3.12-.95-.58-1.8-1.27-2.48-2.17-1.3-1.74-1.3-3.75.03-5.48,1.17-1.51,2.78-2.42,4.47-3.21.72-.34.72-.33.17-.93-3.86-4.31-6.14-9.33-6.82-15.07-.12-.99-.19-1.99-.19-2.98,0-.9.41-1.31,1.31-1.29,2.45.04,4.87.35,7.22,1.05.43.13.55.07.55-.39-.02-3.33.6-6.55,1.72-9.68.36-1.02.82-1.24,1.84-.84,3.22,1.25,6.13,3.01,8.73,5.29.13.12.27.23.43.36.71-1.23,1.46-2.4,2.32-3.48.9-1.13,1.82-2.23,2.94-3.14.21,0,.43,0,.64,0,.21.16.44.3.63.48,1.59,1.57,2.98,3.3,4.14,5.21.1.16.15.35.34.45.09-.08.17-.15.24-.22,2.33-2.24,4.95-4.05,7.88-5.42.99-.46,1.45-.3,1.89.7,1.46,3.31,2.3,6.76,2.45,10.37.02.46.13.56.59.41,2.38-.74,4.82-1.07,7.31-1.16.68-.02,1.22.12,1.59.71v2.03ZM35.57,38.52c.07,6.49,2.19,12.05,6.43,16.79.28.31.42.39.75.02,4.7-5.29,6.85-11.46,6.36-18.51-.39-5.65-2.57-10.56-6.35-14.78-.32-.35-.46-.31-.76.02-4.23,4.73-6.35,10.26-6.43,16.45ZM39.69,56.03c-.01-.07,0-.11-.02-.13-.05-.07-.11-.14-.16-.21-3.83-4.74-5.87-10.15-6.04-16.25,0-.34-.14-.56-.38-.77-1.92-1.76-4.05-3.19-6.41-4.28-2.87-1.33-5.89-2.1-9.05-2.29-.36-.02-.5.04-.46.45.09.74.12,1.49.25,2.23,1.65,9.37,6.9,15.88,15.61,19.63,2.11.91,4.35,1.4,6.65,1.64ZM45.01,56.03c3.03-.32,5.86-1.07,8.47-2.44,8.44-4.43,13.16-11.38,14.04-20.9.05-.49-.03-.64-.56-.6-5.83.44-10.92,2.61-15.28,6.51-.26.23-.37.47-.38.82-.18,5.66-1.93,10.78-5.32,15.33-.31.41-.62.81-.99,1.28ZM33.55,36.17c.28-2.88.96-5.58,2.09-8.15.14-.31,0-.45-.19-.62-2.22-2.05-4.71-3.67-7.46-4.9-.41-.19-.5-.04-.6.31-.86,2.81-1.26,5.69-1.19,8.63,0,.32.12.46.4.58,1.7.7,3.31,1.56,4.82,2.61.7.48,1.37,1,2.13,1.55ZM51.23,36.17c2.11-1.72,4.32-3.07,6.72-4.09.24-.1.21-.29.21-.49-.08-3.23-.67-6.36-1.85-9.37-.14-.35-.25-.35-.55-.19-2.46,1.29-4.66,2.94-6.64,4.89-.27.27-.27.47-.13.78.67,1.44,1.17,2.94,1.55,4.48.32,1.28.52,2.57.69,3.99Z"/>
          <path class="cls-1" d="M54.58,64.54c-.6,0-1.09-.49-1.08-1.08.01-.57.48-1.03,1.06-1.04.61,0,1.08.47,1.07,1.08,0,.58-.47,1.04-1.05,1.04Z"/>
        </g>
      </g>
    </g>
  </g>
</svg>