<?xml version="1.0" encoding="UTF-8"?>
<svg id="Capa_2" xmlns="http://www.w3.org/2000/svg" viewBox="0 0 84.72 84.72">
  <defs>
    <style>
      .cls-1 {
        fill: #efdec7;
      }

      .cls-2 {
        fill: #001038;
      }
    </style>
  </defs>
  <g id="Capa_1-2" data-name="Capa_1">
    <g>
      <rect class="cls-2" width="84.72" height="84.72" rx="12.43" ry="12.43"/>
      <g>
        <path class="cls-1" d="M74.38,64.45H10.34c-.55,0-.99.44-.99.99s.44.99.99.99h64.04c.55,0,.99-.44.99-.99s-.44-.99-.99-.99Z"/>
        <path class="cls-1" d="M16.57,62.82c.55,0,.99-.44.99-.99v-30.96c0-1.16.94-2.1,2.1-2.1h2.04v5.37c0,.55.44.99.99.99h3.49v1.17c0,.55.44.99.99.99h4.33c.55,0,.99-.44.99-.99v-7.54h20.35v7.54c0,.55.44.99.99.99h4.33c.55,0,.99-.44.99-.99v-1.17h3.49c.55,0,.99-.44.99-.99v-5.37h1.6c1.16,0,2.1.94,2.1,2.1v30.96c0,.55.44.99.99.99s.99-.44.99-.99v-30.96c0-2.25-1.83-4.09-4.09-4.09h-1.6v-5.02c0-.55-.44-.99-.99-.99h-3.49v-1.49c0-.55-.44-.99-.99-.99h-4.33c-.55,0-.99.44-.99.99v7.51h-20.35v-7.51c0-.55-.44-.99-.99-.99h-4.33c-.55,0-.99.44-.99.99v1.49h-3.49c-.55,0-.99.44-.99.99v5.02h-2.04c-2.25,0-4.09,1.83-4.09,4.09v30.96c0,.55.44.99.99.99ZM59.23,22.75h2.41v10.4h-2.41v-10.4ZM54.82,20.27h2.35v15.04h-2.35v-15.04ZM28.16,20.27h2.35v15.04h-2.35v-15.04ZM23.68,22.75h2.41v10.4h-2.41v-10.4Z"/>
        <path class="cls-1" d="M60.97,62.82c.55,0,.99-.44.99-.99v-13.85c0-.55-.44-.99-.99-.99H23.81c-.55,0-.99.44-.99.99v13.85c0,.55.44.99.99.99s.99-.44.99-.99v-12.86h35.18v12.86c0,.55.44.99.99.99Z"/>
      </g>
    </g>
  </g>
</svg>