<?xml version="1.0" encoding="UTF-8"?>
<svg id="Capa_2" xmlns="http://www.w3.org/2000/svg" viewBox="0 0 42.47 42.49">
  <defs>
    <style>
      .cls-1 {
        fill: #8daef5;
      }
    </style>
  </defs>
  <g id="Capa_1-2" data-name="Capa_1">
    <path class="cls-1" d="M42.47,21.39c-.07,11.76-9.49,21.1-21.27,21.09C9.33,42.48-.12,32.89,0,20.96.12,9.3,9.77-.12,21.47,0c11.72.12,21.07,9.64,21,21.39ZM24.61,7.32c-5.02-.08-7.15,2.19-7.36,7.83-.06,1.59.5,3.66-2.34,3.29-2.04-.26-2.73.59-2.72,2.66.01,2.11.55,3.25,2.84,2.94,1.88-.25,2.26.77,2.22,2.39-.08,2.92-.03,5.84,0,8.76,0,.84-.27,1.75,1,2.16,3.02.99,4.82-.23,4.83-3.42,0-2.25.1-4.5-.03-6.74-.12-2.1.19-3.3,2.82-3.27,2.79.04,1.83-2.67,2.12-4.17.35-1.81-1.42-1.14-2.39-1.33-.89-.18-2.03.45-2.49-1.02-.84-2.68.45-5.04,3.3-5.24,1.7-.12,1.95-.78,2.06-2.25.26-3.31-2.14-2.37-3.85-2.61Z"/>
  </g>
</svg>