<?xml version="1.0" encoding="UTF-8"?>
<svg id="Capa_2" xmlns="http://www.w3.org/2000/svg" viewBox="0 0 42.48 42.48">
  <defs>
    <style>
      .cls-1 {
        fill: #8daef5;
      }
    </style>
  </defs>
  <g id="Capa_1-2" data-name="Capa_1">
    <path class="cls-1" d="M21.12,0c11.92-.04,21.37,9.42,21.35,21.37-.02,11.65-9.59,21.14-21.31,21.11C9.45,42.45.04,33.02,0,21.25-.04,9.53,9.38.04,21.12,0ZM16.93,24.94c0,2.02.09,4.05-.03,6.06-.11,1.95.94,2.12,2.5,2.16,1.67.04,2.5-.41,2.41-2.25-.11-2.13-.14-4.27.03-6.39.16-2.02,1.34-3.46,3.48-3.32,1.95.13,2.92,1.51,2.95,3.46.02,1.91.09,3.82-.02,5.72-.11,1.89.29,2.81,2.53,2.82,2.41,0,2.41-1.27,2.37-2.97-.06-2.36.02-4.72-.03-7.07-.09-4.84-3.4-7.44-8.08-6.22-1.57.41-2.71,1.15-4.61.13-1.83-.99-3.99-.33-3.55,2.82.23,1.65.04,3.36.04,5.05ZM14.23,25.04c0-2.02-.1-4.05.03-6.07.12-1.99-.99-2.08-2.51-2.12-1.66-.04-2.47.37-2.42,2.22.1,3.82.08,7.64,0,11.47-.03,1.72.24,2.65,2.35,2.67,2.18.02,2.74-.79,2.59-2.77-.13-1.79-.03-3.6-.03-5.39ZM14.73,11.73c-.25-1.71-1.12-2.94-3.02-2.93-1.75,0-2.71,1.19-2.79,2.79-.08,1.63.88,2.87,2.57,2.98,1.83.12,2.88-1.01,3.23-2.84Z"/>
  </g>
</svg>