<?xml version="1.0" encoding="UTF-8"?>
<svg id="Capa_2" xmlns="http://www.w3.org/2000/svg" viewBox="0 0 42.48 42.48">
  <defs>
    <style>
      .cls-1 {
        fill: #8daef5;
      }
    </style>
  </defs>
  <g id="Capa_1-2" data-name="Capa_1">
    <path class="cls-1" d="M21.14,42.48C9.39,42.45-.03,33,0,21.26.03,9.37,9.61-.12,21.48,0c11.54.11,20.97,9.58,21,21.09.03,11.96-9.42,21.43-21.33,21.39ZM27.18,17.67c1.5.62,2.19,1.04,2.93,1.18,1.25.23,2.98,1.77,3.62-.47.43-1.52.9-3.53-1.96-4-2.1-.35-3.58-2.09-4-4.16-.44-2.2-1.77-2.16-3.44-2.12-2.2.05-1.77,1.64-1.78,2.89-.04,5.17,0,10.33-.01,15.5,0,2.49-1.2,4.16-3.73,4.32-1.97.13-3.51-.87-3.94-2.94-.52-2.54.7-4.32,3.12-4.73,2.85-.48,1.86-2.48,1.66-3.84-.27-1.88-1.9-1.02-2.99-.81-1.81.35-3.36,1.24-4.58,2.65-2.41,2.78-2.87,6.93-1.11,10.07,1.68,3.01,5.42,4.84,8.85,4.34,3.65-.53,6.86-3.25,7.28-6.93.39-3.42.08-6.91.08-10.94Z"/>
  </g>
</svg>