<?xml version="1.0" encoding="UTF-8"?>
<svg id="Capa_2" xmlns="http://www.w3.org/2000/svg" viewBox="0 0 42.47 42.47">
  <defs>
    <style>
      .cls-1 {
        fill: #8daef5;
      }
    </style>
  </defs>
  <g id="Capa_1-2" data-name="Capa_1">
    <g>
      <path class="cls-1" d="M0,21.02C.04,9.32,9.52-.02,21.33,0c11.7.02,21.17,9.55,21.14,21.25-.03,11.87-9.64,21.33-21.54,21.22C9.25,42.36-.04,32.84,0,21.02ZM34.69,21.38c.05-5.28-2.73-9.99-7.44-12.24-4.99-2.39-9.85-2.01-14.24,1.38-4.37,3.38-6.24,7.99-4.94,13.38.7,2.89,1.19,5.65.54,8.55-.48,2.12.66,2.3,2.23,1.88,2.66-.7,5.21-.42,7.92.08,8.47,1.56,15.84-4.62,15.92-13.04Z"/>
      <path class="cls-1" d="M11.56,28.89c.33-1.39-.4-2.58-.84-3.84-1.78-5.14-.02-10.35,4.44-13.24,4.27-2.76,10.01-2.27,13.66,1.17,3.86,3.64,4.71,9.26,2.09,13.83-2.61,4.55-7.84,6.59-13.02,5.1-1.16-.34-2.25-1.06-3.56-.61-2.26.78-3.53.38-2.77-2.41ZM24.28,27.91c1.41.19,2.33-.51,3.04-1.65.47-.75.07-1.24-.46-1.72-.91-.81-1.77-1.33-2.89-.23-1.45,1.43-2.55.06-3.39-.79-1.24-1.24-3.36-2.24-2.2-4.65.71-1.48-.07-2.61-.84-3.68-.36-.51-1.03-.22-1.49.14-1.19.92-1.53,2.13-1.29,3.58.63,3.83,5.8,8.73,9.53,9Z"/>
    </g>
  </g>
</svg>