<?xml version="1.0" encoding="UTF-8"?>
<svg id="Capa_2" xmlns="http://www.w3.org/2000/svg" viewBox="0 0 257.5 82.58">
  <defs>
    <style>
      .cls-1 {
        opacity: .6;
      }

      .cls-1, .cls-2 {
        fill: #fff;
      }
    </style>
  </defs>
  <g id="Capa_1-2" data-name="Capa_1">
    <g>
      <g>
        <path class="cls-2" d="M102.32,41.29l-12.9,32.72h-3.34l-12.29-32.72h4.99l8.32,20.42c.36.94.68,1.78.94,2.51.25.72.5,1.41.74,2.07.17.47.34.96.53,1.49.15-.42.29-.83.44-1.24.34-.93.76-2.04,1.27-3.3l8.64-21.95h2.66Z"/>
        <polygon class="cls-2" points="110.36 43.69 110.36 55.95 123.93 55.95 123.93 58.35 110.36 58.35 110.36 71.61 126.33 71.61 126.33 74.01 105.69 74.01 105.69 41.29 126.51 41.29 126.51 43.69 110.36 43.69"/>
        <path class="cls-2" d="M155.99,62.62c-.89-1.53-1.98-2.81-3.25-3.79-1.65-1.29-3.16-1.76-4.62-2.21-1.77-.55-3.45-1.07-5.51-2.98-2.27-2.09-3.66-4.6-4.41-5.96-1.05-1.89-1.88-3.91-2.47-6l-.11-.38h-3.45v32.72h4.66v-16.09c0-.28,0-.9-.02-1.71-.02-.89-.26-4.31-.72-5.67l.58-.32c1.13,2.31,2.63,4.2,4.47,5.63,1.93,1.5,3.69,2.09,5.38,2.65,1.61.53,3.13,1.04,4.74,2.31,2.47,1.95,4.18,5,5.09,9.09l.02.08c.03.13.05.26.08.37,0,.02,0,.04.01.06.2.99.36,2.04.47,3.14l.05.47h3.16v-32.72h-4.21v13.33c0,.55,0,1.51.02,2.99v.73c.03,1.63.15,2.66.61,4.02l-.56.25Z"/>
        <polygon class="cls-2" points="187.27 41.29 187.27 43.69 178.14 43.69 178.14 74.01 173.93 74.01 173.93 43.69 165.1 43.69 165.1 41.29 187.27 41.29"/>
        <path class="cls-2" d="M217.59,41.29v20.07c0,2.49-.55,4.74-1.65,6.68-1.1,1.94-2.62,3.49-4.54,4.61-1.91,1.11-4.13,1.68-6.6,1.68s-4.59-.57-6.49-1.68c-1.9-1.11-3.4-2.67-4.47-4.61-1.06-1.94-1.6-4.18-1.6-6.68v-20.07h4.66v19.66c0,1.96.41,3.72,1.21,5.23.8,1.51,1.9,2.7,3.3,3.55,1.29.79,2.44,1.22,3.42,1.28,1.66.1,3.73-.33,5.32-1.28,1.42-.85,2.55-2.05,3.36-3.56.81-1.51,1.23-3.27,1.23-5.23v-19.66h2.84Z"/>
        <path class="cls-2" d="M257.5,41.29v32.72h-4.66v-16.4c0-2.7.02-5.17.07-7.34.02-1.08.06-2.18.12-3.28l-11.9,26.75h-1.82l-11.76-27.05c.06,1.11.1,2.22.13,3.33.05,2.11.07,4.66.07,7.59v16.4h-2.79v-32.72h4.94l11.68,26.53,11.8-26.53h4.11Z"/>
      </g>
      <g>
        <path class="cls-2" d="M58.83,54.23c-2.21-.22-3.85-.96-5.07-1.98-2.88-2.42-3.17-6.13-3.31-7.86-.13-1.71.06-3.13.26-4.08-.86.56-2.03,1.43-3.24,2.67-1.98,2.03-3,3.98-3.59,5.13-1.2,2.33-1.72,4.3-2.14,5.92-.38,1.46-.6,2.71-.73,3.6,1.61.52,5.07,1.39,17.82-3.39Z"/>
        <path class="cls-1" d="M50.67,40.29s-.05,0-.08-.01c-.2-.03-.65-.07-1.3-.08-4.36,0-17.56,2.08-22.84,26.89,2.58,4.49,5.76,8.84,9.66,12.88.28-.25,3.36-3.15,3.9-10.71.22-3.17.31-7.34,1-11.65,1.03-6.44,3.42-13.18,9.65-17.28.02-.01.04-.03.06-.04,0,0-.02,0-.05,0Z"/>
        <path class="cls-2" d="M36.12,79.98c-3.9-4.04-7.08-8.39-9.66-12.88C9.15,36.98,18.7,0,18.7,0c-41.48,28.19-1.88,77.58,4.16,80.94,6.04,3.36,11.14.81,13.29-.94,0,0-.02-.02-.02-.02Z"/>
      </g>
    </g>
  </g>
</svg>